SplineFontDB: 2.0
FontName: Mekorot-Vilna
FullName: Mekorot Vilna Font
FamilyName: Mekorot-Vilna
Weight: Normal
Copyright: Copyright .51 2002-2004 by Maxim Iorsh (iorsh@math.technion.ac.il). Distributed under the terms of GNU General Public License version 2(http://www.gnu.org/licenses/gpl.html). \nLatin glyphs, digits and punctuation Copyright (URW)++,Copyright 1999 by (URW)++ Design & Development.\nSlightly modified by Moshe Wagner (moshe.wagner@gmail.com) for the mekorot project (mekorot.sf.net)\nAll rights reserved.
Version: 0.100
ItalicAngle: 0
UnderlinePosition: -100
UnderlineWidth: 50
Ascent: 960
Descent: 240
NeedsXUIDChange: 1
UniqueID: 4243764
FSType: 0
OS2Version: 0
OS2_WeightWidthSlopeOnly: 0
OS2_UseTypoMetrics: 0
CreationTime: 1195722669
ModificationTime: 1227556071
PfmFamily: 17
TTFWeight: 700
TTFWidth: 5
LineGap: 108
VLineGap: 0
OS2TypoAscent: 0
OS2TypoAOffset: 1
OS2TypoDescent: 0
OS2TypoDOffset: 1
OS2TypoLinegap: 108
OS2WinAscent: 0
OS2WinAOffset: 1
OS2WinDescent: 0
OS2WinDOffset: 1
HheadAscent: 0
HheadAOffset: 1
HheadDescent: 0
HheadDOffset: 1
OS2Vendor: 'PfEd'
Lookup: 258 0 0 "'kern' Horizontal Kerning lookup 0"  {"'kern' Horizontal Kerning lookup 0 subtable"  } ['kern' ('DFLT' <'dflt' > ) ]
Lookup: 258 0 0 "'kern' Horizontal Kerning in Latin lookup 0"  {"'kern' Horizontal Kerning in Latin lookup 0 subtable"  } ['kern' ('latn' <'dflt' > ) ]
DEI: 0
LangName: 1033 
Encoding: Custom
UnicodeInterp: none
NameList: Adobe Glyph List
DisplaySize: -24
AntiAlias: 1
FitToEm: 1
WinInfo: 0 42 18
BeginPrivate: 7
BlueValues 31 [-20 0 461 481 600 650 676 696]
BlueScale 8 0.039625
StdHW 4 [33]
StdVW 5 [140]
StemSnapH 200 [33 44 48 55 66 73] 
systemdict /internaldict known
{1183615869 systemdict /internaldict get exec
/StemSnapLength 2 copy known { get 6 lt } { pop pop true } ifelse }
{ true } ifelse { pop [33 66] } if
StemSnapV 208 [118 140 148 163 174 178] 
systemdict /internaldict known
{1183615869 systemdict /internaldict get exec

StartChar: exclam
Encoding: 33 33 1
Width: 333
Flags: HMW
Validated: 1
HStem: -13 169<143 189> 671 20<139 192.5>
VStem: 82 169<48 93.5 47 94.5>
Fore
166 156 m 0
 213 156 251 117 251 70 c 0
 251 24 213 -13 165 -13 c 0
 118 -13 82 24 82 72 c 0
 82 117 120 156 166 156 c 0
180 234 m 1
 151 234 l 1
 138 357 128 407 99 502 c 0
 85 547 81 566 81 591 c 0
 81 654 112 691 166 691 c 0
 219 691 250 654 250 589 c 0
 250 566 246 546 232 502 c 0
 202 406 193 357 180 234 c 1
EndSplineSet
EndChar
StartChar: quotedbl
Encoding: 34 34 2
Width: 555
Flags: HMW
Validated: 1
HStem: 671 20<128 165.5 388 425.5>
Fore
168 404 m 1
 127 404 l 1
 122 426 118 445 116 452 c 0
 95 535 83 599 83 620 c 0
 83 663 109 691 147 691 c 0
 184 691 212 662 212 624 c 0
 212 602 202 551 168 404 c 1
428 404 m 1
 387 404 l 1
 382 425 377 445 376 452 c 0
 355 536 343 599 343 620 c 0
 343 663 369 691 407 691 c 0
 444 691 472 662 472 624 c 0
 472 602 459 537 428 404 c 1
EndSplineSet
EndChar
StartChar: numbersign
Encoding: 35 35 3
Width: 500
Flags: HMW
Validated: 1
HStem: 0 20 210 73<4 100 4 111 189 291 4 178 380 467> 417 73<33 129 33 139 33 207 217 320 408 496>
Fore
467 283 m 1
 467 210 l 1
 369 210 l 1
 340 0 l 1
 262 0 l 1
 291 210 l 1
 178 210 l 1
 149 0 l 1
 71 0 l 1
 100 210 l 1
 4 210 l 1
 4 283 l 1
 111 283 l 1
 129 417 l 1
 33 417 l 1
 33 490 l 1
 139 490 l 1
 169 700 l 1
 246 700 l 1
 217 490 l 1
 330 490 l 1
 360 700 l 1
 437 700 l 1
 408 490 l 1
 496 490 l 1
 496 417 l 1
 398 417 l 1
 380 283 l 1
 467 283 l 1
320 417 m 1
 207 417 l 1
 189 283 l 1
 302 283 l 1
 320 417 l 1
EndSplineSet
EndChar
StartChar: dollar
Encoding: 36 36 4
Width: 500
Flags: W
Validated: 1
HStem: 0 30<269 349.357> 481 21G<392.5 428> 644 28<153.801 213 269 328.326>
VStem: 29 95<490.941 587.054> 214 55<-99 0 30 250 454 641 674 750> 362 110<92.7173 204.8>
Fore
428 481 m 1
 407 481 l 1
 378 581 340 625 269 641 c 1
 269 426 l 1
 366 376 396 356 431 316 c 0
 457 287 472 244 472 196 c 0
 472 140 455 95 422 63 c 0
 390 32 351 15 269 0 c 1
 269 -99 l 1
 214 -99 l 1
 214 0 l 1
 152 3 128 9 46 43 c 1
 46 199 l 1
 67 197 l 1
 99 89 139 44 213 30 c 1
 213 281 l 1
 79 348 29 407 29 496 c 0
 29 559 60 612 115 644 c 0
 146 661 168 667 214 672 c 1
 214 750 l 1
 269 750 l 1
 269 674 l 1
 347 661 381 650 428 622 c 1
 428 481 l 1
269 250 m 1
 269 30 l 1
 332 42 362 75 362 134 c 0
 362 188 349 205 269 250 c 1
213 454 m 1
 213 644 l 1
 150 628 124 602 124 554 c 0
 124 508 153 475 213 454 c 1
EndSplineSet
EndChar
StartChar: percent
Encoding: 37 37 5
Width: 1000
Flags: W
Validated: 33
HStem: -14 46<659 756.145> 294 46<244.877 341.824> 321 51<739.689 831.637> 585 38<472.149 589.143> 672 20<292 362.5 687.5 728>
VStem: 432 33<461.193 589.464> 535 117<37.6919 188.075> 844 33<146.248 311.97>
Fore
761 372 m 0xbf
 831 372 877 327 877 257 c 0
 877 179 843 95 789 39 c 0
 758 6 712 -14 668 -14 c 0
 588 -14 535 41 535 125 c 0
 535 248 648 372 761 372 c 0xbf
792 321 m 0
 766 321 744 305 719 269 c 0
 686 220 652 129 652 88 c 0
 652 52 669 32 701 32 c 0
 738 32 773 61 803 116 c 0
 831 166 844 209 844 249 c 0
 844 290 822 321 792 321 c 0
728 692 m 1
 334 -8 l 1
 279 -8 l 1
 627 612 l 1
 585 594 546 585 512 585 c 0
 498 585 486 586 465 590 c 1
 464 501 448 445 406 383 c 0
 366 325 313 294 253 294 c 0xdf
 177 294 124 350 124 430 c 0
 124 558 234 678 350 678 c 0
 375 678 398 670 425 651 c 0
 456 629 477 623 518 623 c 0
 579 623 653 650 675 681 c 0
 680 688 685 692 690 692 c 2
 728 692 l 1
371 631 m 0
 355 633 330 612 309 581 c 0
 274 529 241 442 238 396 c 0
 236 364 256 340 286 340 c 0
 318 340 345 359 374 401 c 0
 410 454 432 519 432 569 c 0
 432 591 424 604 403 613 c 0
 397 615 396 616 387 623 c 0
 378 629 375 630 371 631 c 0
EndSplineSet
EndChar
StartChar: ampersand
Encoding: 38 38 6
Width: 833
Flags: W
Validated: 1
HStem: -16 101<609.313 710.009> -15 76<216.447 374.362> 395 24<577 641.756> 658 33<331.437 428.863>
VStem: 62 139<112.885 278.338> 206 117<520.484 619.709> 467 101<498.195 617.46>
Fore
577 419 m 1x7e
 783 419 l 1
 783 395 l 1
 740 391 728 384 710 355 c 2
 683 311 l 2
 656 268 645 252 590 176 c 1
 646 104 671 85 709 85 c 0
 733 85 750 96 767 123 c 1
 787 111 l 1
 771 85 l 2
 746 44 733 28 717 15 c 0
 693 -3 655 -16 624 -16 c 0xbe
 571 -16 535 6 475 72 c 1
 393 11 327 -15 253 -15 c 0
 141 -15 62 58 62 161 c 0
 62 255 116 318 258 388 c 1
 218 457 206 489 206 533 c 0
 206 630 281 691 401 691 c 0
 502 691 568 643 568 569 c 0
 568 506 522 462 416 423 c 1
 567 209 l 1
 625 281 643 314 643 354 c 0
 643 383 636 388 577 395 c 1
 577 419 l 1x7e
323 286 m 2
 275 358 l 1
 220 326 201 301 201 264 c 0
 201 212 230 148 273 103 c 0
 298 77 332 61 362 61 c 0x7e
 388 61 413 72 452 100 c 1
 420 142 398 174 323 286 c 2
397 452 m 1
 447 469 467 492 467 533 c 0
 467 600 424 658 375 658 c 0
 343 658 323 637 323 602 c 0
 323 561 344 518 397 452 c 1
EndSplineSet
EndChar
StartChar: quotesingle
Encoding: 39 39 7
Width: 278
Flags: HMW
Validated: 1
HStem: 671 20<120 157.5>
Fore
160 404 m 1
 119 404 l 1
 114 425 109 445 108 452 c 0
 87 535 75 599 75 620 c 0
 75 663 101 691 139 691 c 0
 176 691 204 662 204 624 c 0
 204 602 193 548 160 404 c 1
EndSplineSet
EndChar
StartChar: parenleft
Encoding: 40 40 8
Width: 333
Flags: HMW
Validated: 1
HStem: 674 20<306 306>
VStem: 46 113<213.5 323.5>
Fore
306 694 m 1
 306 667 l 1
 246 627 222 601 201 557 c 0
 173 497 159 396 159 258 c 0
 159 121 173 29 203 -33 c 0
 224 -78 249 -104 306 -140 c 1
 306 -168 l 1
 208 -109 165 -69 119 3 c 0
 71 79 46 168 46 259 c 0
 46 388 92 507 177 599 c 0
 216 640 244 661 306 694 c 1
EndSplineSet
EndChar
StartChar: parenright
Encoding: 41 41 9
Width: 333
Flags: HMW
Validated: 1
HStem: 674 20<27 27>
VStem: 174 113<202 312 202 336>
Fore
27 -168 m 1
 27 -141 l 1
 87 -101 112 -75 132 -31 c 0
 160 29 174 130 174 268 c 0
 174 404 160 497 130 559 c 0
 109 604 84 629 27 666 c 1
 27 694 l 1
 125 635 168 595 214 523 c 0
 262 447 287 358 287 266 c 0
 287 138 241 19 155 -73 c 0
 117 -114 89 -135 27 -168 c 1
EndSplineSet
EndChar
StartChar: asterisk
Encoding: 42 42 10
Width: 500
Flags: HMW
Validated: 1
HStem: 671 20<237 266>
VStem: 226 52<472 476 468 479 468 479>
Fore
278 476 m 1
 278 468 l 1
 314 451 329 447 374 443 c 0
 428 439 447 425 447 392 c 0
 447 364 426 342 398 342 c 0
 371 342 355 355 323 404 c 0
 303 432 295 439 266 454 c 1
 259 449 l 1
 264 404 268 389 288 349 c 0
 299 328 302 319 302 307 c 0
 302 278 280 255 251 255 c 0
 222 255 203 278 203 312 c 0
 203 328 206 337 218 359 c 0
 238 393 240 403 241 449 c 1
 234 454 l 1
 196 426 188 418 161 379 c 0
 141 348 128 339 107 339 c 0
 79 339 57 361 57 389 c 0
 57 426 86 445 142 445 c 0
 184 447 194 450 226 472 c 1
 226 479 l 1
 186 497 170 501 124 505 c 0
 72 509 56 521 56 557 c 0
 56 586 75 606 104 606 c 0
 131 606 146 595 167 561 c 0
 192 521 198 515 236 494 c 1
 243 497 l 1
 242 539 239 550 218 588 c 0
 204 614 200 624 200 641 c 0
 200 669 222 691 252 691 c 0
 280 691 300 669 300 636 c 0
 300 621 297 611 284 588 c 0
 267 560 262 541 262 516 c 2
 262 497 l 1
 270 494 l 1
 307 523 315 533 341 570 c 0
 361 601 373 609 395 609 c 0
 422 609 447 585 447 559 c 0
 447 541 431 519 411 510 c 0
 399 505 390 503 366 503 c 0
 323 501 311 497 278 476 c 1
EndSplineSet
EndChar
StartChar: plus
Encoding: 43 43 11
Width: 570
Flags: HMW
Validated: 1
HStem: 0 20 209 88<33 241 33 241 329 537>
VStem: 241 88<0 209 0 209 297 506>
Fore
241 297 m 1
 241 506 l 1
 329 506 l 1
 329 297 l 1
 537 297 l 1
 537 209 l 1
 329 209 l 1
 329 0 l 1
 241 0 l 1
 241 209 l 1
 33 209 l 1
 33 297 l 1
 241 297 l 1
EndSplineSet
EndChar
StartChar: comma
Encoding: 44 44 12
Width: 250
Flags: W
Validated: 1
HStem: -6 161<59.375 128.719 94.1224 150.593>
VStem: 155 68<-57.2793 48.1735>
Fore
57 -180 m 1
 46 -158 l 1
 121 -106 155 -64 155 -26 c 0
 155 -13 147 -4 136 -4 c 0
 134 -4 132 -4 129 -5 c 0
 123 -6 117 -6 112 -6 c 0
 69 -6 39 26 39 72 c 0
 39 122 72 155 122 155 c 0
 182 155 223 108 223 39 c 0
 223 -47 173 -113 57 -180 c 1
EndSplineSet
EndChar
StartChar: hyphen
Encoding: 45 45 13
Width: 333
Flags: HMW
Validated: 1
HStem: 171 116<44 287 44 287>
VStem: 44 243<171 287 171 287>
Fore
287 287 m 1
 287 171 l 1
 44 171 l 1
 44 287 l 1
 287 287 l 1
EndSplineSet
EndChar
StartChar: period
Encoding: 46 46 14
Width: 250
Flags: HMW
Validated: 1
HStem: -13 20
Fore
125 156 m 0
 172 156 210 117 210 70 c 0
 210 24 172 -13 124 -13 c 0
 77 -13 41 24 41 72 c 0
 41 117 79 156 125 156 c 0
EndSplineSet
EndChar
StartChar: slash
Encoding: 47 47 15
Width: 278
Flags: HMW
Validated: 1
HStem: -19 20 671 20<212 302 302 302>
Fore
302 691 m 1
 66 -19 l 1
 -24 -19 l 1
 212 691 l 1
 302 691 l 1
EndSplineSet
EndChar
StartChar: zero
Encoding: 48 48 16
Width: 500
Flags: W
Validated: 1
HStem: -13 28<208.689 292.552> 660 28<207.09 291.052>
VStem: 24 158<170.613 503.334> 318 158<166.757 499.5>
Fore
250 688 m 0
 379 688 476 537 476 337 c 0
 476 136 380 -13 251 -13 c 0
 118 -13 24 134 24 340 c 0
 24 423 46 517 78 572 c 0
 119 644 185 688 250 688 c 0
318 222 m 2
 318 451 l 2
 318 598 298 660 249 660 c 0
 201 660 182 602 182 451 c 2
 182 222 l 2
 182 74 201 15 251 15 c 0
 274 15 290 29 301 58 c 0
 310 85 318 163 318 222 c 2
EndSplineSet
EndChar
StartChar: one
Encoding: 49 49 17
Width: 500
Flags: W
Validated: 1
HStem: 0 24<67 169.575 347.357 442> 668 20G<270.761 334>
VStem: 67 375<0 24 24 553 1.53064e-18 1.53064e-18> 186 148<41.6249 576.686>
Fore
317 688 m 1xd0
 334 688 l 1
 334 118 l 2xd0
 334 41 351 26 442 24 c 1
 442 0 l 1
 67 0 l 1
 67 24 l 1xe0
 166 25 186 42 186 124 c 2
 186 509 l 2
 186 556 175 578 150 578 c 0
 137 578 112 571 85 561 c 1
 82 559 74 556 65 553 c 1
 65 579 l 1
 317 688 l 1xd0
EndSplineSet
EndChar
StartChar: two
Encoding: 50 50 18
Width: 500
Flags: W
Validated: 1
HStem: 0 133<160 427.164> 574 114<156.577 256.096>
VStem: 300 136<398.691 501.283>
Fore
478 211 m 1
 433 0 l 1
 17 0 l 1
 17 23 l 1
 163 179 198 221 249 299 c 0
 281 348 300 403 300 447 c 0
 300 470 292 498 280 519 c 0
 258 555 225 574 181 574 c 0
 127 574 90 546 59 484 c 1
 31 484 l 1
 59 559 79 593 118 632 c 0
 153 668 201 688 251 688 c 0
 359 688 436 612 436 505 c 0
 436 429 401 362 322 287 c 2
 160 133 l 1
 311 133 l 2
 413 133 425 139 454 211 c 1
 478 211 l 1
EndSplineSet
EndChar
StartChar: three
Encoding: 51 51 19
Width: 500
Flags: W
Validated: 1
HStem: -14 50<137.768 300.245> 607 81<156.354 310.975>
VStem: 283 146<469.618 577.684> 354 114<137.789 248.089>
Fore
58 523 m 1xe0
 37 535 l 1
 92 638 167 688 266 688 c 0
 368 688 429 637 429 551 c 0xe0
 429 492 410 463 346 424 c 1
 386 406 403 394 424 370 c 0
 453 335 468 292 468 246 c 0
 468 100 336 -14 169 -14 c 0
 77 -14 16 22 16 76 c 0
 16 110 43 134 81 134 c 0
 111 134 141 118 180 79 c 0
 213 47 232 36 256 36 c 0
 316 36 354 82 354 154 c 0xd0
 354 202 336 247 305 276 c 0
 269 310 236 327 153 356 c 1
 153 373 l 1
 248 403 283 438 283 504 c 0
 283 567 244 607 181 607 c 0
 129 607 96 584 58 523 c 1xe0
EndSplineSet
EndChar
StartChar: four
Encoding: 52 52 20
Width: 500
Flags: W
Validated: 1
HStem: 0 21G<267 412> 144 111<60 267 412 475> 668 20G<316.675 412>
VStem: 269 143<0 144 255 552>
Fore
412 255 m 1
 475 255 l 1
 475 144 l 1
 412 144 l 1
 412 0 l 1
 267 0 l 1
 267 144 l 1
 19 144 l 1
 19 257 l 1
 79 352 145 444 273 611 c 2
 332 688 l 1
 412 688 l 1
 412 255 l 1
269 255 m 1
 269 552 l 1
 60 255 l 1
 269 255 l 1
EndSplineSet
EndChar
StartChar: five
Encoding: 53 53 21
Width: 500
Flags: W
Validated: 1
HStem: -8 61<142.921 302.24> 549 127<149 427>
VStem: 373 78<125.212 282.32>
Fore
149 549 m 1
 127 468 l 1
 209 463 240 459 278 448 c 0
 387 417 451 337 451 233 c 0
 451 92 334 -8 169 -8 c 0
 80 -8 22 27 22 80 c 0
 22 115 48 140 84 140 c 0
 110 140 140 127 183 95 c 0
 223 65 250 53 273 53 c 0
 329 53 373 97 373 153 c 0
 373 219 320 276 231 304 c 0
 187 318 146 324 51 331 c 1
 148 676 l 1
 470 676 l 1
 427 549 l 1
 149 549 l 1
EndSplineSet
EndChar
StartChar: six
Encoding: 54 54 22
Width: 500
Flags: W
Validated: 1
HStem: -13 27<227.118 306.966> 376 45<223.4 346.46> 662 26<343.69 466.323>
VStem: 28 156<129.883 370.251> 28 442<100 343 222 273 273 273> 323 152<105.878 330.918>
Fore
470 688 m 1xe8
 470 662 l 1xe8
 324 632 241 551 204 404 c 1
 234 417 256 421 288 421 c 0
 402 421 475 343 475 222 c 0
 475 86 384 -13 260 -13 c 0
 120 -13 28 100 28 273 c 0xf4
 28 406 87 518 199 595 c 0
 275 647 337 669 470 688 c 1xe8
233 376 m 0
 219 376 205 372 197 366 c 0
 190 361 184 304 184 242 c 0
 184 149 194 76 211 43 c 0
 221 24 239 14 262 14 c 0
 311 14 323 44 323 162 c 0xf4
 323 321 300 376 233 376 c 0
EndSplineSet
EndChar
StartChar: seven
Encoding: 55 55 23
Width: 500
Flags: W
Validated: 1
HStem: 0 21G<147 248.953> 539 137<70.6688 347>
VStem: 17 25<458.86 535.302>
Fore
477 676 m 1
 242 0 l 1
 147 0 l 1
 347 539 l 1
 140 539 l 2
 85 539 61 518 42 454 c 1
 17 454 l 1
 61 676 l 1
 477 676 l 1
EndSplineSet
EndChar
StartChar: eight
Encoding: 56 56 24
Width: 500
Flags: W
Validated: 1
HStem: -13 32<184.24 307.108> 659 29<191.348 310.305>
VStem: 28 121<68.8172 245.093> 39 129<505.011 600.614> 333 139<87.1801 215.783> 339 119<469.266 622.424>
Fore
178 324 m 1xe8
 79 383 39 438 39 513 c 0
 39 618 128 688 263 688 c 0
 382 688 458 632 458 543 c 0xd4
 458 479 418 438 322 404 c 1
 429 336 472 274 472 187 c 0
 472 67 379 -13 240 -13 c 0
 113 -13 28 55 28 157 c 0
 28 201 43 239 72 267 c 0
 98 292 121 305 178 324 c 1xe8
298 422 m 1
 331 466 339 489 339 536 c 0
 339 614 307 659 251 659 c 0
 204 659 168 623 168 576 c 0
 168 520 214 465 298 422 c 1
200 306 m 1
 160 247 149 216 149 161 c 0
 149 72 185 19 246 19 c 0
 300 19 333 60 333 127 c 0xe8
 333 201 309 233 200 306 c 1
EndSplineSet
EndChar
StartChar: nine
Encoding: 57 57 25
Width: 500
Flags: W
Validated: 1
HStem: -13 26<31 151.611> 254 45<154.762 277.576> 661 27<193.891 286.374>
VStem: 26 152<343.699 567.459> 31 442<334 575 402 452 -13 -13> 317 156<312.056 544.619>
Fore
31 -13 m 1xe8
 31 13 l 1xe8
 175 42 256 121 299 273 c 1
 272 259 246 254 208 254 c 0
 99 254 26 334 26 452 c 0xf0
 26 589 116 688 241 688 c 0
 381 688 473 575 473 402 c 0xe8
 473 275 419 168 317 91 c 0xe4
 239 32 171 7 31 -13 c 1xe8
309 328 m 2
 312 354 l 2
 315 399 317 431 317 458 c 0
 317 529 307 599 292 627 c 0
 281 650 264 661 239 661 c 0
 190 661 178 631 178 515 c 0xf4
 178 358 201 299 263 299 c 0
 278 299 297 303 304 308 c 0
 307 310 308 315 309 328 c 2
EndSplineSet
EndChar
StartChar: colon
Encoding: 58 58 26
Width: 333
Flags: HMW
Validated: 1
HStem: -13 169<143 189> 303 169<143 189.5 143 189.5>
Fore
166 156 m 0
 213 156 251 117 251 70 c 0
 251 24 213 -13 165 -13 c 0
 118 -13 82 24 82 72 c 0
 82 117 120 156 166 156 c 0
166 472 m 0
 213 472 251 434 251 387 c 0
 251 341 213 303 166 303 c 0
 118 303 82 340 82 389 c 0
 82 434 120 472 166 472 c 0
EndSplineSet
EndChar
StartChar: semicolon
Encoding: 59 59 27
Width: 333
Flags: W
Validated: 1
HStem: -6 21G<147 173> 303 169<106 227.549>
VStem: 82 169<327.625 447.375> 198 68<-57.0812 48.0548>
Fore
100 -180 m 1xd0
 89 -158 l 1
 164 -106 198 -64 198 -25 c 0xd0
 198 -14 190 -4 180 -4 c 2
 173 -4 l 1
 161 -6 l 1
 153 -6 l 2
 141 -6 118 2 108 11 c 0
 91 25 82 46 82 72 c 0xe0
 82 122 115 155 165 155 c 0
 225 155 266 108 266 39 c 0
 266 -47 216 -113 100 -180 c 1xd0
166 472 m 0
 213 472 251 434 251 387 c 0
 251 341 213 303 166 303 c 0
 118 303 82 340 82 389 c 0xe0
 82 434 120 472 166 472 c 0
EndSplineSet
EndChar
StartChar: less
Encoding: 60 60 28
Width: 570
Flags: HMW
Validated: 1
HStem: -12 20
Fore
539 -12 m 1
 31 211 l 1
 31 295 l 1
 539 518 l 1
 539 422 l 1
 154 253 l 1
 539 84 l 1
 539 -12 l 1
EndSplineSet
EndChar
StartChar: equal
Encoding: 61 61 29
Width: 570
Flags: HMW
Validated: 1
HStem: 107 88<33 537 33 537> 311 88<33 537 33 537>
Fore
537 399 m 1
 537 311 l 1
 33 311 l 1
 33 399 l 1
 537 399 l 1
537 195 m 1
 537 107 l 1
 33 107 l 1
 33 195 l 1
 537 195 l 1
EndSplineSet
EndChar
StartChar: greater
Encoding: 62 62 30
Width: 570
Flags: HMW
Validated: 1
HStem: -12 20
Fore
31 -12 m 1
 31 84 l 1
 416 253 l 1
 31 422 l 1
 31 518 l 1
 539 295 l 1
 539 211 l 1
 31 -12 l 1
EndSplineSet
EndChar
StartChar: question
Encoding: 63 63 31
Width: 500
Flags: W
Validated: 1
HStem: -13 169<179.25 298.25> 469 21G<105.5 144> 653 36<155.569 267.599>
VStem: 57 94<534.594 621.632> 154 169<10.088 130.75> 223 30<231 254.438 254.438 323.717> 296 149<436.022 610.774>
Fore
253 231 m 1xf6
 223 231 l 1
 221 261 221 266 221 277 c 0
 221 305 229 328 253 374 c 0
 286 436 296 471 296 523 c 0
 296 605 265 653 212 653 c 0
 176 653 151 637 151 613 c 0
 151 603 154 597 166 584 c 0
 183 565 188 553 188 533 c 0
 188 495 163 469 125 469 c 0
 86 469 57 501 57 545 c 0
 57 629 135 689 245 689 c 0
 365 689 445 623 445 523 c 0
 445 454 415 413 324 357 c 0
 261 318 253 304 253 231 c 1xf6
239 156 m 0
 285 156 323 117 323 71 c 0
 323 24 286 -13 239 -13 c 0
 191 -13 154 24 154 72 c 0xf8
 154 117 193 156 239 156 c 0
EndSplineSet
EndChar
StartChar: at
Encoding: 64 64 32
Width: 930
Flags: W
Validated: 33
HStem: -19 46<372.32 631.559> 143 37<612.229 705.748> 144 47<410.328 488.721> 652 39<371.754 602.904>
VStem: 108 92<202.861 463.326> 319 77<203.354 377.785> 577 32<228 406> 775 47<269.02 490.694>
Fore
595 466 m 1xbf
 606 506 l 1
 677 506 l 1
 611 246 l 2
 610 241 609 234 609 228 c 0
 609 197 622 180 647 180 c 0
 713 180 775 279 775 385 c 0
 775 529 642 652 486 652 c 0
 320 652 200 515 200 325 c 0
 200 151 324 27 499 27 c 0
 566 27 616 39 698 76 c 1
 711 41 l 1
 614 -5 561 -19 487 -19 c 0
 274 -19 108 134 108 330 c 0
 108 531 275 691 485 691 c 0
 675 691 822 560 822 390 c 0
 822 257 735 143 633 143 c 0xdf
 583 143 546 173 539 218 c 1
 504 172 456 144 413 144 c 0
 360 144 319 194 319 259 c 0
 319 333 351 412 403 467 c 0
 435 500 478 519 522 519 c 0
 558 519 573 509 595 466 c 1xbf
535 471 m 0
 510 473 476 453 448 420 c 0
 414 382 396 331 396 277 c 0
 396 224 419 191 455 191 c 0xbf
 485 191 515 216 537 259 c 0
 558 300 575 361 577 406 c 0
 579 445 564 469 535 471 c 0
EndSplineSet
EndChar
StartChar: A
Encoding: 65 65 33
Width: 722
Flags: W
Validated: 1
HStem: 0 25<133.438 212 365 381.208 381.208 443.802 636.625 689> 197 39<189 384> 670 20G<320.898 365.479>
Fore
689 25 m 1
 689 0 l 1
 365 0 l 1
 365 25 l 1
 379 27 392 28 397 28 c 0
 432 30 445 40 445 61 c 0
 445 83 433 119 399 197 c 1
 174 197 l 1
 159 158 l 2
 138 104 130 79 130 66 c 0
 130 40 153 29 212 25 c 1
 212 0 l 1
 9 0 l 1
 9 25 l 1
 57 34 69 49 107 142 c 2
 329 690 l 1
 357 690 l 1
 580 164 l 2
 630 46 646 25 685 25 c 2
 689 25 l 1
189 236 m 1
 384 236 l 1
 283 479 l 1
 189 236 l 1
EndSplineSet
EndChar
StartChar: B
Encoding: 66 66 34
Width: 667
Flags: W
Validated: 1
HStem: 0 25<16 93.6902 269.844 403.847> 343 30<264 381.553> 651 25<16 93.4547 269.163 382.994>
VStem: 104 160<39.0771 343 373 637.803> 420 165<436.96 595.786> 447 172<102.21 272.929>
Fore
16 676 m 1xf4
 325 676 l 2
 492 676 585 619 585 516 c 0xf8
 585 440 542 399 426 365 c 1
 496 350 530 335 565 305 c 0
 600 274 619 233 619 188 c 0
 619 75 507 0 338 0 c 2
 16 0 l 1
 16 25 l 1
 89 33 104 45 104 96 c 2
 104 580 l 2
 104 631 85 647 16 651 c 1
 16 676 l 1xf4
264 343 m 1
 264 93 l 2
 264 49 281 32 325 32 c 0
 406 32 447 82 447 179 c 0xf4
 447 289 397 343 294 343 c 2
 264 343 l 1
264 597 m 2
 264 373 l 1
 387 376 420 404 420 509 c 0xf8
 420 603 388 646 318 646 c 0
 279 646 264 633 264 597 c 2
EndSplineSet
EndChar
StartChar: C
Encoding: 67 67 35
Width: 722
Flags: W
Validated: 1
HStem: -19 48<334.447 501.883> 658 33<323.565 474.756>
VStem: 49 177<190.849 472.697>
Fore
657 152 m 1
 687 127 l 1
 642 77 620 57 588 35 c 0
 533 -2 474 -19 403 -19 c 0
 196 -19 49 127 49 333 c 0
 49 537 198 691 397 691 c 0
 445 691 493 680 552 656 c 0
 574 646 589 642 598 642 c 0
 617 642 628 653 642 688 c 1
 669 688 l 1
 669 454 l 1
 644 454 l 1
 609 530 586 563 543 602 c 0
 500 640 457 658 410 658 c 0
 290 658 226 548 226 341 c 0
 226 241 240 169 269 116 c 0
 298 64 361 29 427 29 c 0
 455 29 488 35 517 47 c 0
 566 66 598 90 657 152 c 1
EndSplineSet
EndChar
StartChar: D
Encoding: 68 68 36
Width: 722
Flags: W
Validated: 1
HStem: 0 25<14 86.0312> 0 35<262.934 416.653> 642 34<260.184 410.75> 651 25<14 86.7528>
VStem: 97 162<39.3644 637.756> 516 174<204.7 484.176>
Fore
97 91 m 2x8c
 97 584 l 2
 97 630 78 645 14 651 c 1
 14 676 l 1x9c
 319 676 l 2
 550 676 690 551 690 345 c 0
 690 138 546 0 330 0 c 2x6c
 14 0 l 1
 14 25 l 1
 72 27 97 47 97 91 c 2x8c
259 607 m 2
 259 93 l 2
 259 48 272 35 317 35 c 0
 382 35 430 58 464 104 c 0
 496 149 516 235 516 330 c 0
 516 414 502 487 475 540 c 0
 441 609 390 642 318 642 c 0x6c
 279 642 259 630 259 607 c 2
EndSplineSet
EndChar
StartChar: E
Encoding: 69 69 37
Width: 667
Flags: W
Validated: 33
HStem: 0 25<16 93.9842 271.704 482.338> 329 34<266 371.897> 475 21G<555.5 593> 642 34<268.138 487.013> 651 25<16 93.4547>
VStem: 104 162<38.7831 329 363 637.803> 428 26<174 270.992 420.423 512>
Fore
593 676 m 1xee
 593 475 l 1
 568 475 l 1
 543 608 494 642 331 642 c 0xf6
 279 642 266 633 266 595 c 2
 266 363 l 1
 374 362 413 398 428 512 c 1
 454 512 l 1
 454 174 l 1
 428 174 l 1
 416 290 375 329 266 329 c 1
 266 87 l 2
 266 44 285 31 349 31 c 0
 425 31 480 47 526 84 c 0
 562 113 582 141 613 208 c 1
 641 208 l 1
 601 0 l 1
 16 0 l 1
 16 25 l 1
 90 33 104 44 104 96 c 2
 104 580 l 2
 104 631 85 647 16 651 c 1
 16 676 l 1
 593 676 l 1xee
EndSplineSet
EndChar
StartChar: F
Encoding: 70 70 38
Width: 611
Flags: W
Validated: 1
HStem: 0 25<16 93.9842 276.547 376> 329 34<266 363.542> 475 21G<552 583> 642 34<268.464 476.856> 651 25<16 93.4547>
VStem: 16 567<651 676 0 676 651 651> 104 162<38.7831 329 363 638.112> 419 25<174 270.496>
Fore
583 676 m 1xec
 583 475 l 1xec
 559 475 l 1
 545 538 534 565 512 590 c 0
 481 625 422 642 330 642 c 0
 279 642 266 632 266 595 c 2
 266 363 l 1
 366 363 401 398 419 512 c 1
 444 512 l 1
 444 174 l 1
 419 174 l 1
 405 290 368 327 266 329 c 1
 266 96 l 2xf3
 266 41 284 29 376 25 c 1
 376 0 l 1
 16 0 l 1
 16 25 l 1xf4
 90 33 104 44 104 96 c 2
 104 580 l 2xf2
 104 632 85 647 16 651 c 1
 16 676 l 1
 583 676 l 1xec
EndSplineSet
EndChar
StartChar: G
Encoding: 71 71 39
Width: 778
Flags: W
Validated: 1
HStem: -19 33<317.06 499.231> 262 25<412 503.719 680.707 755> 658 33<311.347 462.434>
VStem: 37 177<190.328 471.396> 513 156<43 248.065>
Fore
755 287 m 1
 755 262 l 1
 680 254 669 242 669 170 c 2
 669 43 l 1
 605 5 496 -19 393 -19 c 0
 183 -19 37 125 37 331 c 0
 37 537 186 691 385 691 c 0
 433 691 481 680 540 656 c 0
 562 646 577 642 586 642 c 0
 605 642 616 653 630 688 c 1
 657 688 l 1
 657 454 l 1
 632 454 l 1
 597 530 574 564 531 602 c 0
 487 640 444 658 398 658 c 0
 277 658 214 547 214 338 c 0
 214 218 235 132 279 76 c 0
 312 33 354 14 417 14 c 0
 484 14 513 36 513 87 c 2
 513 192 l 2
 513 246 498 257 412 262 c 1
 412 287 l 1
 755 287 l 1
EndSplineSet
EndChar
StartChar: H
Encoding: 72 72 40
Width: 778
Flags: W
Validated: 1
HStem: 0 25<21 94.9876 280.005 358 419 496.995 682.546 759> 326 47<268 509> 651 25<21 95.0094 279.914 358 419 497.086 682.78 759>
VStem: 106 162<40.0947 326 373 636.649> 509 162<40.0947 326 373 637.072>
Fore
509 326 m 1
 268 326 l 1
 268 96 l 2
 268 47 285 33 358 25 c 1
 358 0 l 1
 21 0 l 1
 21 25 l 1
 91 34 106 47 106 96 c 2
 106 580 l 2
 106 630 88 645 21 651 c 1
 21 676 l 1
 358 676 l 1
 358 651 l 1
 288 646 268 630 268 580 c 2
 268 373 l 1
 509 373 l 1
 509 580 l 2
 509 630 489 646 419 651 c 1
 419 676 l 1
 759 676 l 1
 759 651 l 1
 691 646 671 630 671 580 c 2
 671 96 l 2
 671 47 687 34 759 25 c 1
 759 0 l 1
 419 0 l 1
 419 25 l 1
 492 33 509 47 509 96 c 2
 509 326 l 1
EndSplineSet
EndChar
StartChar: I
Encoding: 73 73 41
Width: 389
Flags: W
Validated: 1
HStem: 0 25<20 101.473 285.962 370> 651 25<20 101.599 286.52 370>
VStem: 113 162<40.0386 636.518>
Fore
113 96 m 2
 113 580 l 2
 113 631 92 646 20 651 c 1
 20 676 l 1
 370 676 l 1
 370 651 l 1
 296 648 275 632 275 580 c 2
 275 96 l 2
 275 44 294 30 370 25 c 1
 370 0 l 1
 20 0 l 1
 20 25 l 1
 95 32 113 46 113 96 c 2
EndSplineSet
EndChar
StartChar: J
Encoding: 74 74 42
Width: 500
Flags: W
Validated: 1
HStem: -96 33<125.686 215.066> 651 25<127 217.4 401.975 479>
VStem: 3 116<-35.9996 42.7153> 228 162<0.00544739 24 24 637.448>
Fore
390 559 m 2
 390 123 l 2
 390 -20 316 -96 176 -96 c 0
 136 -96 96 -87 70 -73 c 0
 31 -50 3 -5 3 36 c 0
 3 74 36 108 73 108 c 0
 112 108 146 73 146 33 c 0
 146 18 143 10 131 -5 c 0
 122 -17 119 -23 119 -31 c 0
 119 -50 137 -63 164 -63 c 0
 209 -63 228 -38 228 24 c 2
 228 580 l 2
 228 634 208 648 127 651 c 1
 127 676 l 1
 479 676 l 1
 479 651 l 1
 404 646 390 631 390 559 c 2
EndSplineSet
EndChar
StartChar: K
Encoding: 75 75 43
Width: 778
Flags: W
Validated: 1
HStem: 0 25<30 106.757 290.546 367 433 449.208 449.208 511.99 742.887 769> 651 25<30 106.793 292.333 368 447 482.759 637.556 736>
VStem: 117 162<40.0947 292 345 636.51>
Fore
769 25 m 1
 769 0 l 1
 433 0 l 1
 433 25 l 1
 447 26 460 26 465 26 c 0
 498 28 512 33 512 46 c 0
 512 57 507 66 488 90 c 2
 306 317 l 1
 279 292 l 1
 279 96 l 2
 279 47 295 34 367 25 c 1
 367 0 l 1
 30 0 l 1
 30 25 l 1
 102 33 117 45 117 96 c 2
 117 580 l 2
 117 632 99 647 30 651 c 1
 30 676 l 1
 368 676 l 1
 368 651 l 1
 294 646 279 630 279 559 c 2
 279 345 l 1
 496 563 l 2
 527 594 532 602 532 618 c 0
 532 638 519 646 483 648 c 1
 478 649 464 650 447 651 c 1
 447 676 l 1
 736 676 l 1
 736 651 l 1
 639 643 603 618 415 424 c 1
 720 46 l 2
 733 31 744 26 769 25 c 1
EndSplineSet
EndChar
StartChar: L
Encoding: 76 76 44
Width: 667
Flags: W
Validated: 1
HStem: 0 25<19 95.4123 272.625 477.985> 651 25<19 94.8529 278.905 368>
VStem: 105 162<38.7274 636.933>
Fore
638 227 m 1
 597 0 l 1
 19 0 l 1
 19 25 l 1
 92 34 105 45 105 96 c 2
 105 580 l 2
 105 631 87 647 19 651 c 1
 19 676 l 1
 368 676 l 1
 368 651 l 1
 281 647 267 634 267 559 c 2
 267 87 l 2
 267 44 286 31 347 31 c 0
 424 31 480 49 521 86 c 0
 556 118 576 149 609 227 c 1
 638 227 l 1
EndSplineSet
EndChar
StartChar: M
Encoding: 77 77 45
Width: 944
Flags: W
Validated: 1
HStem: 0 25<14 94.1544 165.374 248 589 667.917 845.566 921> 651 25<16 95.232 845.214 921>
VStem: 105 42<44.4408 593.623> 678 155<40.3245 607.269>
Fore
678 609 m 1
 426 0 l 1
 399 0 l 1
 147 594 l 1
 147 124 l 2
 147 50 166 31 248 25 c 1
 248 0 l 1
 14 0 l 1
 14 25 l 1
 92 33 105 45 105 105 c 2
 105 580 l 2
 105 632 89 645 16 651 c 1
 16 676 l 1
 269 676 l 1
 469 204 l 1
 669 676 l 1
 921 676 l 1
 921 651 l 1
 848 646 833 631 833 559 c 2
 833 117 l 2
 833 46 843 35 921 25 c 1
 921 0 l 1
 589 0 l 1
 589 25 l 1
 664 32 678 44 678 100 c 2
 678 609 l 1
EndSplineSet
EndChar
StartChar: N
Encoding: 78 78 46
Width: 722
Flags: W
Validated: 1
HStem: 0 25<16 90.7599 166.625 243> 651 25<19 62.6829 486 560.25>
VStem: 104 44<44.8835 526> 579 44<247 631.744>
Fore
230 676 m 1
 579 247 l 1
 579 552 l 2
 579 623 560 644 486 651 c 1
 486 676 l 1
 701 676 l 1
 701 651 l 1
 636 641 623 628 623 571 c 2
 623 -18 l 1
 595 -18 l 1
 148 526 l 1
 148 124 l 2
 148 53 166 34 243 25 c 1
 243 0 l 1
 16 0 l 1
 16 25 l 1
 89 34 104 48 104 105 c 2
 104 579 l 1
 56 636 39 651 19 651 c 1
 19 676 l 1
 230 676 l 1
EndSplineSet
EndChar
StartChar: O
Encoding: 79 79 47
Width: 778
Flags: W
Validated: 1
HStem: -19 33<305.11 472.89> 658 33<309.5 467.665>
VStem: 35 177<192.195 473.444> 566 177<193.25 472.57>
Fore
393 691 m 0
 594 691 743 540 743 336 c 0
 743 129 596 -19 389 -19 c 0
 182 -19 35 128 35 335 c 0
 35 543 184 691 393 691 c 0
392 658 m 0
 275 658 212 542 212 326 c 0
 212 124 274 14 389 14 c 0
 504 14 566 124 566 329 c 0
 566 537 502 658 392 658 c 0
EndSplineSet
EndChar
StartChar: P
Encoding: 80 80 48
Width: 611
Flags: W
Validated: 1
HStem: 0 29<16.5149 86.7522 273.219 350> 303 35<262 333.747> 641 35<263.006 390.183> 651 25<16 87.4689>
VStem: 100 162<39.5811 303 338 636.768> 428 172<402.213 584.114>
Fore
262 303 m 1xec
 262 117 l 2
 262 44 271 35 350 25 c 1
 350 0 l 1
 16 0 l 1
 16 25 l 1
 27 27 37 29 40 29 c 0
 87 35 100 55 100 117 c 2
 100 559 l 2
 100 629 86 645 16 651 c 1
 16 676 l 1xdc
 338 676 l 2
 505 676 600 610 600 494 c 0
 600 417 556 356 475 325 c 0
 431 307 397 304 262 303 c 1xec
262 606 m 2
 262 338 l 1
 333 338 366 345 390 365 c 0
 416 388 428 426 428 489 c 0
 428 597 395 641 312 641 c 0xec
 279 641 262 629 262 606 c 2
EndSplineSet
EndChar
StartChar: Q
Encoding: 81 81 49
Width: 778
Flags: W
Validated: 1
HStem: -176 47<519.477 710.188> 658 33<312.61 466.073>
VStem: 35 177<193.782 468.737> 566 177<193.908 477.027>
Fore
730 -117 m 1
 736 -141 l 1
 661 -168 618 -176 557 -176 c 0
 469 -176 385 -144 329 -88 c 0
 306 -65 294 -46 273 -2 c 1
 197 26 165 46 124 92 c 0
 66 156 35 240 35 331 c 0
 35 539 185 691 389 691 c 0
 595 691 743 542 743 334 c 0
 743 237 710 151 649 86 c 0
 606 40 571 20 490 -6 c 1
 508 -43 518 -58 537 -77 c 0
 571 -111 616 -129 663 -129 c 0
 682 -129 698 -126 730 -117 c 1
390 658 m 0
 276 658 212 541 212 331 c 0
 212 123 273 14 389 14 c 0
 504 14 566 124 566 330 c 0
 566 538 502 658 390 658 c 0
EndSplineSet
EndChar
StartChar: R
Encoding: 82 82 50
Width: 722
Flags: W
Validated: 1
HStem: 0 25<26 102.444 288.566 364 692.777 715> 313 32<276 303> 642 34<298.644 420.178> 651 25<26 102.109>
VStem: 114 162<39.7832 313 345 619.748> 459 171<408.524 586.678>
Fore
715 25 m 1xec
 715 0 l 1
 510 0 l 1
 303 313 l 1
 276 313 l 1
 276 117 l 2
 276 46 286 35 364 25 c 1
 364 0 l 1
 26 0 l 1
 26 25 l 1
 104 34 114 44 114 117 c 2
 114 559 l 2
 114 631 100 646 26 651 c 1
 26 676 l 1xdc
 348 676 l 2
 531 676 630 613 630 498 c 0
 630 453 614 413 585 386 c 0
 557 361 532 348 473 329 c 1
 674 44 l 2
 684 31 697 25 715 25 c 1xec
276 600 m 2
 276 345 l 1
 352 346 386 353 412 370 c 0
 444 391 459 430 459 494 c 0
 459 599 422 642 330 642 c 0xec
 305 642 289 637 283 627 c 0
 280 621 276 606 276 600 c 2
EndSplineSet
EndChar
StartChar: S
Encoding: 83 83 51
Width: 556
Flags: W
Validated: 1
HStem: -19 33<193.17 351.141> 475 21G<446 484> 660 31<185.621 330.822>
VStem: 35 478<66 228 -19 192 -19 -19> 44 109<447.835 594.954> 394 119<91.8151 231.079>
Fore
484 475 m 1xec
 456 475 l 1
 436 540 420 569 386 604 c 0
 350 641 308 660 263 660 c 0
 195 660 153 622 153 560 c 0xec
 153 512 175 487 256 447 c 2
 403 374 l 2
 467 342 513 267 513 192 c 0
 513 66 413 -19 265 -19 c 0
 222 -19 185 -12 135 5 c 0
 113 12 102 15 94 15 c 0
 78 15 70 6 64 -19 c 1
 35 -19 l 1
 35 228 l 1xf0
 64 228 l 1
 81 158 95 125 122 88 c 0
 160 39 210 14 268 14 c 0
 345 14 394 59 394 128 c 0
 394 180 370 206 282 248 c 2
 215 280 l 2
 96 337 44 400 44 488 c 0
 44 614 127 691 263 691 c 0
 301 691 333 685 380 669 c 0
 402 661 413 658 422 658 c 0
 439 658 447 666 454 692 c 1
 484 692 l 1
 484 475 l 1xec
EndSplineSet
EndChar
StartChar: T
Encoding: 84 84 52
Width: 667
Flags: W
Validated: 1
HStem: 0 25<156 241.324 425.754 513> 475 21G<31 68.5 598.5 636> 644 32<138.441 253 415 528.785>
VStem: 31 29<475 562.494> 253 162<39.4675 644> 607 29<475 562.494>
Fore
253 117 m 2
 253 644 l 1
 129 640 77 594 60 475 c 1
 31 475 l 1
 34 676 l 1
 634 676 l 1
 636 475 l 1
 607 475 l 1
 590 594 538 640 415 644 c 1
 415 117 l 2
 415 41 426 31 513 25 c 1
 513 0 l 1
 156 0 l 1
 156 25 l 1
 242 32 253 43 253 117 c 2
EndSplineSet
EndChar
StartChar: U
Encoding: 85 85 53
Width: 722
Flags: W
Validated: 1
HStem: -19 49<312.355 496.783> 651 25<16 86.3287 278.566 354 481 560.604>
VStem: 98 159<96.1672 603.218> 579 44<109.937 631.331>
Fore
623 566 m 2
 623 247 l 2
 623 154 597 78 552 40 c 0
 509 3 439 -19 365 -19 c 0
 292 -19 228 -1 180 34 c 0
 119 78 98 127 98 225 c 2
 98 559 l 2
 98 631 86 644 16 651 c 1
 16 676 l 1
 354 676 l 1
 354 651 l 1
 306 649 290 645 278 635 c 0
 263 621 257 599 257 559 c 2
 257 225 l 2
 257 89 302 30 404 30 c 0
 523 30 579 99 579 247 c 2
 579 552 l 2
 579 625 559 645 481 651 c 1
 481 676 l 1
 701 676 l 1
 701 651 l 1
 637 641 623 625 623 566 c 2
EndSplineSet
EndChar
StartChar: V
Encoding: 86 86 54
Width: 722
Flags: W
Validated: 1
HStem: -18 21G<347.452 390.768> 651 25<16 75.6191 267.635 335.269 335.269 352 488 571.417 640.777 701>
Fore
701 676 m 1
 701 651 l 1
 649 644 635 631 611 569 c 2
 383 -18 l 1
 356 -18 l 1
 100 581 l 2
 75 636 66 644 16 651 c 1
 16 676 l 1
 352 676 l 1
 352 651 l 1
 337 650 324 649 319 649 c 0
 281 647 266 636 266 613 c 0
 266 598 270 586 289 541 c 2
 427 207 l 1
 554 536 l 2
 571 579 574 591 574 607 c 0
 574 639 559 646 488 651 c 1
 488 676 l 1
 701 676 l 1
EndSplineSet
EndChar
StartChar: W
Encoding: 87 87 55
Width: 1000
Flags: W
Validated: 1
HStem: -15 21G<292.957 335.799 677.83 718.645> 651 25<19 71.3661 251.016 313 387 453.792 628.4 692.408 692.408 699 799 865.219 931.812 981>
Fore
981 676 m 1
 981 651 l 1
 948 648 925 627 912 587 c 2
 712 -15 l 1
 685 -15 l 1
 514 462 l 1
 328 -15 l 1
 300 -15 l 1
 88 587 l 2
 71 636 61 645 19 651 c 1
 19 676 l 1
 313 676 l 1
 313 651 l 1
 261 647 249 638 249 609 c 0
 249 600 251 592 256 576 c 2
 376 212 l 1
 494 520 l 1
 459 616 l 2
 448 640 428 649 387 651 c 1
 387 676 l 1
 699 676 l 1
 699 651 l 1
 693 650 688 650 686 650 c 0
 642 647 627 638 627 614 c 0
 627 605 631 590 641 558 c 2
 749 222 l 1
 861 565 l 2
 866 579 868 594 868 607 c 0
 868 638 853 648 799 651 c 1
 799 676 l 1
 981 676 l 1
EndSplineSet
EndChar
StartChar: X
Encoding: 88 88 56
Width: 722
Flags: W
Validated: 1
HStem: 0 25<16 89.8896 188.566 266 359 373.208 373.208 438.688 646.243 699> 651 25<17 71.9597 284.586 347.292 347.292 363 438 448.138 448.138 508.855 606.739 688>
Fore
688 676 m 1
 688 651 l 1
 614 644 588 625 500 505 c 2
 420 394 l 1
 602 111 l 2
 650 39 665 26 699 25 c 1
 699 0 l 1
 359 0 l 1
 359 25 l 1
 372 26 383 27 387 27 c 0
 422 29 439 38 439 55 c 0
 439 66 430 90 418 109 c 2
 317 271 l 1
 279 220 l 2
 205 120 185 88 185 66 c 0
 185 41 205 31 266 25 c 1
 266 0 l 1
 16 0 l 1
 16 25 l 1
 66 31 90 44 120 81 c 2
 295 302 l 1
 97 593 l 2
 66 638 53 648 17 651 c 1
 17 676 l 1
 363 676 l 1
 363 651 l 1
 349 650 337 649 332 649 c 0
 296 647 284 639 284 618 c 0
 284 606 286 601 299 581 c 2
 396 431 l 1
 421 466 444 498 452 508 c 0
 499 572 510 593 510 614 c 0
 510 638 498 647 458 649 c 1
 455 650 447 650 438 651 c 1
 438 676 l 1
 688 676 l 1
EndSplineSet
EndChar
StartChar: Y
Encoding: 89 89 57
Width: 722
Flags: W
Validated: 1
HStem: 0 25<185 265.642 451.928 532> 651 25<15 72.1668 269.28 350 479 560.214>
VStem: 278 162<39.265 264>
Fore
699 676 m 1
 699 651 l 1
 665 646 646 635 631 612 c 2
 440 301 l 1
 440 117 l 2
 440 43 450 33 532 25 c 1
 532 0 l 1
 185 0 l 1
 185 25 l 1
 267 33 278 44 278 117 c 2
 278 264 l 1
 95 596 l 2
 75 630 49 649 15 651 c 1
 15 676 l 1
 350 676 l 1
 350 651 l 1
 325 650 l 2
 284 650 269 642 269 620 c 0
 269 609 273 598 287 573 c 2
 287 573 292 564 293 561 c 2
 413 329 l 1
 524 514 l 2
 549 555 563 590 563 609 c 0
 563 638 546 646 479 651 c 1
 479 676 l 1
 699 676 l 1
EndSplineSet
EndChar
StartChar: Z
Encoding: 90 90 58
Width: 667
Flags: W
Validated: 33
HStem: 0 35<225 484.625> 470 21G<59 111> 638 38<183.425 367.923 367.923 410>
Fore
634 241 m 1
 608 0 l 1
 28 0 l 1
 28 16 l 1
 410 641 l 1
 373 640 339 639 327 638 c 0
 179 640 135 609 87 470 c 1
 59 470 l 1
 80 676 l 1
 604 676 l 1
 604 660 l 1
 225 35 l 1
 299 35 l 2
 395 35 477 50 511 74 c 0
 558 107 581 147 608 241 c 1
 634 241 l 1
EndSplineSet
EndChar
StartChar: bracketleft
Encoding: 91 91 59
Width: 333
Flags: HMW
Validated: 1
HStem: -149 33<221 301 221 301> 645 33<210 238 238 301>
VStem: 67 104<-84.5 -63 -63 575>
Fore
301 -116 m 1
 301 -149 l 1
 67 -149 l 1
 67 678 l 1
 301 678 l 1
 301 645 l 1
 238 645 l 2
 182 645 171 633 171 575 c 2
 171 -63 l 2
 171 -106 180 -116 221 -116 c 2
 301 -116 l 1
EndSplineSet
EndChar
StartChar: backslash
Encoding: 92 92 60
Width: 278
Flags: HMW
Validated: 1
HStem: -19 20 671 20<-25 68 68 68>
Fore
211 -19 m 1
 -25 691 l 1
 68 691 l 1
 303 -19 l 1
 211 -19 l 1
EndSplineSet
EndChar
StartChar: bracketright
Encoding: 93 93 61
Width: 333
Flags: HMW
Validated: 1
HStem: -149 33<32 112 32 112 112 133 32 266> 645 33<32 95 32 266>
VStem: 162 104<-63 575 575 604>
Fore
32 -149 m 1
 32 -116 l 1
 112 -116 l 2
 154 -116 162 -107 162 -63 c 2
 162 575 l 2
 162 633 151 645 95 645 c 2
 32 645 l 1
 32 678 l 1
 266 678 l 1
 266 -149 l 1
 32 -149 l 1
EndSplineSet
EndChar
StartChar: asciicircum
Encoding: 94 94 62
Width: 581
Flags: HMW
Validated: 1
HStem: 656 20<251 331 331 331>
Fore
162 311 m 1
 73 311 l 1
 251 676 l 1
 331 676 l 1
 509 311 l 1
 420 311 l 1
 291 583 l 1
 162 311 l 1
EndSplineSet
EndChar
StartChar: underscore
Encoding: 95 95 63
Width: 500
Flags: HMW
Validated: 1
HStem: -125 50<0 500 0 500>
Fore
500 -125 m 1
 0 -125 l 1
 0 -75 l 1
 500 -75 l 1
 500 -125 l 1
EndSplineSet
EndChar
StartChar: grave
Encoding: 96 96 64
Width: 333
Flags: W
Validated: 1
HStem: 528 185
VStem: 8 238<528 668 668 668>
Fore
246 528 m 1
 190 528 l 1
 48 616 l 2
 19 634 8 648 8 668 c 0
 8 693 29 713 55 713 c 0
 74 713 93 703 109 685 c 2
 246 528 l 1
EndSplineSet
EndChar
StartChar: a
Encoding: 97 97 65
Width: 500
Flags: W
Validated: 1
HStem: -14 71<128.625 235.009 379.003 454.331> -14 487<311.859 356.901 233 376 233 233> 245 35<177.597 284.146> 441 32<150.665 276.981>
VStem: 25 463<43 92 92 235> 25 146<64.5858 164.648> 44 103<337.187 414.976> 294 137<100 245 280 410.742>
Fore
473 64 m 1x43
 488 43 l 1x48
 450 2 419 -14 376 -14 c 0
 327 -14 305 5 294 56 c 1x41
 239 6 193 -14 136 -14 c 0
 72 -14 25 31 25 92 c 0x88
 25 135 46 169 89 199 c 0
 126 224 175 244 294 280 c 1
 294 353 l 2
 294 414 268 441 210 441 c 0xb1
 175 441 147 425 147 404 c 0
 147 398 150 392 159 382 c 0
 171 366 177 353 177 339 c 0
 177 305 149 281 109 281 c 0
 68 281 44 306 44 347 c 0
 44 422 120 473 233 473 c 0
 355 473 431 420 431 336 c 2
 431 75 l 2
 431 59 438 50 452 50 c 0
 457 50 460 51 463 54 c 2
 473 64 l 1x43
293 100 m 1
 293 245 l 1
 213 224 171 182 171 124 c 0
 171 84 192 57 222 57 c 0xa4
 246 57 266 69 293 100 c 1
EndSplineSet
EndChar
StartChar: b
Encoding: 98 98 66
Width: 556
Flags: W
Validated: 1
HStem: -14 32<227.007 333.66> 419 54<245.724 389.916> 656 20G<17 211>
VStem: 17 504<239 652 475 702.247> 72 139<43.5239 360 417 644.247> 374 147<113.532 365.101>
Fore
211 676 m 1xe8
 211 417 l 1xe8
 248 456 285 473 333 473 c 0
 444 473 521 377 521 239 c 0xf0
 521 90 428 -14 295 -14 c 0
 245 -14 209 2 163 43 c 1
 84 -13 l 1
 72 -13 l 1
 72 594 l 2xe8
 72 634 63 643 17 652 c 1
 17 676 l 1xf0
 211 676 l 1xe8
211 360 m 1
 211 97 l 2
 211 49 238 18 280 18 c 0
 344 18 374 83 374 221 c 0xec
 374 352 343 419 281 419 c 0
 248 419 228 403 211 360 c 1
EndSplineSet
EndChar
StartChar: c
Encoding: 99 99 67
Width: 444
Flags: W
Validated: 1
HStem: -14 67<175.757 344.473> 442 31<200.351 279.409>
VStem: 25 141<137.861 340.479> 292 124<311.279 422.585>
Fore
412 109 m 1
 430 91 l 1
 372 17 316 -14 239 -14 c 0
 115 -14 25 85 25 223 c 0
 25 367 125 473 261 473 c 0
 349 473 416 425 416 363 c 0
 416 324 390 300 348 300 c 0
 311 300 293 323 292 372 c 0
 292 414 292 414 287 423 c 0
 281 434 266 442 250 442 c 0
 198 442 166 379 166 276 c 0
 166 140 221 53 308 53 c 0
 349 53 375 67 412 109 c 1
EndSplineSet
EndChar
StartChar: d
Encoding: 100 100 68
Width: 556
Flags: W
Validated: 1
HStem: -14 56<152.015 294.535> 417 56<206.194 296.535> 652 24<260 332.338>
VStem: 25 148<95.1174 350.66> 336 139<100.827 101 112 355 411 643.58>
Fore
339 -13 m 1
 339 52 l 1
 292 2 259 -14 206 -14 c 0
 101 -14 25 85 25 221 c 0
 25 366 107 473 217 473 c 0
 263 473 293 457 336 411 c 1
 336 594 l 2
 336 640 327 647 260 652 c 1
 260 676 l 1
 475 676 l 1
 475 101 l 2
 475 59 488 46 534 43 c 1
 534 20 l 1
 472 12 l 2
 410 5 385 0 339 -13 c 1
336 112 m 2
 336 355 l 1
 322 393 291 417 258 417 c 0
 200 417 173 358 173 229 c 0
 173 102 198 42 251 42 c 0
 273 42 294 53 314 76 c 0
 326 89 336 106 336 112 c 2
EndSplineSet
EndChar
StartChar: e
Encoding: 101 101 69
Width: 444
Flags: W
Validated: 1
HStem: -14 72<222.545 332.027> 245 37<169 298> 442 31<187.64 280.417>
VStem: 25 144<118.535 245 282 353.706>
Fore
402 125 m 1
 426 111 l 1
 361 18 312 -14 231 -14 c 0
 107 -14 25 82 25 228 c 0
 25 374 109 473 234 473 c 0
 289 473 335 453 368 414 c 0
 400 376 415 329 421 245 c 1
 169 245 l 1
 173 176 181 143 199 111 c 0
 220 76 249 58 288 58 c 0
 331 58 362 76 402 125 c 1
164 282 m 1
 298 282 l 1
 298 297 l 2
 296 348 294 376 289 395 c 0
 281 426 262 442 234 442 c 0
 185 442 167 402 164 282 c 1
EndSplineSet
EndChar
StartChar: f
Encoding: 102 102 70
Width: 333
Flags: W
Validated: 1
HStem: 0 24<14 66.1257 217.488 292> 417 44<14 71 210 297> 660 31<218.207 283.355>
VStem: 71 139<32.7363 417 461 618.035> 289 100<579.664 651.219>
Fore
71 417 m 1
 14 417 l 1
 14 461 l 1
 71 461 l 1
 71 547 78 588 100 623 c 0
 127 667 179 691 246 691 c 0
 330 691 389 650 389 591 c 0
 389 554 364 529 327 529 c 0
 293 529 267 553 267 584 c 0
 267 594 271 605 280 620 c 0
 286 630 289 637 289 641 c 0
 289 653 278 660 260 660 c 0
 225 660 210 638 210 583 c 2
 210 461 l 1
 297 461 l 1
 297 417 l 1
 210 417 l 1
 210 103 l 2
 210 38 222 26 292 24 c 1
 292 0 l 1
 14 0 l 1
 14 24 l 1
 60 29 71 41 71 84 c 2
 71 417 l 1
EndSplineSet
EndChar
StartChar: g
Encoding: 103 103 71
Width: 500
Flags: W
Validated: 1
HStem: -206 32<136.071 377.395> -52 120<155.016 395.081> 155 27<191.454 287.538> 398 53<401 482> 442 31<192.264 287.717>
VStem: 28 455<-154 -73 -114 -55 -114 -114> 28 88<-151.611 -74.4984> 37 137<231.16 395.549> 42 112<37.5959 107.185> 306 135<217.445 382.29> 404 79<-134.1 -19.839>
Fore
482 398 m 1xf1
 401 398 l 1
 429 370 441 340 441 300 c 0
 441 247 418 206 373 180 c 0
 339 160 314 154 267 154 c 2
 222 155 l 2
 182 155 154 133 154 103 c 0xf0c0
 154 75 174 68 254 68 c 2
 319 68 l 2
 421 68 483 22 483 -55 c 0
 483 -154 395 -206 229 -206 c 0
 103 -206 28 -172 28 -114 c 0xf4
 28 -73 61 -48 124 -39 c 1
 60 -16 42 2 42 43 c 0xf080
 42 95 82 133 161 160 c 1
 114 180 95 193 73 217 c 0
 50 245 37 278 37 312 c 0
 37 407 121 473 240 473 c 0xe9
 280 473 308 467 352 451 c 1
 482 451 l 1
 482 398 l 1xf1
324 -52 m 2
 151 -52 l 1
 123 -75 116 -86 116 -107 c 0
 116 -151 162 -174 250 -174 c 0
 349 -174 404 -148 404 -102 c 0xe220
 404 -69 378 -52 324 -52 c 2
240 442 m 0xe940
 193 442 174 405 174 311 c 0
 174 218 192 182 240 182 c 0
 287 182 306 218 306 311 c 0
 306 404 287 442 240 442 c 0xe940
EndSplineSet
EndChar
StartChar: h
Encoding: 104 104 72
Width: 556
Flags: W
Validated: 1
HStem: 0 24<212.782 257 299 341.067 490.015 534 16 534 257 257> 406 67<264.25 384.077> 656 20G<16 208>
VStem: 69 139<31.4111 356.482 395 644.906> 346 139<29.3906 396.672>
Fore
208 676 m 1
 208 395 l 1
 260 453 297 473 350 473 c 0
 432 473 485 418 485 332 c 2
 485 84 l 2
 485 42 498 27 534 24 c 1
 534 0 l 1
 299 0 l 1
 299 24 l 1
 333 28 346 44 346 81 c 2
 346 323 l 2
 346 379 329 406 294 406 c 0
 271 406 247 394 225 371 c 0
 215 362 208 352 208 348 c 2
 208 81 l 2
 208 44 220 29 257 24 c 1
 257 0 l 1
 16 0 l 1
 16 24 l 1
 61 33 69 42 69 84 c 2
 69 594 l 2
 69 635 62 643 16 652 c 1
 16 676 l 1
 208 676 l 1
EndSplineSet
EndChar
StartChar: i
Encoding: 105 105 73
Width: 278
Flags: W
Validated: 1
HStem: 0 24<212.701 255 16 255 255 255> 441 20G<16 208> 536 155<80.2904 195.06>
VStem: 60 155<555.59 670.71> 69 139<32.3588 429.75>
Fore
208 461 m 1xe8
 208 81 l 2
 208 43 220 29 255 24 c 1
 255 0 l 1
 16 0 l 1
 16 24 l 1
 62 35 69 43 69 84 c 2
 69 378 l 2
 69 419 60 428 16 437 c 1
 16 461 l 1
 208 461 l 1xe8
138 691 m 0
 181 691 215 656 215 613 c 0
 215 569 181 536 137 536 c 0
 93 536 60 569 60 614 c 0xf0
 60 656 95 691 138 691 c 0
EndSplineSet
EndChar
StartChar: j
Encoding: 106 106 74
Width: 333
Flags: W
Validated: 1
HStem: -203 31<47.2686 112.254> 437 24<58 116.17> 536 155<127.837 242.71>
VStem: -57 320<-103 613 -103 -103> -57 98<-163.308 -92.6376> 108 155<555.837 670.71> 121 139<-60.5145 430.204>
Fore
260 461 m 1xea
 260 2 l 2xea
 260 -57 252 -95 233 -127 c 0
 205 -176 152 -203 83 -203 c 0
 1 -203 -57 -162 -57 -103 c 0xf0
 -57 -67 -32 -42 5 -42 c 0
 37 -42 64 -66 64 -96 c 0
 64 -106 60 -117 50 -133 c 0
 44 -143 41 -150 41 -155 c 0
 41 -165 54 -172 73 -172 c 0
 106 -172 121 -149 121 -96 c 2
 121 378 l 2
 121 421 109 433 58 437 c 1
 58 461 l 1
 260 461 l 1xea
185 691 m 0
 228 691 263 656 263 613 c 0xf0
 263 570 228 536 185 536 c 0
 140 536 108 569 108 614 c 0xe4
 108 656 142 691 185 691 c 0
EndSplineSet
EndChar
StartChar: k
Encoding: 107 107 75
Width: 556
Flags: W
Validated: 1
HStem: 0 24<22 64.049 211.922 261 309 350.99 528.006 543 22 543 22 22> 438 23<437.363 513> 652 24<22 64.7934>
VStem: 70 139<29.6781 198 245 647.016>
Fore
513 461 m 1
 513 438 l 1
 450 430 424 412 324 307 c 1
 518 39 l 2
 527 27 532 24 543 24 c 1
 543 0 l 1
 309 0 l 1
 309 24 l 1
 337 25 351 31 351 43 c 0
 351 51 344 63 327 88 c 2
 232 222 l 1
 209 198 l 1
 209 84 l 2
 209 37 214 31 261 24 c 1
 261 0 l 1
 22 0 l 1
 22 24 l 1
 55 27 70 45 70 84 c 2
 70 594 l 2
 70 632 56 649 22 652 c 1
 22 676 l 1
 209 676 l 1
 209 245 l 1
 337 373 l 2
 348 384 358 402 358 411 c 0
 358 424 347 431 323 434 c 0
 320 435 310 436 299 438 c 1
 299 461 l 1
 513 461 l 1
EndSplineSet
EndChar
StartChar: l
Encoding: 108 108 76
Width: 278
Flags: W
Validated: 1
HStem: 0 24<16 59.8281 211.712 255 16 255 16 16> 652 24<16 60.6615>
VStem: 67 139<30.9043 645.82>
Fore
206 676 m 1
 206 84 l 2
 206 44 222 25 255 24 c 1
 255 0 l 1
 16 0 l 1
 16 24 l 1
 50 27 67 47 67 84 c 2
 67 594 l 2
 67 631 51 649 16 652 c 1
 16 676 l 1
 206 676 l 1
EndSplineSet
EndChar
StartChar: m
Encoding: 109 109 77
Width: 833
Flags: W
Validated: 1
HStem: 0 24<214.427 256 300 344.32 491.701 534 576 621.289 767.353 814> 0 473<348.143 437.828 626.342 712.97 354 814 116 161.289> 406 67<263.651 378.158 544.133 663.695> 437 24<16 66.207>
VStem: 71 139<32.0626 356.762 386 430.002> 348 139<28.8447 356.087> 625 139<28.2656 399.769>
CounterMasks: 1 0e
Fore
207 461 m 1x9e
 207 386 l 1
 245 446 291 473 354 473 c 0
 417 473 452 449 482 386 c 1
 534 450 572 473 629 473 c 0x4e
 711 473 764 418 764 332 c 2
 764 81 l 2
 764 38 775 26 814 24 c 1
 814 0 l 1
 576 0 l 1
 576 24 l 1
 614 27 625 39 625 81 c 2
 625 323 l 2
 625 382 610 406 572 406 c 0
 555 406 538 399 516 382 c 0
 503 372 487 353 487 348 c 2
 487 81 l 2
 487 43 499 28 534 24 c 1
 534 0 l 1
 300 0 l 1
 300 24 l 1
 337 27 348 40 348 81 c 2
 348 323 l 2
 348 383 333 406 294 406 c 0
 277 406 260 399 239 383 c 0
 226 373 210 354 210 348 c 2
 210 81 l 2
 210 43 221 29 256 24 c 1
 256 0 l 1xae
 16 0 l 1x4e
 16 24 l 1
 60 32 71 43 71 84 c 2
 71 378 l 2
 71 419 60 431 16 437 c 1
 16 461 l 1
 207 461 l 1x9e
EndSplineSet
EndChar
StartChar: n
Encoding: 110 110 78
Width: 556
Flags: W
Validated: 1
HStem: 0 24<217.782 262 304 346.067 493.51 539 21 539 262 262> 0 473<352.198 438.97 355 539 309.51 355> 406 67<267.852 389.077>
VStem: 74 139<31.4111 356.482 386 430.734> 351 139<29.3906 396.672>
Fore
212 461 m 1xb8
 212 386 l 1
 249 445 295 473 355 473 c 0x58
 437 473 490 418 490 332 c 2
 490 81 l 2
 490 39 500 27 539 24 c 1
 539 0 l 1
 304 0 l 1
 304 24 l 1
 338 28 351 44 351 81 c 2
 351 323 l 2
 351 379 334 406 299 406 c 0
 276 406 252 394 230 371 c 0
 220 362 213 352 213 348 c 2
 213 81 l 2
 213 44 225 29 262 24 c 1
 262 0 l 1
 21 0 l 1
 21 24 l 1
 66 33 74 42 74 84 c 2
 74 378 l 2
 74 420 65 430 21 437 c 1
 21 461 l 1
 212 461 l 1xb8
EndSplineSet
EndChar
StartChar: o
Encoding: 111 111 79
Width: 500
Flags: W
Validated: 1
HStem: -14 31<201.129 299.437> 442 31<199.361 299.778>
VStem: 25 147<111.978 343.931> 329 147<111.276 347.046>
Fore
251 473 m 0
 380 473 476 369 476 229 c 0
 476 90 380 -14 251 -14 c 0
 120 -14 25 89 25 232 c 0
 25 368 124 473 251 473 c 0
252 442 m 0
 190 442 172 390 172 214 c 0
 172 68 192 17 251 17 c 0
 309 17 329 69 329 223 c 0
 329 387 310 442 252 442 c 0
EndSplineSet
EndChar
StartChar: p
Encoding: 112 112 80
Width: 556
Flags: W
Validated: 1
HStem: -205 21<226.983 292> -13 55<253.604 342.674> 416 57<254.881 345.038>
VStem: 19 505<-205 239 -480 -224.817> 75 139<-169.915 47 103 358.183 392 430.243> 376 148<107.65 365.655>
Fore
212 461 m 1xe8
 212 392 l 1
 243 450 279 473 338 473 c 0
 449 473 524 378 524 239 c 0xf0
 524 91 444 -13 332 -13 c 0
 288 -13 262 0 214 47 c 1
 214 -94 l 2xe8
 214 -161 231 -181 292 -184 c 1
 292 -205 l 1
 19 -205 l 1
 19 -181 l 1xf0
 67 -173 75 -164 75 -123 c 2
 75 378 l 2
 75 420 65 430 21 437 c 1
 21 461 l 1
 212 461 l 1xe8
214 346 m 2xec
 214 103 l 1
 229 65 258 42 291 42 c 0
 348 42 376 101 376 225 c 0
 376 356 352 416 300 416 c 0
 278 416 255 404 235 382 c 0
 223 369 214 353 214 346 c 2xec
EndSplineSet
EndChar
StartChar: q
Encoding: 113 113 81
Width: 556
Flags: W
Validated: 1
HStem: -14 54<164.084 305.331> 441 32<220.773 326.06>
VStem: 34 146<93.2343 343.651> 342 139<-167.178 42 55.125 414.906>
Fore
342 -97 m 2
 342 42 l 1
 301 2 266 -14 219 -14 c 0
 110 -14 34 82 34 219 c 0
 34 368 126 473 256 473 c 0
 306 473 337 459 388 416 c 1
 466 472 l 1
 481 472 l 1
 481 -123 l 2
 481 -163 490 -172 536 -181 c 1
 536 -205 l 1
 269 -205 l 1
 269 -180 l 1
 334 -168 342 -159 342 -97 c 2
342 98 m 1
 342 361 l 2
 342 409 315 441 275 441 c 0
 212 441 180 371 180 236 c 0
 180 105 211 40 273 40 c 0
 307 40 332 61 342 98 c 1
EndSplineSet
EndChar
StartChar: r
Encoding: 114 114 82
Width: 444
Flags: W
Validated: 1
HStem: 0 473<295 353 59 338.677> 0 24<229.699 295> 387 86<278.348 355.243> 437 24<29 77.7634>
VStem: 29 405<0 395 -294 -14.3233> 83 139<35.1916 84 84 363.677 379 430.362>
Fore
218 461 m 1x58
 218 379 l 1
 265 446 303 473 353 473 c 0
 400 473 434 440 434 395 c 0x88
 434 356 408 328 371 328 c 0
 345 328 330 337 311 364 c 0
 300 380 291 387 283 387 c 0
 250 387 222 344 222 292 c 2
 222 103 l 2
 222 41 234 28 295 24 c 1x64
 295 0 l 1x84
 29 0 l 1
 29 24 l 1x48
 73 32 83 43 83 84 c 2
 83 378 l 2x44
 83 418 72 431 29 437 c 1
 29 461 l 1
 218 461 l 1x58
EndSplineSet
EndChar
StartChar: s
Encoding: 115 115 83
Width: 389
Flags: W
Validated: 1
HStem: -14 487<179 206 184 207 184 184> -14 34<139.816 251.712> 440 33<138.258 221.193>
VStem: 25 336<48 152 -13 138 -13 -13> 27 100<297.242 410.092> 265 96<49.4744 170.436>
Fore
340 326 m 1x8c
 315 326 l 1
 300 370 289 388 268 408 c 0
 246 429 219 440 193 440 c 0
 155 440 127 415 127 382 c 0x2c
 127 348 155 323 223 294 c 0
 322 252 361 209 361 138 c 0
 361 48 298 -14 207 -14 c 0x90
 179 -14 126 -3 99 9 c 0
 89 13 81 15 76 15 c 0
 67 15 61 8 50 -13 c 1
 25 -13 l 1
 25 152 l 1
 53 152 l 1
 74 65 120 20 190 20 c 0x50
 235 20 265 46 265 85 c 0
 265 117 237 142 169 172 c 0
 68 215 27 261 27 327 c 0
 27 411 93 473 184 473 c 0
 206 473 229 469 262 458 c 0
 278 453 288 451 294 451 c 0
 306 451 312 456 318 471 c 1
 340 471 l 1
 340 326 l 1x8c
EndSplineSet
EndChar
StartChar: t
Encoding: 116 116 84
Width: 333
Flags: W
Validated: 1
HStem: -12 71<164.703 268.124> 417 44<211 305> 610 20G<155.5 211>
VStem: 20 312<100 417 417 417> 72 139<61.7761 417>
Fore
305 461 m 1xe8
 305 417 l 1
 211 417 l 1
 211 116 l 2xe8
 211 76 222 59 250 59 c 0
 271 59 287 73 307 111 c 1
 332 100 l 1xf0
 291 18 251 -12 184 -12 c 0
 115 -12 72 28 72 93 c 2
 72 417 l 1xe8
 20 417 l 1
 20 444 l 1xf0
 85 499 125 544 186 630 c 1
 211 630 l 1
 211 461 l 1
 305 461 l 1xe8
EndSplineSet
EndChar
StartChar: u
Encoding: 117 117 85
Width: 556
Flags: W
Validated: 1
HStem: -14 65<162.954 290.228> -14 475<114.322 202.826> 20 23<499.8 537> 437 24<280 337.206>
VStem: 65 139<57.5622 430.798> 342 139<95 429.666>
Fore
343 -13 m 1x3c
 343 52 l 1
 285 2 250 -14 198 -14 c 0
 115 -14 65 38 65 126 c 2
 65 378 l 2
 65 420 57 429 16 437 c 1
 16 461 l 1
 204 461 l 1
 204 122 l 2
 204 71 219 51 260 51 c 0x9c
 288 51 309 62 342 95 c 1
 342 378 l 2
 342 421 330 433 280 437 c 1
 280 461 l 1
 481 461 l 1
 481 101 l 2
 481 58 493 45 537 43 c 1
 537 20 l 1
 475 13 l 2
 410 6 386 2 343 -13 c 1x3c
EndSplineSet
EndChar
StartChar: v
Encoding: 118 118 86
Width: 500
Flags: W
Validated: 33
HStem: -14 21G<232.892 275.081> 437 24<21 55.7187 218.007 261.862 261.862 271 334 388.544 441.177 485 21 485 21 21>
Fore
485 461 m 1
 485 437 l 1
 454 434 446 426 427 382 c 2
 267 -14 l 1
 241 -14 l 1
 121 282 l 2
 105 323 58 423 56 422 c 1
 50 431 44 434 21 437 c 1
 21 461 l 1
 271 461 l 1
 271 437 l 1
 263 436 255 435 253 435 c 0
 228 433 218 426 218 411 c 0
 218 405 220 399 227 380 c 2
 306 177 l 1
 378 359 l 2
 385 377 389 393 389 404 c 0
 389 428 377 435 334 437 c 1
 334 461 l 1
 485 461 l 1
EndSplineSet
EndChar
StartChar: w
Encoding: 119 119 87
Width: 722
Flags: W
Validated: 1
HStem: -14 475<479 480 502 707 528 528> 437 24<294 338.752 572 619.306>
Fore
707 461 m 1x80
 707 437 l 1x40
 681 432 673 424 657 387 c 2
 502 -14 l 1
 479 -14 l 1
 377 296 l 1
 252 -14 l 1
 228 -14 l 1x80
 80 360 l 2
 53 426 49 432 23 437 c 1
 23 461 l 1
 245 461 l 1
 245 437 l 1
 217 433 207 425 207 409 c 0
 207 396 218 364 246 294 c 0
 251 280 258 261 267 240 c 2
 291 176 l 1
 359 347 l 1
 353 366 l 2
 334 432 333 433 294 437 c 1
 294 461 l 1x40
 528 461 l 1x80
 528 437 l 1
 490 434 480 429 480 413 c 0
 480 404 487 376 507 307 c 0
 528 233 531 221 541 180 c 1
 553 214 561 235 576 274 c 0
 607 353 620 390 620 402 c 0
 620 425 609 433 572 437 c 1x40
 572 461 l 1
 707 461 l 1x80
EndSplineSet
EndChar
StartChar: x
Encoding: 120 120 88
Width: 500
Flags: W
Validated: 1
HStem: 0 461<12 484 59 69.1384> 0 24<14 69.7336 133.01 183> 437 24<215.01 262 309 319.138 319.138 359.994>
VStem: 12 472<24 437 484 494.138>
Fore
484 24 m 1x70
 484 0 l 1
 243 0 l 1x90
 243 24 l 1
 274 26 288 32 288 44 c 0
 288 56 278 75 255 108 c 2
 213 171 l 1
 206 162 199 154 197 151 c 0
 159 105 133 63 133 48 c 0
 133 33 147 26 183 24 c 1x50
 183 0 l 1
 14 0 l 1x90
 14 24 l 1
 51 26 71 43 127 117 c 0
 136 131 163 164 192 201 c 1
 64 398 l 2
 44 428 38 433 12 437 c 1x70
 12 461 l 1
 262 461 l 1x90
 262 437 l 1
 229 436 215 430 215 418 c 0
 215 405 241 362 273 320 c 0
 276 316 280 310 286 303 c 1
 301 324 316 343 322 349 c 0
 350 381 360 398 360 413 c 0
 360 428 352 434 329 435 c 0
 326 435 318 436 309 437 c 1x30
 309 461 l 1
 477 461 l 1x90
 477 437 l 1
 446 432 426 421 407 398 c 2
 306 272 l 1
 454 44 l 2
 461 33 468 29 484 24 c 1x70
EndSplineSet
EndChar
StartChar: y
Encoding: 121 121 89
Width: 500
Flags: W
Validated: 1
HStem: -205 57<98.674 189.076> 437 24<16 50.7187 250 266 329 383.544 436.022 480>
VStem: 16 464<-126 461 -124.766 -73.2959> 16 119<-144.093 -99.1036 -124.766 -73.2959>
Fore
480 461 m 1xe0
 480 437 l 1
 449 434 439 424 422 382 c 2
 273 -15 l 2
 238 -109 218 -149 197 -172 c 0
 176 -193 147 -205 113 -205 c 0
 56 -205 16 -172 16 -126 c 0xe0
 16 -88 43 -62 80 -62 c 0
 114 -62 138 -82 138 -111 c 0
 138 -115 137 -120 136 -125 c 0
 135 -128 135 -130 135 -131 c 0xd0
 135 -140 143 -148 152 -148 c 0
 175 -148 201 -116 218 -66 c 2
 236 -13 l 1
 116 282 l 2
 99 324 54 422 51 422 c 1
 45 431 39 434 16 437 c 1
 16 461 l 1
 266 461 l 1
 266 437 l 1
 250 436 l 2
 225 434 213 425 213 411 c 0
 213 403 213 403 233 352 c 2
 305 167 l 1
 373 359 l 2
 382 384 384 393 384 404 c 0
 384 428 372 435 329 437 c 1
 329 461 l 1
 480 461 l 1xe0
EndSplineSet
EndChar
StartChar: z
Encoding: 122 122 90
Width: 444
Flags: W
Validated: 33
HStem: 0 461<45 404 45 45> 0 32<185 329.032> 0 160<392 404 21 420 392 392> 429 32<106.849 255>
Fore
420 160 m 1x20
 404 0 l 1x80
 21 0 l 1
 21 25 l 1
 255 429 l 1x30
 115 430 89 414 64 319 c 1
 38 319 l 1
 45 461 l 1x80
 416 461 l 1
 416 435 l 1
 185 32 l 1
 214 32 l 2x50
 294 32 327 45 359 89 c 0
 375 110 383 128 392 160 c 1
 420 160 l 1x20
EndSplineSet
EndChar
StartChar: braceleft
Encoding: 123 123 91
Width: 394
Flags: HMW
Validated: 1
HStem: -175 12<340 340> 686 12<340 340>
VStem: 129 105<-34 131 377 391 391 556 556 562>
Fore
129 -34 m 2
 129 145 l 2
 129 216 107 240 22 261 c 1
 107 282 129 306 129 377 c 2
 129 556 l 2
 129 611 145 648 179 669 c 0
 211 690 251 697 340 698 c 1
 340 686 l 1
 260 669 234 638 234 562 c 2
 234 391 l 2
 234 307 210 281 116 261 c 1
 210 241 234 215 234 131 c 2
 234 -40 l 2
 234 -116 261 -147 340 -163 c 1
 340 -175 l 1
 242 -174 198 -164 168 -138 c 0
 141 -116 129 -83 129 -34 c 2
EndSplineSet
EndChar
StartChar: bar
Encoding: 124 124 92
Width: 220
Flags: HMW
Validated: 1
HStem: -19 20 671 20<66 154 154 154>
VStem: 66 88<-19 691 -19 691>
Fore
66 -19 m 1
 66 691 l 1
 154 691 l 1
 154 -19 l 1
 66 -19 l 1
EndSplineSet
EndChar
StartChar: braceright
Encoding: 125 125 93
Width: 394
Flags: HMW
Validated: 1
HStem: -175 12<54 54> 686 12<54 54>
VStem: 160 105<-39 -33 -33 132 132 146 392 557>
Fore
160 -39 m 2
 160 132 l 2
 160 215 185 242 278 262 c 1
 184 282 160 308 160 392 c 2
 160 563 l 2
 160 638 133 670 54 686 c 1
 54 698 l 1
 144 697 183 690 215 669 c 0
 249 648 265 612 265 557 c 2
 265 378 l 2
 265 307 287 283 372 262 c 1
 287 241 265 217 265 146 c 2
 265 -33 l 2
 265 -88 249 -125 215 -146 c 0
 183 -167 143 -174 54 -175 c 1
 54 -163 l 1
 134 -146 160 -115 160 -39 c 2
EndSplineSet
EndChar
StartChar: asciitilde
Encoding: 126 126 94
Width: 520
Flags: W
Validated: 1
HStem: 175 88<336.888 419.042> 243 88<94.7251 188.266>
VStem: 29 462<247 260 247 247>
Fore
436 308 m 1xa0
 491 260 l 1
 446 197 414 175 368 175 c 0xa0
 335 175 309 183 263 208 c 0
 217 233 186 243 151 243 c 0
 122 243 105 233 82 201 c 1
 29 247 l 1
 63 306 99 331 153 331 c 0x60
 186 331 212 323 287 289 c 0
 333 269 351 263 368 263 c 0
 391 263 411 276 436 308 c 1xa0
EndSplineSet
EndChar
StartChar: uni0591
Encoding: 256 1425 95
Width: 0
Flags: HMW
Validated: 1
VStem: -92 55 -28 55 38 55
Fore
-28 -116 m 1
 -28 -60 l 2
 -28 -52 -21 -45 -12 -45 c 2
 12 -45 l 2
 21 -45 28 -52 28 -60 c 2
 28 -116 l 1
 56 -121 92 -143 92 -175 c 2
 92 -220 l 2
 92 -228 86 -235 78 -235 c 2
 52 -235 l 2
 44 -235 38 -228 38 -220 c 2
 38 -178 l 2
 38 -157 21 -140 0 -140 c 0
 -21 -140 -38 -157 -38 -178 c 2
 -38 -220 l 2
 -38 -228 -44 -235 -52 -235 c 2
 -78 -235 l 2
 -86 -235 -92 -228 -92 -220 c 2
 -92 -175 l 2
 -92 -144 -60 -120 -28 -116 c 1
EndSplineSet
EndChar
StartChar: uni0592
Encoding: 257 1426 96
Width: 0
Flags: W
Validated: 1
HStem: 665 75<-102.112 -31.8883 31.8883 102.112> 780 75<-36.0047 36.0047>
VStem: -104 74<666.701 738.293> -38 76<781.995 853.013> 30 74<666.701 738.293>
Fore
-67 665 m 0xe0
 -88 665 -104 682 -104 702 c 0
 -104 723 -88 740 -67 740 c 0
 -46 740 -30 723 -30 702 c 0
 -30 682 -46 665 -67 665 c 0xe0
0 780 m 0
 -21 780 -38 797 -38 818 c 0
 -38 838 -21 855 0 855 c 0
 21 855 38 838 38 818 c 0xd0
 38 797 21 780 0 780 c 0
67 665 m 0
 46 665 30 682 30 702 c 0
 30 723 46 740 67 740 c 0
 88 740 104 723 104 702 c 0xc8
 104 682 88 665 67 665 c 0
EndSplineSet
EndChar
StartChar: uni0593
Encoding: 258 1427 97
Width: 0
Flags: HMW
Validated: 33
HStem: 574 107
Fore
-28 674 m 2
 -63 701 l 2
 -84 717 -83 743 -60 743 c 2
 -3 743 l 1
 -63 788 l 2
 -84 804 -83 822 -60 822 c 2
 0 822 l 1
 -64 870 l 2
 -84 885 -84 900 -60 900 c 2
 13 900 l 2
 27 900 36 896 41 892 c 2
 55 881 l 2
 71 867 70 855 48 855 c 2
 7 855 l 1
 65 813 l 2
 83 799 84 783 61 783 c 2
 0 783 l 1
 65 734 l 2
 83 720 84 704 61 704 c 2
 0 704 l 1
 19 690 l 2
 35 678 37 665 14 665 c 2
 2 665 l 2
 -13 665 -18 667 -28 674 c 2
EndSplineSet
EndChar
StartChar: uni0594
Encoding: 259 1428 98
Width: 0
Flags: HMW
Validated: 1
HStem: 665 75<-10.5 10.5> 780 75<-10.5 10.5>
Fore
0 740 m 0
 21 740 38 723 38 702 c 0
 38 682 21 665 0 665 c 0
 -21 665 -38 682 -38 702 c 0
 -38 723 -21 740 0 740 c 0
0 855 m 0
 21 855 38 838 38 818 c 0
 38 797 21 780 0 780 c 0
 -21 780 -38 797 -38 818 c 0
 -38 838 -21 855 0 855 c 0
EndSplineSet
EndChar
StartChar: uni0595
Encoding: 260 1429 99
Width: 0
Flags: HMW
Validated: 1
HStem: 665 75<39.5 60.5> 780 75<39.5 60.5>
VStem: -88 55
Fore
-48 668 m 2
 -72 668 l 2
 -81 668 -88 674 -88 682 c 2
 -88 838 l 2
 -88 846 -81 852 -72 852 c 2
 -48 852 l 2
 -39 852 -32 846 -32 838 c 2
 -32 682 l 2
 -32 674 -39 668 -48 668 c 2
50 740 m 0
 71 740 88 723 88 702 c 0
 88 682 71 665 50 665 c 0
 29 665 12 682 12 702 c 0
 12 723 29 740 50 740 c 0
50 855 m 0
 71 855 88 838 88 818 c 0
 88 797 71 780 50 780 c 0
 29 780 12 797 12 818 c 0
 12 838 29 855 50 855 c 0
EndSplineSet
EndChar
StartChar: uni0596
Encoding: 261 1430 100
Width: 0
Flags: W
Validated: 1
HStem: -265 220
VStem: -68 136
Fore
-40 -57 m 0
 -24 -153 2 -184 55 -211 c 0
 63 -215 68 -225 68 -235 c 0
 68 -252 55 -265 38 -265 c 0
 32 -265 26 -263 21 -259 c 0
 -37 -217 -66 -136 -68 -59 c 0
 -68 -51 -62 -45 -54 -45 c 0
 -47 -45 -41 -50 -40 -57 c 0
EndSplineSet
EndChar
StartChar: uni0597
Encoding: 262 1431 101
Width: 0
Flags: W
Validated: 33
HStem: 676 158<-13 13 -13 -13>
VStem: -61 122<738 772 738 738>
Fore
-61 738 m 0
 -73 744 -73 766 -61 772 c 0
 -39 783 -21 805 -13 834 c 0
 -9 848 8 849 13 833 c 0
 21 805 39 782 61 772 c 0
 73 766 73 744 61 738 c 0
 39 727 21 705 13 676 c 0
 9 662 -9 661 -13 676 c 0
 -21 705 -39 727 -61 738 c 0
EndSplineSet
EndChar
StartChar: uni0598
Encoding: 263 1432 102
Width: 0
Flags: W
Validated: 1
HStem: 665 48<57.2461 112.598> 665 32<-107.694 -57.1771> 771 49<-112.598 -57.2461> 787 33<57.7546 107.694>
VStem: -145 32<701.859 770.709> 113 32<713.566 782.499>
Fore
-64 763 m 2x9c
 -69 768 -76 771 -84 771 c 0
 -100 771 -113 758 -113 742 c 0
 -113 717 -92 697 -68 697 c 0
 -59 697 -52 690 -52 681 c 0
 -52 672 -59 665 -68 665 c 0
 -110 665 -145 700 -145 742 c 0
 -145 785 -110 820 -68 820 c 0x6c
 -46 820 -27 811 -13 797 c 2
 64 721 l 2
 69 716 76 713 84 713 c 0
 100 713 113 726 113 742 c 0
 113 767 92 787 68 787 c 0
 59 787 52 795 52 803 c 0
 52 812 59 820 68 820 c 0
 110 820 145 785 145 742 c 0
 145 700 110 665 68 665 c 0
 46 665 27 674 13 688 c 2
 -64 763 l 2x9c
EndSplineSet
EndChar
StartChar: uni0599
Encoding: 264 1433 103
Width: 0
Flags: W
Validated: 1
HStem: 665 220
VStem: -68 136
Fore
40 677 m 0
 24 773 -2 804 -55 831 c 0
 -63 835 -68 845 -68 855 c 0
 -68 872 -55 885 -38 885 c 0
 -32 885 -26 883 -21 879 c 0
 37 837 66 756 68 679 c 0
 68 671 62 665 54 665 c 0
 47 665 41 670 40 677 c 0
EndSplineSet
EndChar
StartChar: uni059A
Encoding: 265 1434 104
Width: 0
Flags: W
Validated: 33
HStem: -234 179<95 101 91 95 91 91>
VStem: -99 208<-153 -72 -153 -149>
Fore
85 -56 m 2
 87 -55 89 -55 91 -55 c 0
 101 -55 109 -63 109 -72 c 0
 109 -80 104 -86 98 -89 c 2
 -12 -135 l 1
 95 -179 l 2
 105 -183 109 -189 109 -200 c 2
 109 -225 l 2
 109 -234 103 -237 95 -234 c 2
 -99 -153 l 2
 -112 -148 -112 -138 -99 -133 c 2
 85 -56 l 2
EndSplineSet
EndChar
StartChar: uni059B
Encoding: 266 1435 105
Width: 0
Flags: W
Validated: 1
HStem: -155 75<-83.0047 -11.8883>
VStem: -85 75<-153.013 -81.9953>
Fore
-47 -80 m 0
 -26 -80 -10 -97 -10 -118 c 0
 -10 -138 -26 -155 -47 -155 c 0
 -68 -155 -85 -138 -85 -118 c 0
 -85 -97 -68 -80 -47 -80 c 0
56 -57 m 0
 57 -50 63 -45 70 -45 c 0
 78 -45 85 -51 85 -59 c 0
 82 -136 54 -217 -4 -259 c 0
 -9 -263 -15 -265 -22 -265 c 0
 -38 -265 -52 -252 -52 -235 c 0
 -52 -225 -46 -215 -38 -211 c 0
 15 -184 41 -153 56 -57 c 0
EndSplineSet
EndChar
StartChar: uni059C
Encoding: 267 1436 106
Width: 0
Flags: W
Validated: 1
HStem: 665 220
VStem: -68 136
Fore
-40 677 m 0
 -41 670 -47 665 -54 665 c 0
 -62 665 -68 671 -68 679 c 0
 -66 756 -37 837 21 879 c 0
 26 883 32 885 38 885 c 0
 55 885 68 872 68 855 c 0
 68 845 63 835 55 831 c 0
 2 804 -24 773 -40 677 c 0
EndSplineSet
EndChar
StartChar: uni059D
Encoding: 268 1437 107
Width: 0
Flags: W
Validated: 1
HStem: 665 220
VStem: -68 136
Fore
-40 677 m 0
 -41 670 -47 665 -54 665 c 0
 -62 665 -68 671 -68 679 c 0
 -66 756 -37 837 21 879 c 0
 26 883 32 885 38 885 c 0
 55 885 68 872 68 855 c 0
 68 845 63 835 55 831 c 0
 2 804 -24 773 -40 677 c 0
EndSplineSet
EndChar
StartChar: uni059E
Encoding: 269 1438 108
Width: 0
Flags: W
Validated: 1
HStem: 665 220
VStem: -128 256<679 855 679 679>
Fore
20 677 m 0
 19 670 13 665 6 665 c 0
 -2 665 -8 671 -8 679 c 0
 -6 756 23 837 81 879 c 0
 86 883 92 885 98 885 c 0
 115 885 128 872 128 855 c 0
 128 845 123 835 115 831 c 0
 62 804 36 773 20 677 c 0
-100 677 m 0
 -101 670 -107 665 -114 665 c 0
 -122 665 -128 671 -128 679 c 0
 -126 756 -97 837 -39 879 c 0
 -34 883 -28 885 -22 885 c 0
 -5 885 8 872 8 855 c 0
 8 845 3 835 -5 831 c 0
 -58 804 -84 773 -100 677 c 0
EndSplineSet
EndChar
StartChar: uni059F
Encoding: 270 1439 109
Width: 0
Flags: W
Validated: 33
HStem: 667 214<67 100 100 100>
VStem: -209 418<830 830 830 830>
Fore
111 841 m 0
 86 831 72 803 82 778 c 0
 91 753 119 740 144 749 c 0
 169 758 182 786 173 811 c 0
 164 837 136 850 111 841 c 0
60 737 m 2
 64 744 63 748 57 757 c 0
 30 802 50 862 100 881 c 0
 144 897 193 874 209 830 c 0
 225 786 202 737 158 721 c 0
 142 715 125 715 110 719 c 0
 102 720 98 718 96 713 c 2
 83 674 l 2
 80 666 75 664 67 667 c 2
 38 677 l 2
 30 680 29 686 33 693 c 2
 60 737 l 2
-111 841 m 0
 -136 850 -164 837 -173 811 c 0
 -182 786 -169 758 -144 749 c 0
 -119 740 -91 753 -82 778 c 0
 -72 803 -86 831 -111 841 c 0
-60 737 m 2
 -33 693 l 2
 -29 686 -30 680 -38 677 c 2
 -67 667 l 2
 -75 664 -80 666 -83 674 c 2
 -96 713 l 2
 -98 718 -102 720 -110 719 c 0
 -125 715 -142 715 -158 721 c 0
 -202 737 -225 786 -209 830 c 0
 -193 874 -144 897 -100 881 c 0
 -50 862 -30 802 -57 757 c 0
 -63 748 -64 744 -60 737 c 2
EndSplineSet
EndChar
StartChar: uni05A0
Encoding: 271 1440 110
Width: 0
Flags: W
Validated: 33
HStem: 667 214<-56 -22 -22 -22>
VStem: -89 176<693 830 693 693>
Fore
-12 841 m 0
 -37 831 -50 803 -41 778 c 0
 -32 753 -4 740 22 749 c 0
 47 758 60 786 51 811 c 0
 42 837 14 850 -12 841 c 0
-63 737 m 2
 -59 744 -60 748 -65 757 c 0
 -93 802 -72 862 -22 881 c 0
 22 897 71 874 87 830 c 0
 103 786 80 737 36 721 c 0
 20 715 3 715 -13 719 c 0
 -20 720 -24 718 -26 713 c 2
 -39 674 l 2
 -42 666 -47 664 -56 667 c 2
 -84 677 l 2
 -92 680 -94 686 -89 693 c 2
 -63 737 l 2
EndSplineSet
EndChar
StartChar: uni05A1
Encoding: 272 1441 111
Width: 0
Flags: HMW
Validated: 1
HStem: 655 75 770 75
VStem: -89 55<682 730 755 838>
Fore
-34 755 m 1
 -15 755 l 2
 21 755 34 770 34 802 c 2
 34 838 l 2
 34 846 40 852 49 852 c 2
 74 852 l 2
 82 852 89 846 89 838 c 2
 89 791 l 2
 89 749 69 730 25 730 c 2
 -34 730 l 1
 -34 682 l 2
 -34 674 -40 668 -49 668 c 2
 -74 668 l 2
 -82 668 -89 674 -89 682 c 2
 -89 838 l 2
 -89 846 -82 852 -74 852 c 2
 -49 852 l 2
 -40 852 -34 846 -34 838 c 2
 -34 755 l 1
EndSplineSet
EndChar
StartChar: uni05A3
Encoding: 273 1443 112
Width: 0
Flags: HMW
Validated: 1
HStem: -110 55
Fore
80 -165 m 1
 80 -60 l 2
 80 -52 87 -45 95 -45 c 2
 100 -45 l 2
 108 -45 115 -52 115 -60 c 2
 115 -205 l 2
 115 -213 108 -220 100 -220 c 2
 -100 -220 l 2
 -108 -220 -115 -213 -115 -205 c 2
 -115 -180 l 2
 -115 -172 -108 -165 -100 -165 c 2
 80 -165 l 1
EndSplineSet
EndChar
StartChar: uni05A4
Encoding: 274 1444 113
Width: 0
Flags: W
Validated: 33
HStem: -234 179<95 101 91 95 91 91>
VStem: -99 208<-153 -72 -153 -149>
Fore
85 -56 m 2
 87 -55 89 -55 91 -55 c 0
 101 -55 109 -63 109 -72 c 0
 109 -80 104 -86 98 -89 c 2
 -12 -135 l 1
 95 -179 l 2
 105 -183 109 -189 109 -200 c 2
 109 -225 l 2
 109 -234 103 -237 95 -234 c 2
 -99 -153 l 2
 -112 -148 -112 -138 -99 -133 c 2
 85 -56 l 2
EndSplineSet
EndChar
StartChar: uni05A5
Encoding: 275 1445 114
Width: 0
Flags: W
Validated: 1
HStem: -265 220
VStem: -68 136
Fore
40 -57 m 0
 41 -50 47 -45 54 -45 c 0
 62 -45 68 -51 68 -59 c 0
 66 -136 37 -217 -21 -259 c 0
 -26 -263 -32 -265 -38 -265 c 0
 -55 -265 -68 -252 -68 -235 c 0
 -68 -225 -63 -215 -55 -211 c 0
 -2 -184 24 -153 40 -57 c 0
EndSplineSet
EndChar
StartChar: uni05A6
Encoding: 276 1446 115
Width: 0
Flags: W
Validated: 1
HStem: -265 220
VStem: -128 256<-235 -59 -235 -235>
Fore
-20 -57 m 0
 -19 -50 -13 -45 -6 -45 c 0
 2 -45 8 -51 8 -59 c 0
 6 -136 -23 -217 -81 -259 c 0
 -86 -263 -92 -265 -98 -265 c 0
 -115 -265 -128 -252 -128 -235 c 0
 -128 -225 -123 -215 -115 -211 c 0
 -62 -184 -36 -153 -20 -57 c 0
100 -57 m 0
 101 -50 107 -45 114 -45 c 0
 122 -45 128 -51 128 -59 c 0
 126 -136 97 -217 39 -259 c 0
 34 -263 28 -265 22 -265 c 0
 5 -265 -8 -252 -8 -235 c 0
 -8 -225 -3 -215 5 -211 c 0
 58 -184 84 -153 100 -57 c 0
EndSplineSet
EndChar
StartChar: uni05A7
Encoding: 277 1447 116
Width: 0
Flags: HMW
Validated: 1
HStem: -95 60
Fore
63 -199 m 2
 73 -210 78 -215 78 -232 c 2
 78 -247 l 2
 78 -256 72 -264 65 -264 c 2
 -65 -264 l 2
 -72 -264 -78 -256 -78 -247 c 2
 -78 -230 l 2
 -78 -221 -72 -214 -65 -214 c 2
 32 -214 l 1
 -61 -121 l 2
 -73 -109 -78 -103 -78 -87 c 2
 -78 -72 l 2
 -78 -62 -72 -55 -65 -55 c 2
 65 -55 l 2
 72 -55 78 -62 78 -72 c 2
 78 -88 l 2
 78 -98 72 -105 65 -105 c 2
 -31 -105 l 1
 63 -199 l 2
EndSplineSet
EndChar
StartChar: uni05A8
Encoding: 278 1448 117
Width: 0
Flags: W
Validated: 1
HStem: 665 220
VStem: -68 136
Fore
40 677 m 0
 24 773 -2 804 -55 831 c 0
 -63 835 -68 845 -68 855 c 0
 -68 872 -55 885 -38 885 c 0
 -32 885 -26 883 -21 879 c 0
 37 837 66 756 68 679 c 0
 68 671 62 665 54 665 c 0
 47 665 41 670 40 677 c 0
EndSplineSet
EndChar
StartChar: uni05A9
Encoding: 279 1449 118
Width: 0
Flags: W
Validated: 33
HStem: 667 214<22 56 22 22>
VStem: -87 176<693 830 830 830>
Fore
12 841 m 0
 -14 850 -42 837 -51 811 c 0
 -60 786 -47 758 -22 749 c 0
 4 740 32 753 41 778 c 0
 50 803 37 831 12 841 c 0
63 737 m 2
 89 693 l 2
 94 686 92 680 84 677 c 2
 56 667 l 2
 47 664 42 666 39 674 c 2
 26 713 l 2
 24 718 20 720 13 719 c 0
 -3 715 -20 715 -36 721 c 0
 -80 737 -103 786 -87 830 c 0
 -71 874 -22 897 22 881 c 0
 72 862 93 802 65 757 c 0
 60 748 59 744 63 737 c 2
EndSplineSet
EndChar
StartChar: uni05AA
Encoding: 280 1450 119
Width: 0
Flags: HMW
Validated: 1
VStem: -92 55 -28 55 38 55
Fore
-28 -164 m 1
 -60 -160 -92 -136 -92 -105 c 2
 -92 -60 l 2
 -92 -52 -86 -45 -78 -45 c 2
 -52 -45 l 2
 -44 -45 -38 -52 -38 -60 c 2
 -38 -102 l 2
 -38 -123 -21 -140 0 -140 c 0
 21 -140 38 -123 38 -102 c 2
 38 -60 l 2
 38 -52 44 -45 52 -45 c 2
 78 -45 l 2
 86 -45 92 -52 92 -60 c 2
 92 -105 l 2
 92 -137 56 -159 28 -164 c 1
 28 -220 l 2
 28 -228 21 -235 12 -235 c 2
 -12 -235 l 2
 -21 -235 -28 -228 -28 -220 c 2
 -28 -164 l 1
EndSplineSet
EndChar
StartChar: uni05AB
Encoding: 281 1451 120
Width: 0
Flags: W
Validated: 33
HStem: 665 179<95 101 91 95 91 91>
VStem: -99 208<746 826 746 750>
Fore
85 843 m 1
 87 843 89 844 91 844 c 0
 101 844 109 836 109 826 c 0
 109 819 104 813 98 810 c 2
 -12 764 l 1
 95 720 l 2
 105 716 109 710 109 699 c 2
 109 674 l 2
 109 665 103 662 95 665 c 2
 -99 746 l 2
 -112 751 -112 761 -99 766 c 2
 85 843 l 1
EndSplineSet
EndChar
StartChar: uni05AC
Encoding: 282 1452 121
Width: 0
Flags: HMW
Validated: 1
HStem: 775 55
Fore
80 720 m 1
 80 825 l 2
 80 833 87 840 95 840 c 2
 100 840 l 2
 108 840 115 833 115 825 c 2
 115 680 l 2
 115 672 108 665 100 665 c 2
 -100 665 l 2
 -108 665 -115 672 -115 680 c 2
 -115 705 l 2
 -115 713 -108 720 -100 720 c 2
 80 720 l 1
EndSplineSet
EndChar
StartChar: uni05AD
Encoding: 283 1453 122
Width: 0
Flags: W
Validated: 1
HStem: -265 220
VStem: -68 136
Fore
-40 -57 m 0
 -24 -153 2 -184 55 -211 c 0
 63 -215 68 -225 68 -235 c 0
 68 -252 55 -265 38 -265 c 0
 32 -265 26 -263 21 -259 c 0
 -37 -217 -66 -136 -68 -59 c 0
 -68 -51 -62 -45 -54 -45 c 0
 -47 -45 -41 -50 -40 -57 c 0
EndSplineSet
EndChar
StartChar: uni05AE
Encoding: 284 1454 123
Width: 0
Flags: W
Validated: 1
HStem: 665 48<57.2461 112.598> 665 32<-107.694 -57.1771> 771 49<-112.598 -57.2461> 787 33<57.7546 107.694>
VStem: -145 32<701.859 770.709> 113 32<713.566 782.499>
Fore
-64 763 m 2x9c
 -69 768 -76 771 -84 771 c 0
 -100 771 -113 758 -113 742 c 0
 -113 717 -92 697 -68 697 c 0
 -59 697 -52 690 -52 681 c 0
 -52 672 -59 665 -68 665 c 0
 -110 665 -145 700 -145 742 c 0
 -145 785 -110 820 -68 820 c 0x6c
 -46 820 -27 811 -13 797 c 2
 64 721 l 2
 69 716 76 713 84 713 c 0
 100 713 113 726 113 742 c 0
 113 767 92 787 68 787 c 0
 59 787 52 795 52 803 c 0
 52 812 59 820 68 820 c 0
 110 820 145 785 145 742 c 0
 145 700 110 665 68 665 c 0
 46 665 27 674 13 688 c 2
 -64 763 l 2x9c
EndSplineSet
EndChar
StartChar: uni05AF
Encoding: 285 1455 124
Width: 0
Flags: HMW
Validated: 1
HStem: 680 44 813 44
VStem: -89 44 44 44
Fore
0 803 m 0
 -27 803 -49 781 -49 754 c 0
 -49 727 -27 705 0 705 c 0
 27 705 49 727 49 754 c 0
 49 781 27 803 0 803 c 0
0 843 m 0
 49 843 89 803 89 754 c 0
 89 705 49 665 0 665 c 0
 -49 665 -89 705 -89 754 c 0
 -89 803 -49 843 0 843 c 0
EndSplineSet
EndChar
StartChar: afii57799
Encoding: 286 1456 125
Width: 0
Flags: W
Validated: 1
HStem: -235 75<-36.0047 36.0047> -120 75<-36.0047 36.0047>
VStem: -38 76<-233.013 -161.995 -118.005 -46.9869>
Fore
0 -160 m 0
 21 -160 38 -177 38 -198 c 0
 38 -218 21 -235 0 -235 c 0
 -21 -235 -38 -218 -38 -198 c 0
 -38 -177 -21 -160 0 -160 c 0
0 -45 m 0
 21 -45 38 -62 38 -82 c 0
 38 -103 21 -120 0 -120 c 0
 -21 -120 -38 -103 -38 -82 c 0
 -38 -62 -21 -45 0 -45 c 0
EndSplineSet
EndChar
StartChar: afii57801
Encoding: 287 1457 126
Width: 0
Flags: W
Validated: 1
HStem: -235 75<-100.112 -29.8883 95.9953 168.005> -120 75<-168.005 -95.9953 -34.0047 38.0047 95.9953 168.005>
VStem: -170 76<-118.005 -46.9869> -102 74<-233.299 -161.707> -36 76<-118.005 -46.9869> 94 76<-233.013 -161.995 -118.005 -46.9869>
Fore
-132 -45 m 0xe4
 -111 -45 -94 -62 -94 -82 c 0
 -94 -103 -111 -120 -132 -120 c 0
 -153 -120 -170 -103 -170 -82 c 0
 -170 -62 -153 -45 -132 -45 c 0xe4
-65 -160 m 0
 -44 -160 -28 -177 -28 -198 c 0
 -28 -218 -44 -235 -65 -235 c 0
 -86 -235 -102 -218 -102 -198 c 0xd4
 -102 -177 -86 -160 -65 -160 c 0
2 -45 m 0
 23 -45 40 -62 40 -82 c 0
 40 -103 23 -120 2 -120 c 0
 -19 -120 -36 -103 -36 -82 c 0xcc
 -36 -62 -19 -45 2 -45 c 0
132 -160 m 0
 153 -160 170 -177 170 -198 c 0
 170 -218 153 -235 132 -235 c 0
 111 -235 94 -218 94 -198 c 0
 94 -177 111 -160 132 -160 c 0
132 -45 m 0
 153 -45 170 -62 170 -82 c 0
 170 -103 153 -120 132 -120 c 0
 111 -120 94 -103 94 -82 c 0
 94 -62 111 -45 132 -45 c 0
EndSplineSet
EndChar
StartChar: afii57800
Encoding: 288 1458 127
Width: 0
Flags: HMW
Validated: 1
HStem: -235 75<120.5 141.5> -110 55<-159.5 23 -155 23>
VStem: 94 75
Fore
-170 -70 m 2
 -170 -62 -164 -55 -155 -55 c 2
 23 -55 l 2
 32 -55 38 -62 38 -70 c 2
 38 -95 l 2
 38 -103 32 -110 23 -110 c 2
 -155 -110 l 2
 -164 -110 -170 -103 -170 -95 c 2
 -170 -70 l 2
131 -160 m 0
 152 -160 168 -177 168 -198 c 0
 168 -218 152 -235 131 -235 c 0
 110 -235 93 -218 93 -198 c 0
 93 -177 110 -160 131 -160 c 0
131 -45 m 0
 152 -45 168 -62 168 -82 c 0
 168 -103 152 -120 131 -120 c 0
 110 -120 93 -103 93 -82 c 0
 93 -62 110 -45 131 -45 c 0
EndSplineSet
EndChar
StartChar: afii57802
Encoding: 289 1459 128
Width: 0
Flags: HMW
Validated: 33
HStem: -235 75<120.5 141.5> -110 55<-159.5 23 -155 -122 -24 -10 -10 23>
VStem: -84 37 94 75
Fore
-122 -110 m 2
 -155 -110 l 2
 -164 -110 -170 -103 -170 -95 c 2
 -170 -70 l 2
 -170 -62 -164 -55 -155 -55 c 2
 23 -55 l 2
 32 -55 38 -62 38 -70 c 2
 38 -95 l 2
 38 -103 32 -110 23 -110 c 2
 -10 -110 l 2
 -38 -110 -48 -117 -48 -138 c 0
 -48 -147 -49 -160 -38 -173 c 0
 -32 -179 -29 -188 -29 -198 c 0
 -29 -218 -45 -235 -66 -235 c 0
 -87 -235 -104 -218 -104 -198 c 0
 -104 -188 -100 -179 -94 -172 c 0
 -83 -160 -85 -147 -85 -138 c 0
 -85 -117 -96 -110 -122 -110 c 2
131 -160 m 0
 152 -160 168 -177 168 -198 c 0
 168 -218 152 -235 131 -235 c 0
 110 -235 93 -218 93 -198 c 0
 93 -177 110 -160 131 -160 c 0
131 -45 m 0
 152 -45 168 -62 168 -82 c 0
 168 -103 152 -120 131 -120 c 0
 110 -120 93 -103 93 -82 c 0
 93 -62 110 -45 131 -45 c 0
EndSplineSet
EndChar
StartChar: afii57793
Encoding: 290 1460 129
Width: 0
Flags: W
Validated: 1
HStem: -120 75<-36.0047 36.0047>
VStem: -38 76<-118.005 -46.9869>
Fore
0 -45 m 0
 21 -45 38 -62 38 -82 c 0
 38 -103 21 -120 0 -120 c 0
 -21 -120 -38 -103 -38 -82 c 0
 -38 -62 -21 -45 0 -45 c 0
EndSplineSet
EndChar
StartChar: afii57794
Encoding: 291 1461 130
Width: 0
Flags: HMW
Validated: 1
VStem: -95 75<-92.5 -72> 20 75<-92.5 -72>
Fore
20 -82 m 0
 20 -62 37 -45 58 -45 c 0
 78 -45 95 -62 95 -82 c 0
 95 -103 78 -120 58 -120 c 0
 37 -120 20 -103 20 -82 c 0
-95 -82 m 0
 -95 -62 -78 -45 -58 -45 c 0
 -37 -45 -20 -62 -20 -82 c 0
 -20 -103 -37 -120 -58 -120 c 0
 -78 -120 -95 -103 -95 -82 c 0
EndSplineSet
EndChar
StartChar: afii57795
Encoding: 292 1462 131
Width: 0
Flags: W
Validated: 1
HStem: -235 75<-36.0047 36.0047> -120 75<-102.112 -31.8883 31.8883 102.112>
VStem: -104 74<-118.293 -46.7007> -38 76<-233.013 -161.995> 30 74<-118.293 -46.7007>
Fore
-67 -45 m 0xe0
 -46 -45 -30 -62 -30 -82 c 0
 -30 -103 -46 -120 -67 -120 c 0
 -88 -120 -104 -103 -104 -82 c 0
 -104 -62 -88 -45 -67 -45 c 0xe0
0 -160 m 0
 21 -160 38 -177 38 -198 c 0
 38 -218 21 -235 0 -235 c 0
 -21 -235 -38 -218 -38 -198 c 0xd0
 -38 -177 -21 -160 0 -160 c 0
67 -45 m 0
 88 -45 104 -62 104 -82 c 0
 104 -103 88 -120 67 -120 c 0
 46 -120 30 -103 30 -82 c 0xc8
 30 -62 46 -45 67 -45 c 0
EndSplineSet
EndChar
StartChar: afii57798
Encoding: 293 1463 132
Width: 0
Flags: W
Validated: 1
HStem: -110 55<-109.973 109.973 -100 100 -100 -100>
VStem: -115 230<-104.973 -60.0272>
Fore
-115 -70 m 2
 -115 -62 -108 -55 -100 -55 c 2
 100 -55 l 2
 108 -55 115 -62 115 -70 c 2
 115 -95 l 2
 115 -103 108 -110 100 -110 c 2
 -100 -110 l 2
 -108 -110 -115 -103 -115 -95 c 2
 -115 -70 l 2
EndSplineSet
EndChar
StartChar: afii57797
Encoding: 294 1464 133
Width: 0
Flags: W
Validated: 33
HStem: -235.31 180<-17.4157 17.195> -110.31 55<-110.083 -18.1456 17.9192 109.862>
VStem: -38.1104 76<-233.323 -181.22> -18.1104 36<-163.772 -110.965>
Fore
28 -173 m 1x50
 27.8896 -173.31 l 1
 33.8896 -179.31 37.8896 -188.31 37.8896 -198.31 c 0
 37.8896 -218.31 20.8896 -235.31 -0.110352 -235.31 c 0
 -21.1104 -235.31 -38.1104 -218.31 -38.1104 -198.31 c 0xa0
 -38.1104 -188.31 -34.1104 -179.31 -28.1104 -172.31 c 0
 -17.1104 -160.31 -18.1104 -147.31 -18.1104 -138.31 c 0
 -18.1104 -117.31 -30.1104 -110.31 -56.1104 -110.31 c 2
 -100.11 -110.31 l 2
 -108.11 -110.31 -115.11 -103.31 -115.11 -95.3096 c 2
 -115.11 -70.3096 l 2
 -115.11 -62.3096 -108.11 -55.3096 -100.11 -55.3096 c 2
 99.8896 -55.3096 l 2
 107.89 -55.3096 114.89 -62.3096 114.89 -70.3096 c 2
 114.89 -95.3096 l 2
 114.89 -103.31 107.89 -110.31 99.8896 -110.31 c 2
 55.8896 -110.31 l 2
 27.8896 -110.31 17.8896 -117.31 17.8896 -138.31 c 0
 17.8896 -147.31 16.8896 -160.31 28 -173 c 1x50
EndSplineSet
EndChar
StartChar: afii57806
Encoding: 295 1465 134
Width: 0
Flags: W
Validated: 1
HStem: 645 75<-36.0047 36.0047>
VStem: -38 76<646.987 718.005>
Fore
0 720 m 0
 21 720 38 703 38 682 c 0
 38 662 21 645 0 645 c 0
 -21 645 -38 662 -38 682 c 0
 -38 703 -21 720 0 720 c 0
EndSplineSet
EndChar
StartChar: afii57796
Encoding: 296 1467 135
Width: 0
Flags: W
Validated: 1
HStem: -235 75<69.8883 140.112> -178 76<-36.0047 36.0047> -120 75<-140.112 -69.8883>
VStem: -142 74<-118.293 -46.7007> -38 76<-176.005 -103.995> 68 74<-233.299 -161.707>
CounterMasks: 1 1c
Fore
105 -160 m 0x9c
 126 -160 142 -177 142 -198 c 0
 142 -218 126 -235 105 -235 c 0
 84 -235 68 -218 68 -198 c 0
 68 -177 84 -160 105 -160 c 0x9c
-38 -140 m 0
 -38 -119 -21 -102 0 -102 c 0
 21 -102 38 -119 38 -140 c 0
 38 -161 21 -178 0 -178 c 0x5c
 -21 -178 -38 -161 -38 -140 c 0
-142 -82 m 0
 -142 -62 -126 -45 -105 -45 c 0
 -84 -45 -68 -62 -68 -82 c 0
 -68 -103 -84 -120 -105 -120 c 0x3c
 -126 -120 -142 -103 -142 -82 c 0
EndSplineSet
EndChar
StartChar: afii57807
Encoding: 297 1468 136
Width: 0
Flags: W
Validated: 33
HStem: 262.5 75.5<-36.0047 0 0 36.0047>
VStem: -38 76<264.495 336.196>
Fore
0 338 m 1
 0 338.5 l 1
 21 338.5 38 321.5 38 300.5 c 0
 38 279.5 21 262.5 0 262.5 c 0
 -21 262.5 -38 279.5 -38 300.5 c 0
 -38 321.5 -21 338.5 0 338 c 1
EndSplineSet
EndChar
StartChar: afii57839
Encoding: 298 1469 137
Width: 0
Flags: HMW
Validated: 1
VStem: -28 55
Fore
-12 -230 m 2
 -21 -230 -28 -223 -28 -215 c 2
 -28 -60 l 2
 -28 -52 -21 -45 -12 -45 c 2
 12 -45 l 2
 21 -45 28 -52 28 -60 c 2
 28 -215 l 2
 28 -223 21 -230 12 -230 c 2
 -12 -230 l 2
EndSplineSet
EndChar
StartChar: afii57645
Encoding: 299 1470 138
Width: 433
Flags: W
Validated: 1
HStem: 440 160<44.7803 398.993 62 369 62 62>
VStem: 36 363<440.116 599.884>
Fore
36 574 m 2
 36 594 46 600 62 600 c 2
 369 600 l 2
 390 600 399 590 399 575 c 0
 399 420 399 620 399 465 c 0
 399 450 390 440 369 440 c 2
 62 440 l 2
 46 440 36 446 36 466 c 2
 36 574 l 2
EndSplineSet
EndChar
StartChar: afii57841
Encoding: 300 1471 139
Width: 0
Flags: W
Validated: 1
HStem: 654 55<-94.9728 94.9728 -85 85 -85 -85>
VStem: -100 200<659.027 703.973>
Fore
-100 694 m 2
 -100 702 -93 709 -85 709 c 2
 85 709 l 2
 93 709 100 702 100 694 c 2
 100 669 l 2
 100 661 93 654 85 654 c 2
 -85 654 l 2
 -93 654 -100 661 -100 669 c 2
 -100 694 l 2
EndSplineSet
EndChar
StartChar: afii57842
Encoding: 301 1472 140
Width: 155
Flags: W
Validated: 1
HStem: -15 21G<61 94>
VStem: 50 55<-9.97284 654.973 0 645 1.53064e-18 1.53064e-18>
Fore
65 -15 m 2
 57 -15 50 -8 50 0 c 2
 50 645 l 2
 50 653 57 660 65 660 c 2
 90 660 l 2
 98 660 105 653 105 645 c 2
 105 0 l 2
 105 -8 98 -15 90 -15 c 2
 65 -15 l 2
EndSplineSet
EndChar
StartChar: afii57804
Encoding: 302 1473 141
Width: 0
Flags: W
Validated: 1
HStem: 630 75<607.995 680.005>
VStem: 606 76<631.995 703.013>
Fore
644 705 m 0
 665 705 682 688 682 668 c 0
 682 647 665 630 644 630 c 0
 623 630 606 647 606 668 c 0
 606 688 623 705 644 705 c 0
EndSplineSet
EndChar
StartChar: afii57803
Encoding: 303 1474 142
Width: 0
Flags: W
Validated: 5
HStem: 630 75<136.491 171.5>
VStem: 134.5 75<631.995 703.013>
Fore
172 705 m 1
 171.5 705 l 1
 192.5 705 209.5 688 209.5 668 c 0
 209.5 647 192.5 630 171.5 630 c 0
 151.5 630 134.5 647 134.5 668 c 0
 134.5 688 151.5 705 172 705 c 1
EndSplineSet
EndChar
StartChar: afii57658
Encoding: 304 1475 143
Width: 400
Flags: W
Validated: 33
HStem: 63 544<181 218 181 181>
VStem: 113 174<131 168 131 131>
Fore
113 131 m 0
 96 138 96 163 113 168 c 0
 144 181 169 206 181 237 c 0
 188 254 212 254 218 237 c 0
 231 206 256 180 287 168 c 0
 304 162 304 138 287 131 c 0
 256 119 230 94 218 63 c 0
 212 46 188 46 182 63 c 0
 170 94 144 119 113 131 c 0
113 501 m 0
 96 508 96 533 113 538 c 0
 144 551 169 576 181 607 c 0
 188 624 212 624 218 607 c 0
 231 576 256 550 287 538 c 0
 304 532 304 508 287 501 c 0
 256 489 230 464 218 433 c 0
 212 416 188 416 182 433 c 0
 170 464 144 489 113 501 c 0
EndSplineSet
EndChar
StartChar: uni05C4
Encoding: 305 1476 144
Width: 0
Flags: W
Validated: 1
HStem: 645 75<-36.0047 36.0047>
VStem: -38 76<646.987 718.005>
Fore
0 720 m 0
 21 720 38 703 38 682 c 0
 38 662 21 645 0 645 c 0
 -21 645 -38 662 -38 682 c 0
 -38 703 -21 720 0 720 c 0
EndSplineSet
EndChar
StartChar: afii57664
Encoding: 306 1488 145
Width: 593
Flags: W
Validated: 33
HStem: 0 21G<61 165.5>
VStem: 42 506<176 502 176 176>
Fore
145 628 m 0
 144 615 144 599 149 584 c 0
 171 520 203 484 257 440 c 2
 357 355 l 1
 357 355 368 348 374 359 c 2
 374 359 398 404 404 416 c 0
 409 426 406 437 398 443 c 0
 369 468 355 483 348 521 c 0
 344 545 352 580 358 592 c 0
 369 615 382 627 396 636 c 0
 428 655 426 640 441 609 c 0
 446 598 456 590 467 583 c 0
 491 568 536 545 548 502 c 0
 563 449 546 416 529 380 c 0
 522 364 506 351 499 362 c 0
 489 378 475 391 458 401 c 0
 449 406 437 404 432 394 c 2
 402 338 l 1
 402 338 397 326 406 319 c 0
 488 252 538 207 544 124 c 0
 547 82 530 35 499 10 c 0
 463 -19 462 21 459 50 c 0
 454 102 345 185 259 257 c 0
 225 286 183 324 163 340 c 1
 163 340 153 346 146 338 c 0
 137 328 118 307 120 282 c 0
 126 232 190 203 229 148 c 0
 246 124 257 59 218 24 c 0
 198 6 179 0 152 0 c 2
 63 0 l 2
 59 0 42 -1 56 15 c 0
 60 20 64 28 68 34 c 0
 74 44 74 57 66 69 c 0
 53 89 37 118 42 176 c 0
 49 257 63 288 124 358 c 1
 124 358 129 368 122 377 c 0
 89 415 62 440 56 474 c 0
 48 518 51 551 70 589 c 0
 77 604 97 627 113 637 c 0
 132 648 146 646 145 628 c 0
EndSplineSet
EndChar
StartChar: afii57665
Encoding: 307 1489 146
Width: 498
Flags: W
Validated: 33
HStem: 0 160<84.6846 416.094>
VStem: 419 27<160.01 265.209>
Fore
477 160 m 2
 493 160 499 151 493 138 c 2
 445 21 l 2
 440 7 430 0 414 0 c 2
 40 0 l 2
 24 0 18 9 23 22 c 2
 71 139 l 2
 77 153 86 160 102 160 c 2
 403 160 l 2
 412 160 419 161 419 176 c 0
 421 241 410 362 369 396 c 0
 290 462 184 429 122 446 c 0
 65 462 58 496 53 518 c 0
 44 559 52 597 67 628 c 0
 78 650 89 649 98 631 c 0
 115 596 150 602 188 600 c 0
 239 597 336 601 388 538 c 0
 447 467 451 323 446 174 c 1
 446 174 447 160 461 160 c 2
 477 160 l 2
EndSplineSet
EndChar
StartChar: afii57666
Encoding: 308 1490 147
Width: 339
Flags: W
Validated: 33
HStem: 0 21G<20 164>
VStem: 11 303<22 163 -9 95.2706> 228 34<269.75 396.37>
Fore
187 21 m 2xc0
 181 7 172 0 156 0 c 2
 28 0 l 2
 12 0 6 9 11 22 c 2xc0
 59 139 l 2
 65 153 74 160 90 160 c 2
 196 160 l 2
 217 160 228 172 228 194 c 0
 228 280 229 322 236 400 c 1
 236 400 238 422 215 425 c 0
 176 431 140 436 113 461 c 0
 102 472 91 488 86 505 c 0
 80 523 80 543 80 558 c 0
 82 581 90 607 97 618 c 0
 118 650 129 653 148 624 c 0
 160 604 188 598 201 594 c 0
 242 584 268 558 274 526 c 0
 280 493 260 454 262 408 c 0xa0
 266 321 309 208 314 163 c 0
 320 110 318 80 297 26 c 0
 278 -23 262 7 258 28 c 0
 253 58 246 100 240 120 c 0
 236 134 229 128 224 116 c 2
 187 21 l 2xc0
EndSplineSet
EndChar
StartChar: afii57667
Encoding: 309 1491 148
Width: 523
Flags: W
Validated: 33
HStem: 440 160<114.214 389.045>
VStem: 34 451<464.401 514 514 572.125> 385 76<79.534 225.5 225.5 342.981>
Fore
173 600 m 2xc0
 417 600 l 2
 477 600 484 563 485 523 c 0xc0
 487 486 481 448 436 441 c 0
 422 439 423 426 423 426 c 1
 430 377 455 210 461 155 c 0
 464 133 465 77 437 20 c 0
 420 -17 384 -10 385 25 c 2xa0
 392 426 l 2
 391 440 384 440 376 440 c 2
 108 440 l 2
 63 440 38 492 34 514 c 0
 27 548 36 597 52 628 c 0
 62 650 74 649 82 631 c 0
 100 596 135 600 173 600 c 2xc0
EndSplineSet
EndChar
StartChar: afii57668
Encoding: 310 1492 149
Width: 561
Flags: W
Validated: 33
HStem: 440 160<122.934 424.262>
VStem: 42.5 478<464.401 514 514 572.125> 432.5 76<79.534 225.5 225.5 297.88>
Fore
182 600 m 2xc0
 452.5 600 l 2
 512.5 600 519.5 563 520.5 523 c 0xc0
 521.5 486 515.5 448 470.5 441 c 0
 457.5 439 458.5 426 458.5 426 c 1
 465.5 377 502.5 210 508.5 155 c 0
 511.5 133 512.5 77 484.5 20 c 0
 467.5 -17 431.5 -10 432.5 25 c 2xa0
 426.5 426 l 2
 426.5 440 419.5 440 411.5 440 c 2
 117.5 440 l 2
 71.5 440 46.5 492 42.5 514 c 0
 35.5 548 45.5 597 60.5 628 c 0
 71.5 650 82.5 649 91.5 631 c 0
 108.5 596 143.5 600 182 600 c 2xc0
47.5 27 m 0
 55.5 113 49.5 174 58.5 239 c 0
 63.5 274 79.5 304 98.5 325 c 0
 125.5 355 139.5 329 134.5 309 c 0
 128.5 285 131.5 259 133.5 229 c 0
 135.5 162 133.5 102 95.5 26 c 0
 73.5 -18 44.5 -14 47.5 27 c 0
EndSplineSet
EndChar
StartChar: afii57669
Encoding: 311 1493 150
Width: 266
Flags: W
Validated: 33
VStem: 155 65<79.534 155 155 347.775>
Fore
221 523 m 0
 228 485 220 448 196 418 c 0
 192 412 185 401 187 390 c 0
 198 322 214 210 220 155 c 0
 223 133 224 77 196 20 c 0
 179 -17 143 -10 144 25 c 2
 144 25 153 268 155 392 c 0
 156 406 147 419 134 423 c 0
 118 427 91 435 75 446 c 0
 58 458 44 476 38 496 c 0
 32 515 31 543 32 558 c 0
 33 581 41 607 48 618 c 0
 68 650 80 653 98 624 c 0
 111 604 138 598 152 594 c 0
 193 584 215 554 221 523 c 0
EndSplineSet
EndChar
StartChar: afii57670
Encoding: 312 1494 151
Width: 291
Flags: W
Validated: 33
HStem: 26 597<104 163 104 104>
VStem: 31 225<508.397 537.562>
Fore
99 292 m 0
 106 343 116 365 126 406 c 0
 131 424 125 436 113 439 c 0
 94 444 77 452 64 463 c 0
 51 473 42 488 36 505 c 0
 31 523 30 543 31 558 c 0
 32 581 41 607 48 618 c 0
 68 650 77 654 104 623 c 0
 114 610 145 602 162 600 c 0
 203 595 228 578 244 555 c 0
 257 536 261 498 256 465 c 0
 250 424 239 418 228 423 c 0
 216 428 202 432 184 430 c 0
 169 430 161 418 158 400 c 0
 150 341 166 320 178 270 c 0
 190 222 195 191 185 118 c 0
 180 82 174 59 163 26 c 0
 150 -12 124 -27 124 34 c 0
 124 72 120 106 115 136 c 0
 104 196 91 231 99 292 c 0
EndSplineSet
EndChar
StartChar: afii57671
Encoding: 313 1495 152
Width: 559
Flags: W
Validated: 33
HStem: 440 160<158 422.762>
VStem: 55 78<100.154 161.369 161.369 244.416 244.416 379.971> 431 76<79.534 225.5 225.5 297.88>
Fore
158 440 m 1
 143 427 132 402 129 383 c 0
 120 330 132 243 133 220 c 0
 136 153 141 102 103 26 c 0
 81 -18 52 -14 55 27 c 0
 63 113 54 193 58 259 c 0
 61 306 65 371 113 440 c 1
 47 451 45 492 41 514 c 0
 34 548 44 597 59 628 c 0
 70 650 81 649 90 631 c 0
 107 596 142 600 180 600 c 2
 451 600 l 2
 511 600 518 563 519 523 c 0
 520 486 514 448 469 441 c 0
 456 439 457 426 457 426 c 1
 464 377 501 210 507 155 c 0
 510 133 511 77 483 20 c 0
 466 -17 430 -10 431 25 c 2
 425 426 l 2
 425 440 418 440 410 440 c 2
 158 440 l 1
EndSplineSet
EndChar
StartChar: afii57672
Encoding: 314 1496 153
Width: 576
Flags: W
Validated: 33
HStem: 0 160<135.003 520.847>
VStem: 33 511<383 408 554 558 383 558 558 558> 73 49<241.264 377.934> 256 30<271.618 406.318>
Fore
102 440 m 0xa0
 85 445 79 448 66 461 c 0
 54 472 44 488 38 505 c 0
 33 523 32 543 33 558 c 0xc0
 34 581 43 607 50 618 c 0
 70 650 81 653 100 624 c 0
 112 604 140 598 154 594 c 0
 181 587 203 573 215 554 c 0
 229 535 233 498 228 465 c 0
 222 424 206 407 195 412 c 0
 183 416 180 420 164 421 c 0
 154 422 147 415 144 408 c 0
 128 374 122 346 122 310 c 0
 123 262 126 233 135 180 c 1
 135 180 139 160 160 160 c 2
 498 160 l 1
 498 160 518 161 521 181 c 0
 530 263 521 328 476 382 c 0
 444 420 388 452 349 430 c 0
 319 413 298 354 286 284 c 0
 284 270 278 263 268 265 c 0
 260 266 254 274 256 287 c 0xb0
 267 399 291 506 323 596 c 1
 323 596 329 616 351 614 c 0
 446 605 510 529 544 383 c 0xc0
 572 263 551 124 526 24 c 1
 526 24 522 0 496 0 c 2
 106 0 l 1
 106 0 84 1 83 20 c 0
 77 117 77 157 73 250 c 0
 71 299 93 369 113 412 c 0
 118 421 119 435 102 440 c 0xa0
EndSplineSet
EndChar
StartChar: afii57673
Encoding: 315 1497 154
Width: 266
Flags: W
Validated: 33
HStem: 304 327<49 150 49 49>
VStem: 30 199<509.038 539.077 419 579 579 579>
Fore
229 419 m 0
 223 390 206 357 182 324 c 0
 173 312 161 295 150 304 c 0
 137 314 146 335 151 344 c 0
 166 371 178 390 162 415 c 0
 148 436 127 433 100 445 c 0
 76 456 53 473 38 508 c 0
 29 530 28 562 30 579 c 0
 33 604 39 619 49 631 c 0
 69 654 79 646 91 626 c 0
 104 606 118 598 145 592 c 0
 170 587 200 571 216 541 c 0
 239 500 237 458 229 419 c 0
EndSplineSet
EndChar
StartChar: afii57674
Encoding: 316 1498 155
Width: 496
Flags: W
Validated: 33
HStem: 440 160<114.214 361.762>
VStem: 34 424<464.401 514 514 572.125> 356 76<-200.466 85.5 85.5 287.57>
Fore
173 600 m 2xc0
 390 600 l 2
 450 600 457 563 458 523 c 0xc0
 459 486 453 448 408 441 c 0
 395 439 396 426 396 426 c 1
 403 377 425 -70 432 -125 c 0
 434 -147 436 -203 408 -260 c 0
 390 -297 355 -290 356 -255 c 2xa0
 364 426 l 2
 364 440 357 440 349 440 c 2
 108 440 l 2
 63 440 38 492 34 514 c 0
 27 548 36 597 52 628 c 0
 62 650 74 649 82 631 c 0
 100 596 135 600 173 600 c 2xc0
EndSplineSet
EndChar
StartChar: afii57675
Encoding: 317 1499 156
Width: 501
Flags: W
Validated: 33
HStem: 0 160<80.9988 397.735>
VStem: 451.23 27.7695<161.111 176 176 185 185 258.987>
Fore
479 185 m 1
 479.23 185 l 1
 478.23 162 470.23 144 470.23 144 c 1
 412.23 21 l 2
 405.23 8 397.23 0 381.23 0 c 2
 36.2305 0 l 2
 20.2305 0 14.2305 9 20.2305 22 c 2
 68.2305 139 l 2
 73.2305 153 82.2305 160 98.2305 160 c 2
 435.23 160 l 2
 444.23 160 451.23 161 451.23 176 c 0
 453.23 242 444.23 292 427.23 333 c 0
 411.23 372 380.23 404 346.23 421 c 0
 279.23 454 178.23 432 129.23 446 c 0
 72.2305 462 65.2305 496 60.2305 518 c 0
 51.2305 559 59.2305 597 74.2305 628 c 0
 85.2305 650 96.2305 649 105.23 631 c 0
 122.23 596 157.23 602 196.23 600 c 0
 245.23 596 365.23 604 421.23 532 c 0
 477.23 460 483.23 328 479 185 c 1
EndSplineSet
EndChar
StartChar: afii57676
Encoding: 318 1500 157
Width: 510
Flags: W
Validated: 33
HStem: -5 21G<238 267> 440 160<78.5625 418.268>
VStem: 33 442<456.7 541.02> 33 44<542.18 713.337> 201 94<1.65283 100.115> 425 50<314.82 432.707>
Fore
41 874 m 0xe0
 43 890 46 902 66 899 c 0
 117 891 142 833 142 812 c 0
 142 787 99 756 87 737 c 0
 75 718 77 698 77 652 c 0
 77 620 72 600 116 600 c 2
 386 600 l 2
 430 600 463 586 470 544 c 0
 481 480 475 443 475 386 c 0
 475 319 409 268 345 209 c 0
 327 193 294 155 284 101 c 0
 280 82 295 71 295 48 c 0
 295 20 282 -5 252 -5 c 0
 224 -5 204 17 201 45 c 0
 196 90 241 156 262 175 c 0
 399 297 427 320 425 374 c 0xdc
 423 418 416 440 359 440 c 2
 116 440 l 2
 58 440 33 472 33 516 c 0
 33 622 30 687 41 719 c 0
 55 760 79 768 78 784 c 0
 77 800 48 814 42 826 c 0
 38 833 39 858 41 874 c 0xe0
EndSplineSet
EndChar
StartChar: afii57677
Encoding: 319 1501 158
Width: 542
Flags: W
Validated: 33
HStem: 0 160<116.506 454.692> 440 160<153.5 434.375>
VStem: 53.5 63<160.007 370.841> 465.5 33<160.005 410.75>
Fore
184 600 m 2
 378.5 600 l 2
 466.5 600 498.5 522 498.5 440 c 2
 498.5 25 l 2
 498.5 10 489.5 0 468.5 0 c 2
 78.5 0 l 2
 62.5 0 52.5 6 52.5 26 c 2
 53.5 240 l 2
 53.5 341 92.5 405 118.5 440 c 1
 65.5 440 48.5 492 44.5 514 c 0
 38.5 548 47.5 597 62.5 628 c 0
 73.5 650 84.5 649 93.5 631 c 0
 110.5 596 145.5 600 184 600 c 2
153.5 440 m 1
 138.5 411 116.5 366 116.5 297 c 2
 116.5 185 l 2
 116.5 169 124.5 160 142.5 160 c 2
 438.5 160 l 2
 453.5 160 465.5 167 465.5 189 c 2
 465.5 344 l 2
 465.5 394 427.5 440 369.5 440 c 2
 153.5 440 l 1
EndSplineSet
EndChar
StartChar: afii57678
Encoding: 320 1502 159
Width: 581
Flags: W
Validated: 33
HStem: 0.5 160<206.152 493.294>
VStem: 535.79 32<163.928 267.629>
Fore
101 378 m 1
 100.79 378.5 l 1
 71.79 406.5 44.79 448.5 41.79 478.5 c 0
 37.79 514.5 36.79 541.5 55.79 582.5 c 0
 66.79 605.5 80.79 619.5 93.79 630.5 c 0
 110.79 643.5 125.79 637.5 131.79 616.5 c 0
 136.79 599.5 157.79 588.5 169.79 583.5 c 0
 193.79 573.5 215.79 541.5 229.79 481.5 c 0
 231.79 474.5 238.79 466.5 247.79 472.5 c 0
 281.79 496.5 289.79 560.5 293.79 601.5 c 0
 295.79 617.5 304.79 625.5 317.79 624.5 c 0
 403.79 618.5 450.79 579.5 483.79 537.5 c 0
 548.79 456.5 565.79 326.5 567.79 185.5 c 0
 567.79 169.5 558.79 144.5 558.79 144.5 c 1
 507.79 21.5 l 2
 500.79 8.5 492.79 0.5 476.79 0.5 c 2
 160.79 0.5 l 2
 144.79 0.5 138.79 9.5 144.79 22.5 c 2
 192.79 139.5 l 2
 197.79 153.5 207.79 160.5 223.79 160.5 c 2
 519.79 160.5 l 2
 528.79 160.5 535.79 167.5 535.79 176.5 c 0
 534.79 226.5 524.79 323.5 458.79 388.5 c 0
 399.79 446.5 342.79 449.5 301.79 449.5 c 0
 242.79 449.5 166.79 407.5 143.79 354.5 c 0
 105.79 265.5 132.79 189.5 125.79 107.5 c 0
 123.79 78.5 117.79 55.5 108.79 33.5 c 0
 93.79 -2.5 68.79 -21.5 59.79 43.5 c 0
 53.79 89.5 50.79 128.5 58.79 188.5 c 0
 66.79 246.5 87.79 304.5 107.79 344.5 c 0
 113.79 356.5 110.79 368.5 101 378 c 1
EndSplineSet
EndChar
StartChar: afii57679
Encoding: 321 1503 160
Width: 273
Flags: W
Validated: 33
VStem: 32 184<551.93 568.93 551.93 688.458> 111 44<219.692 231.93 231.93 368.458>
Fore
82 447 m 1x40
 82 446.93 l 1
 63 455.93 46 476.93 39 495.93 c 0
 32 516.93 31 535.93 32 551.93 c 0
 33 573.93 43 606.93 50 617.93 c 0
 70 649.93 81 652.93 100 623.93 c 0
 112 603.93 140 599.93 154 595.93 c 0
 182 589.93 200 584.93 216 568.93 c 0x80
 251 536.93 238 468.93 207 437.93 c 0
 194 424.93 187 411.93 187 411.93 c 1
 171 376.93 159 353.93 155 321.93 c 0
 150 275.93 159 212.93 168 159.93 c 0
 181 82.9297 198 -86.0703 193 -132.07 c 0
 188 -173.07 172 -213.07 138 -264.07 c 0
 120 -290.07 97 -282.07 99 -256.07 c 0
 105 -191.07 110 -113.07 111 -24.0703 c 0
 113 75.9297 102 131.93 105 231.93 c 0
 107 298.93 118 345.93 151 413.93 c 0
 154 419.93 155 427.93 144 429.93 c 0
 123 432.93 105 435.93 82 447 c 1x40
EndSplineSet
EndChar
StartChar: afii57680
Encoding: 322 1504 161
Width: 347
Flags: W
Validated: 33
HStem: 0 160<69.6846 233.719>
VStem: 234 36<275.957 335.945 335.945 424.846>
Fore
217 0 m 2
 24 0 l 2
 8 0 3 9 8 22 c 2
 56 139 l 2
 62 153 71 160 87 160 c 2
 212 160 l 2
 230 160 235 170 234 184 c 0
 226 298 231 322 238 400 c 1
 238 400 239 422 217 425 c 0
 177 431 146 436 120 461 c 0
 108 472 98 488 92 505 c 0
 87 523 86 543 87 558 c 0
 88 581 97 607 104 618 c 0
 124 650 139 653 158 624 c 0
 170 604 204 598 217 594 c 0
 258 584 285 558 292 526 c 0
 306 462 270 436 270 408 c 0
 269 335 308 272 313 176 c 0
 316 123 318 85 297 42 c 0
 276 0 234 0 217 0 c 2
EndSplineSet
EndChar
StartChar: afii57681
Encoding: 323 1505 162
Width: 512
Flags: W
Validated: 33
HStem: 0 160<115.922 412.352> 440 160<163.5 283.018 283.018 301.296>
VStem: 46.5 52<215.704 243 243 342.726> 455.5 32<169.061 315.136>
Fore
184 600 m 2
 184.5 600 l 2
 233.5 596 376.5 612 432.5 540 c 0
 489.5 467 490.5 330 487.5 186 c 0
 486.5 169 482.5 150 475.5 134 c 2
 429.5 22 l 2
 424.5 10 411.5 0 394.5 0 c 2
 88.5 0 l 2
 72.5 0 63.5 8 63.5 25 c 0
 62.5 48 61.5 82 59.5 108 c 0
 50.5 208 47.5 171 46.5 243 c 0
 45.5 303 102.5 416 126.5 440 c 1
 74.5 450 53.5 496 48.5 518 c 0
 39.5 559 47.5 597 62.5 628 c 0
 73.5 650 84.5 649 93.5 631 c 0
 110.5 596 145.5 602 184 600 c 2
163.5 440 m 1
 125.5 386 96.5 340 98.5 269 c 0
 100.5 235 101.5 223 106.5 185 c 0
 109.5 162 120.5 160 134.5 160 c 2
 430.5 160 l 2
 448.5 160 455.5 170 455.5 185 c 0
 455.5 250 458.5 345 430.5 387 c 0
 415.5 410 376.5 433 338.5 436 c 0
 290.5 440 210.5 441 163.5 440 c 1
EndSplineSet
EndChar
StartChar: afii57682
Encoding: 324 1506 163
Width: 552
Flags: W
Validated: 33
VStem: 30 487<533 548 558 561 526 548 548 548>
Fore
138 404 m 0
 142 424 134 435 123 437 c 0
 102 439 85 446 71 456 c 0
 58 465 47 479 40 496 c 0
 33 514 31 533 30 548 c 0
 29 571 35 597 42 609 c 0
 59 643 68 657 101 619 c 0
 112 606 140 602 157 601 c 0
 198 600 224 585 242 564 c 0
 257 545 265 508 263 475 c 0
 260 434 249 427 238 431 c 0
 226 435 211 437 194 434 c 0
 179 432 172 419 171 402 c 0
 168 344 197 308 211 277 c 0
 234 227 245 168 241 100 c 1
 331 166 l 1
 343 179 350 179 356 205 c 0
 366 240 379 281 392 309 c 0
 418 370 417 362 430 402 c 0
 434 417 431 424 415 427 c 0
 396 432 375 438 351 461 c 0
 339 472 329 488 323 505 c 0
 317 523 317 543 317 558 c 0
 319 581 327 607 335 618 c 0
 355 650 367 653 386 624 c 0
 399 604 428 598 441 594 c 0
 483 584 509 561 517 526 c 0
 522 501 526 458 486 431 c 0
 476 425 465 412 462 402 c 0
 436 323 429 299 416 232 c 0
 403 162 399 111 394 38 c 0
 392 21 389 11 372 -2 c 2
 81 -219 l 2
 74 -224 62 -224 62 -209 c 2
 72 -51 l 2
 73 -33 76 -23 93 -11 c 2
 192 61 l 2
 205 71 212 82 210 100 c 0
 203 166 172 195 155 236 c 0
 128 302 129 354 138 404 c 0
EndSplineSet
EndChar
StartChar: afii57683
Encoding: 325 1507 164
Width: 493
Flags: W
Validated: 33
HStem: 122 147<146.157 211 211 243.379> 440 160<144 390.51>
VStem: 40 428<-160 294 294 326.379>
Fore
104 440 m 1
 72 463 62 492 58 514 c 0
 51 548 60 597 76 628 c 0
 86 650 98 649 106 631 c 0
 124 596 159 600 197 600 c 2
 336 600 l 2
 392 600 430 557 433 504 c 2
 468 -160 l 2
 471 -209 452 -245 423 -270 c 0
 405 -284 389 -287 390 -259 c 2
 409 346 l 2
 412 397 388 440 338 440 c 2
 144 440 l 1
 119 422 94 366 103 316 c 0
 112 268 163 268 211 269 c 0
 242 270 268 249 275 215 c 0
 282 183 279 149 245 128 c 0
 211 107 140 116 108 122 c 1
 98 115 88 103 72 91 c 0
 63 84 51 81 43 89 c 0
 35 97 39 110 47 117 c 0
 62 130 61 128 74 141 c 1
 35 199 36 253 40 294 c 0
 46 356 73 415 104 440 c 1
EndSplineSet
EndChar
StartChar: afii57684
Encoding: 326 1508 165
Width: 491
Flags: W
Validated: 33
HStem: -0.30957 160<79.6846 394.813> 223.69 147<151.173 228 228 260.379>
VStem: 437 30<165.32 175.69 175.69 277.003>
Fore
154 443 m 1
 154 442.69 l 1
 131 431.69 125 417.69 126 399.69 c 0
 128 367.69 180 369.69 228 370.69 c 0
 259 371.69 285 350.69 292 316.69 c 0
 299 284.69 296 250.69 262 229.69 c 0
 228 208.69 157 217.69 125 223.69 c 1
 115 216.69 105 204.69 89 192.69 c 0
 80 185.69 68 182.69 60 190.69 c 0
 52 198.69 56 211.69 64 218.69 c 0
 79 231.69 78 229.69 91 242.69 c 1
 58 272.69 50 300.69 54 341.69 c 0
 59 392.69 94 426.69 125 451.69 c 1
 83 468.69 77 497.69 73 517.69 c 0
 64 558.69 72 596.69 87 627.69 c 0
 98 649.69 109 648.69 118 630.69 c 0
 135 595.69 170 601.69 208 599.69 c 0
 259 596.69 369 599.69 419 528.69 c 0
 466 462.69 471 327.69 467 184.69 c 0
 466 161.69 464 154.69 460 143.69 c 2
 409 20.6904 l 2
 403 7.69043 394 -0.30957 378 -0.30957 c 2
 34 -0.30957 l 2
 18 -0.30957 13 8.69043 18 21.6904 c 2
 66 138.69 l 2
 72 152.69 81 159.69 97 159.69 c 2
 420 159.69 l 2
 429 159.69 436 165.69 437 175.69 c 0
 438 242.69 433 338.69 402 381.69 c 0
 344 461.69 217 431.69 154 443 c 1
EndSplineSet
EndChar
StartChar: afii57685
Encoding: 327 1509 166
Width: 537
Flags: W
Validated: 33
VStem: 117.89 46<250.739 311.793> 135.89 86<-218.782 -102.672 -102.672 -57.2397>
Fore
190 134 m 1x80
 189.89 134.5 l 1
 205.89 50.5 223.89 -86.5 221.89 -127.5 c 0
 218.89 -169.5 203.89 -210.5 172.89 -262.5 c 0
 155.89 -289.5 131.89 -282.5 133.89 -256.5 c 0
 136.89 -191.5 137.89 -112.5 135.89 -23.5 c 0x40
 132.89 75.5 119.89 131.5 117.89 231.5 c 0
 116.89 298.5 122.89 346.5 152.89 414.5 c 0
 155.89 421.5 155.89 429.5 144.89 430.5 c 0
 123.89 433.5 108.89 434.5 85.8896 445.5 c 0
 66.8896 454.5 47.8896 473.5 40.8896 492.5 c 0
 32.8896 513.5 30.8896 532.5 31.8896 547.5 c 0
 31.8896 570.5 39.8896 603.5 45.8896 614.5 c 0
 64.8896 647.5 75.8896 658.5 95.8896 626.5 c 0
 108.89 606.5 134.89 603.5 148.89 600.5 c 0
 177.89 595.5 193.89 588.5 211.89 573.5 c 0
 246.89 542.5 236.89 474.5 207.89 442.5 c 0
 194.89 428.5 188.89 415.5 188.89 415.5 c 1
 173.89 379.5 166.89 356.5 163.89 323.5 c 0
 162.89 296.5 164.89 262.5 171.89 228.5 c 0
 174.89 212.5 182.89 207.5 192.89 220.5 c 2
 361.89 432.5 l 2
 367.89 439.5 370.89 444.5 358.89 454.5 c 0
 333.89 474.5 323.89 498.5 322.89 531.5 c 0
 321.89 568.5 332.89 598.5 359.89 628.5 c 0
 378.89 651.5 397.89 651.5 405.89 628.5 c 0
 409.89 620.5 423.89 600.5 443.89 588.5 c 0
 477.89 569.5 501.89 539.5 503.89 503.5 c 0
 505.89 465.5 495.89 441.5 472.89 412.5 c 0
 461.89 397.5 443.89 379.5 432.89 392.5 c 0
 425.89 400.5 420.89 406.5 412.89 412.5 c 0
 407.89 416.5 399.89 419.5 390.89 408.5 c 2
 201.89 176.5 l 1
 193.89 161.5 187.89 144.5 190 134 c 1x80
EndSplineSet
EndChar
StartChar: afii57686
Encoding: 328 1510 167
Width: 561
Flags: W
Validated: 33
HStem: 0 160<99.6846 413.324>
VStem: 38 478<22 503 -6 51.7134>
Fore
54 0 m 2
 38 0 33 9 38 22 c 2
 86 139 l 2
 92 153 101 160 117 160 c 2
 406 160 l 2
 421 160 420 166 413 172 c 2
 228 312 l 2
 220 319 216 326 215 336 c 0
 211 368 209 388 204 402 c 0
 200 415 198 426 176 428 c 0
 136 431 97 436 70 461 c 0
 59 472 49 488 44 505 c 0
 38 523 37 543 38 558 c 0
 39 581 48 607 55 618 c 0
 75 650 86 653 105 624 c 0
 118 604 145 598 158 594 c 0
 199 584 223 560 232 526 c 0
 240 495 232 468 228 442 c 0
 226 433 228 424 234 414 c 0
 239 405 326 339 326 339 c 2
 335 331 342 336 346 343 c 2
 382 428 l 2
 386 435 390 441 377 451 c 0
 353 470 336 498 336 531 c 0
 335 568 345 598 372 628 c 0
 392 651 410 651 419 628 c 0
 422 620 436 600 456 588 c 0
 490 569 514 539 516 503 c 0
 518 465 508 441 486 412 c 0
 474 397 456 379 446 392 c 0
 438 400 438 403 431 409 c 0
 426 414 417 421 412 408 c 2
 374 321 l 2
 368 309 370 304 380 296 c 2
 486 212 l 2
 520 185 535 121 512 69 c 0
 490 21 448 0 397 0 c 2
 54 0 l 2
EndSplineSet
EndChar
StartChar: afii57687
Encoding: 329 1511 168
Width: 544
Flags: W
Validated: 33
VStem: 45.5 85<-163.049 -110.783 -110.783 223.938> 48.5 57<-80.0204 -20 -20 159.636 159.636 307.429>
Fore
186 600 m 1x00
 185.5 600 l 1
 217.5 596 395.5 612 466.5 538 c 0
 536.5 466 532.5 230 507.5 158 c 0
 496.5 126 460.5 82 411.5 61 c 0
 344.5 33 238.5 41 211.5 -5 c 0
 199.5 -26 177.5 -16 176.5 10 c 0
 176.5 18 177.5 31 184.5 48 c 0
 201.5 88 237.5 115 317.5 141 c 0
 381.5 162 429.5 152 464.5 191 c 0
 502.5 233 500.5 352 462.5 395 c 0
 408.5 456 181.5 429 119.5 446 c 0
 62.5 462 55.5 496 50.5 518 c 0
 41.5 559 49.5 597 64.5 628 c 0
 75.5 650 86.5 649 95.5 631 c 0
 112.5 596 148.5 604 186 600 c 1x00
133.5 346 m 0
 108.5 299 105.5 276 105.5 242 c 0x40
 102.5 142 131.5 0 130.5 -84 c 0
 129.5 -156 127.5 -223 80.5 -288 c 0
 53.5 -325 41.5 -324 45.5 -284 c 0x80
 55.5 -168 45.5 -126 46.5 -20 c 0
 47.5 76 39.5 162 48.5 227 c 0x40
 55.5 274 73.5 323 104.5 358 c 0
 131.5 389 147.5 372 133.5 346 c 0
EndSplineSet
EndChar
StartChar: afii57688
Encoding: 330 1512 169
Width: 502
Flags: W
Validated: 33
HStem: 440 160<114.392 387.703>
VStem: 427 43<26.1375 216.454>
Fore
427 344 m 0
 427 394 389 440 331 440 c 2
 108 440 l 2
 63 440 38 492 34 514 c 0
 27 548 37 597 52 628 c 0
 63 650 74 649 83 631 c 0
 100 596 135 600 173 600 c 2
 306 600 l 2
 394 600 440 539 452 440 c 0
 460 372 465 208 470 154 c 0
 472 132 476 72 457 20 c 0
 443 -19 412 -8 414 26 c 2
 414 26 419 215 427 344 c 0
EndSplineSet
EndChar
StartChar: afii57689
Encoding: 331 1513 170
Width: 716
Flags: W
Validated: 33
HStem: 0 160<167.75 198.851 246.817 459.826>
Fore
492 227 m 0
 530 319 584 399 584 399 c 2
 588 406 590 414 582 420 c 0
 564 434 517 460 506 506 c 0
 494 555 507 591 539 628 c 0
 558 651 577 651 586 628 c 0
 589 620 604 600 624 588 c 0
 657 569 681 539 683 503 c 0
 685 465 676 441 653 412 c 0
 641 397 635 393 630 394 c 0
 626 395 622 400 616 390 c 0
 580 341 550 265 520 149 c 0
 504 88 490 0 377 0 c 2
 114 0 l 2
 104 0 99 5 99 15 c 0
 99 37 98 79 95 108 c 0
 86 208 80 196 79 268 c 0
 80 308 95 353 107 392 c 0
 113 410 110 423 100 426 c 0
 82 433 68 443 57 455 c 0
 47 466 39 482 36 499 c 0
 32 518 33 537 35 552 c 0
 38 575 48 604 55 615 c 0
 76 650 90 655 108 625 c 0
 116 611 132 597 156 591 c 0
 192 581 213 558 225 531 c 0
 235 510 237 472 230 440 c 0
 221 400 211 395 201 401 c 0
 191 407 179 412 162 412 c 0
 149 412 142 401 137 384 c 0
 122 335 119 328 126 292 c 0
 134 249 154 225 163 175 c 0
 164 166 169 160 180 160 c 2
 186 160 l 2
 196 160 202 165 206 174 c 2
 318 432 l 2
 321 440 323 447 314 454 c 0
 289 473 279 498 278 531 c 0
 277 568 288 598 315 628 c 0
 334 651 353 651 362 628 c 0
 364 620 379 600 399 588 c 0
 433 569 456 539 458 503 c 0
 461 465 451 441 428 412 c 0
 417 397 399 379 388 392 c 0
 381 400 376 406 368 412 c 0
 362 416 352 423 346 408 c 2
 247 174 l 2
 243 163 245 160 257 160 c 2
 377 160 l 2
 427 160 473 181 492 227 c 0
EndSplineSet
EndChar
StartChar: afii57690
Encoding: 332 1514 171
Width: 571
Flags: W
Validated: 33
HStem: 0 21G<18.6699 151.17> 448 152<167.67 455.533>
VStem: 495.67 43<26.1375 216.454>
Fore
131 448 m 1
 130.67 448 l 1
 100.67 462 88.6699 496 85.6699 514 c 0
 79.6699 548 88.6699 597 103.67 628 c 0
 114.67 650 125.67 649 134.67 631 c 0
 151.67 596 186.67 600 225.67 600 c 2
 374.67 600 l 2
 462.67 600 508.67 539 520.67 440 c 0
 528.67 372 533.67 208 538.67 154 c 0
 540.67 132 544.67 72 525.67 20 c 0
 511.67 -19 480.67 -8 482.67 26 c 2
 482.67 26 487.67 215 495.67 344 c 0
 495.67 394 457.67 440 399.67 440 c 2
 167.67 440 l 1
 158.67 425 151.67 414 145.67 397 c 0
 126.67 347 132.67 293 163.67 240 c 0
 188.67 197 214.67 140 199.67 76 c 0
 193.67 54 175.67 0 126.67 0 c 2
 26.6699 0 l 2
 10.6699 0 4.66992 9 10.6699 22 c 2
 58.6699 139 l 2
 63.6699 153 73.6699 160 89.6699 160 c 0
 93.6699 160 100.67 161 105.67 167 c 0
 115.67 180 71.6699 225 78.6699 304 c 0
 83.6699 364 110.67 426 131 448 c 1
EndSplineSet
EndChar
StartChar: afii57716
Encoding: 333 1520 172
Width: 532
Flags: W
Validated: 33
VStem: 155 65<79.534 155 155 347.775> 421 65<79.534 155 155 347.775>
Fore
487 523 m 0
 494 485 486 448 462 418 c 0
 458 412 451 401 453 390 c 0
 464 322 480 210 486 155 c 0
 489 133 490 77 462 20 c 0
 445 -17 409 -10 410 25 c 2
 410 25 419 268 421 392 c 0
 422 406 413 419 400 423 c 0
 384 427 357 435 341 446 c 0
 324 458 310 476 304 496 c 0
 298 515 297 543 298 558 c 0
 299 581 307 607 314 618 c 0
 334 650 346 653 364 624 c 0
 377 604 404 598 418 594 c 0
 459 584 481 554 487 523 c 0
221 523 m 0
 228 485 220 448 196 418 c 0
 192 412 185 401 187 390 c 0
 198 322 214 210 220 155 c 0
 223 133 224 77 196 20 c 0
 179 -17 143 -10 144 25 c 2
 144 25 153 268 155 392 c 0
 156 406 147 419 134 423 c 0
 118 427 91 435 75 446 c 0
 58 458 44 476 38 496 c 0
 32 515 31 543 32 558 c 0
 33 581 41 607 48 618 c 0
 68 650 80 653 98 624 c 0
 111 604 138 598 152 594 c 0
 193 584 215 554 221 523 c 0
EndSplineSet
EndChar
StartChar: afii57717
Encoding: 334 1521 173
Width: 532
Flags: W
Validated: 33
VStem: 30 457<523 541 558 579 523 579 579 579> 421 65<79.534 155 155 347.775>
Fore
229 419 m 0x80
 223 390 206 357 182 324 c 0
 173 312 161 295 150 304 c 0
 137 314 146 335 151 344 c 0
 166 371 178 390 162 415 c 0
 148 436 127 433 100 445 c 0
 76 456 53 473 38 508 c 0
 29 530 28 562 30 579 c 0
 33 604 39 619 49 631 c 0
 69 654 79 646 91 626 c 0
 104 606 118 598 145 592 c 0
 170 587 200 571 216 541 c 0
 239 500 237 458 229 419 c 0x80
487 523 m 0
 494 485 486 448 462 418 c 0
 458 412 451 401 453 390 c 0
 464 322 480 210 486 155 c 0
 489 133 490 77 462 20 c 0
 445 -17 409 -10 410 25 c 2
 410 25 419 268 421 392 c 0x40
 422 406 413 419 400 423 c 0
 384 427 357 435 341 446 c 0
 324 458 310 476 304 496 c 0
 298 515 297 543 298 558 c 0
 299 581 307 607 314 618 c 0
 334 650 346 653 364 624 c 0
 377 604 404 598 418 594 c 0
 459 584 481 554 487 523 c 0
EndSplineSet
EndChar
StartChar: afii57718
Encoding: 335 1522 174
Width: 532
Flags: W
Validated: 33
VStem: 0 466<0 419 1.53064e-18 1.53064e-18>
Fore
0 0 m 0
 0 0 l 0
466 419 m 0
 460 390 443 357 419 324 c 0
 410 312 398 295 387 304 c 0
 374 314 383 335 388 344 c 0
 403 371 415 390 399 415 c 0
 385 436 364 433 337 445 c 0
 313 456 290 473 275 508 c 0
 266 530 265 562 267 579 c 0
 270 604 276 619 286 631 c 0
 306 654 316 646 328 626 c 0
 341 606 355 598 382 592 c 0
 407 587 437 571 453 541 c 0
 476 500 474 458 466 419 c 0
200 419 m 0
 194 390 177 357 153 324 c 0
 144 312 132 295 121 304 c 0
 108 314 117 335 122 344 c 0
 137 371 149 390 133 415 c 0
 119 436 98 433 71 445 c 0
 47 456 24 473 9 508 c 0
 0 530 -1 562 1 579 c 0
 4 604 10 619 20 631 c 0
 40 654 50 646 62 626 c 0
 75 606 89 598 116 592 c 0
 141 587 171 571 187 541 c 0
 210 500 208 458 200 419 c 0
EndSplineSet
EndChar
StartChar: SF110000
Encoding: 340 9474 179
Width: 610
Flags: W
Validated: 1
HStem: -300 1260<245 365 245 365 245 245>
VStem: 245 120<-300 960>
Fore
365 960 m 1
 365 -300 l 1
 245 -300 l 1
 245 960 l 1
 365 960 l 1
EndSplineSet
EndChar
StartChar: uni25CC
Encoding: 341 9676 180
Width: 604
Flags: W
Validated: 1
HStem: 28 73<265.701 336.299> 60 73<148.615 218.392 383.701 454.299> 146 73<62.6084 132.385 469.701 540.299> 263 74<30.7007 101.299 501.608 571.385> 381 73<62.6084 132.385 469.701 540.299> 467 73<148.615 218.392 383.701 454.299> 499 73<265.701 336.299>
VStem: 29 74<264.701 335.299> 61 73<147.608 217.385 382.615 452.392> 147 73<61.6084 131.385 468.615 538.392> 264 74<29.615 99.3916 500.608 570.385> 382 74<61.6084 131.385 468.615 538.392> 468 74<147.608 217.385 382.615 452.392> 500 73<264.701 335.299>
Fore
505 454 m 0x3878
 525 454 542 438 542 418 c 0
 542 397 525 381 505 381 c 0
 485 381 468 397 468 418 c 0
 468 438 485 454 505 454 c 0x3878
419 133 m 0x7870
 439 133 456 117 456 96 c 0
 456 76 439 60 419 60 c 0
 399 60 382 76 382 96 c 0
 382 117 399 133 419 133 c 0x7870
97 219 m 0
 118 219 134 203 134 182 c 0
 134 162 118 146 97 146 c 0
 77 146 61 162 61 182 c 0x38f0
 61 203 77 219 97 219 c 0
184 540 m 0x3c70
 204 540 220 524 220 504 c 0
 220 483 204 467 184 467 c 0
 163 467 147 483 147 504 c 0
 147 524 163 540 184 540 c 0x3c70
97 454 m 0
 118 454 134 438 134 418 c 0
 134 397 118 381 97 381 c 0
 77 381 61 397 61 418 c 0x38f0
 61 438 77 454 97 454 c 0
184 133 m 0x7870
 204 133 220 117 220 96 c 0
 220 76 204 60 184 60 c 0
 163 60 147 76 147 96 c 0
 147 117 163 133 184 133 c 0x7870
505 219 m 0
 525 219 542 203 542 182 c 0
 542 162 525 146 505 146 c 0
 485 146 468 162 468 182 c 0x3878
 468 203 485 219 505 219 c 0
419 540 m 0x3c70
 439 540 456 524 456 504 c 0
 456 483 439 467 419 467 c 0
 399 467 382 483 382 504 c 0
 382 524 399 540 419 540 c 0x3c70
301 101 m 0xb870
 321 101 338 85 338 65 c 0
 338 44 321 28 301 28 c 0
 281 28 264 44 264 65 c 0
 264 85 281 101 301 101 c 0xb870
536 337 m 0
 557 337 573 320 573 300 c 0
 573 280 557 263 536 263 c 0
 516 263 500 280 500 300 c 0x3874
 500 320 516 337 536 337 c 0
301 572 m 0x3a70
 321 572 338 556 338 535 c 0
 338 515 321 499 301 499 c 0
 281 499 264 515 264 535 c 0
 264 556 281 572 301 572 c 0x3a70
66 337 m 0
 86 337 103 320 103 300 c 0
 103 280 86 263 66 263 c 0
 46 263 29 280 29 300 c 0x3970
 29 320 46 337 66 337 c 0
EndSplineSet
EndChar
StartChar: uniE801
Encoding: 342 59393 181
Width: 266
Flags: W
Validated: 33
HStem: 645 75<-36.0047 36.0047>
VStem: -38 76<646.987 718.005> 155 65<79.534 155 155 347.775>
Fore
0 720 m 0
 21 720 38 703 38 682 c 0
 38 662 21 645 0 645 c 0
 -21 645 -38 662 -38 682 c 0
 -38 703 -21 720 0 720 c 0
221 523 m 0
 228 485 220 448 196 418 c 0
 192 412 185 401 187 390 c 0
 198 322 214 210 220 155 c 0
 223 133 224 77 196 20 c 0
 179 -17 143 -10 144 25 c 2
 144 25 153 268 155 392 c 0
 156 406 147 419 134 423 c 0
 118 427 91 435 75 446 c 0
 58 458 44 476 38 496 c 0
 32 515 31 543 32 558 c 0
 33 581 41 607 48 618 c 0
 68 650 80 653 98 624 c 0
 111 604 138 598 152 594 c 0
 193 584 215 554 221 523 c 0
EndSplineSet
EndChar
StartChar: uniE802
Encoding: 343 59394 182
Width: 496
Flags: W
Validated: 33
HStem: 107 75<224.995 297.005> 222 75<224.995 297.005> 440 160<114.214 361.762>
VStem: 223 76<108.987 180.005 223.995 295.013> 356 76<-200.466 85.5 85.5 287.57>
Fore
261 182 m 0
 282 182 299 165 299 144 c 0
 299 124 282 107 261 107 c 0
 240 107 223 124 223 144 c 0
 223 165 240 182 261 182 c 0
261 297 m 0
 282 297 299 280 299 260 c 0
 299 239 282 222 261 222 c 0
 240 222 223 239 223 260 c 0
 223 280 240 297 261 297 c 0
173 600 m 2
 390 600 l 2
 450 600 457 563 458 523 c 0
 459 486 453 448 408 441 c 0
 395 439 396 426 396 426 c 1
 403 377 425 -70 432 -125 c 0
 434 -147 436 -203 408 -260 c 0
 390 -297 355 -290 356 -255 c 2
 364 426 l 2
 364 440 357 440 349 440 c 2
 108 440 l 2
 63 440 38 492 34 514 c 0
 27 548 36 597 52 628 c 0
 62 650 74 649 82 631 c 0
 100 596 135 600 173 600 c 2
EndSplineSet
EndChar
StartChar: uniE803
Encoding: 344 59395 183
Width: 496
Flags: W
Validated: 33
HStem: 234.69 55<102.917 194.854 230.919 322.862> 439.69 160<114.104 361.652>
VStem: 174.89 76<111.677 163.78> 194.89 36<181.228 234.035> 355.89 76<-200.776 85.1904 85.1904 287.26>
Fore
241 172 m 1xd8
 240.89 171.69 l 1
 246.89 165.69 250.89 156.69 250.89 146.69 c 0
 250.89 126.69 233.89 109.69 212.89 109.69 c 0
 191.89 109.69 174.89 126.69 174.89 146.69 c 0xe8
 174.89 156.69 178.89 165.69 184.89 172.69 c 0
 195.89 184.69 194.89 197.69 194.89 206.69 c 0
 194.89 227.69 182.89 234.69 156.89 234.69 c 2
 112.89 234.69 l 2
 104.89 234.69 97.8896 241.69 97.8896 249.69 c 2
 97.8896 274.69 l 2
 97.8896 282.69 104.89 289.69 112.89 289.69 c 2
 312.89 289.69 l 2
 320.89 289.69 327.89 282.69 327.89 274.69 c 2
 327.89 249.69 l 2
 327.89 241.69 320.89 234.69 312.89 234.69 c 2
 268.89 234.69 l 2
 240.89 234.69 230.89 227.69 230.89 206.69 c 0
 230.89 197.69 229.89 184.69 241 172 c 1xd8
172.89 599.69 m 2
 389.89 599.69 l 2
 449.89 599.69 456.89 562.69 457.89 522.69 c 0
 458.89 485.69 452.89 447.69 407.89 440.69 c 0
 394.89 438.69 395.89 425.69 395.89 425.69 c 1
 402.89 376.69 424.89 -70.3096 431.89 -125.31 c 0
 433.89 -147.31 435.89 -203.31 407.89 -260.31 c 0
 389.89 -297.31 354.89 -290.31 355.89 -255.31 c 2
 363.89 425.69 l 2
 363.89 439.69 356.89 439.69 348.89 439.69 c 2
 107.89 439.69 l 2
 62.8896 439.69 37.8896 491.69 33.8896 513.69 c 0
 26.8896 547.69 35.8896 596.69 51.8896 627.69 c 0
 61.8896 649.69 73.8896 648.69 81.8896 630.69 c 0
 99.8896 595.69 134.89 599.69 172.89 599.69 c 2
EndSplineSet
EndChar
StartChar: uniFB1D
Encoding: 345 64285 184
Width: 266
Flags: W
Validated: 33
HStem: 159 75<83.9953 156.005>
VStem: 82 76<160.995 232.013>
Fore
120 234 m 0
 141 234 158 217 158 197 c 0
 158 176 141 159 120 159 c 0
 99 159 82 176 82 197 c 0
 82 217 99 234 120 234 c 0
229 419 m 0
 223 390 206 357 182 324 c 0
 173 312 161 295 150 304 c 0
 137 314 146 335 151 344 c 0
 166 371 178 390 162 415 c 0
 148 436 127 433 100 445 c 0
 76 456 53 473 38 508 c 0
 29 530 28 562 30 579 c 0
 33 604 39 619 49 631 c 0
 69 654 79 646 91 626 c 0
 104 606 118 598 145 592 c 0
 170 587 200 571 216 541 c 0
 239 500 237 458 229 419 c 0
EndSplineSet
EndChar
StartChar: uniFB1E
Encoding: 346 64286 185
Width: 0
Flags: W
Validated: 33
HStem: 675 48<-72 99 -72 -72>
VStem: -105 210<676.483 696 696 696 696 696>
Fore
-92 717 m 2
 -88 724 -79 726 -72 723 c 0
 -26 702 27 703 72 723 c 0
 79 726 88 724 92 717 c 2
 105 696 l 2
 109 688 106 680 99 675 c 0
 52 642 -54 646 -99 675 c 0
 -106 680 -109 688 -105 696 c 2
 -92 717 l 2
EndSplineSet
EndChar
StartChar: afii57705
Encoding: 347 64287 186
Width: 532
Flags: W
Validated: 33
HStem: 160 471<49 358 49 49> 160 55<148.027 367.973>
VStem: 30 465<419 579 579 579>
Fore
143 200 m 2xa0
 143 208 150 215 158 215 c 2
 358 215 l 2x60
 366 215 373 208 373 200 c 2
 373 175 l 2
 373 167 366 160 358 160 c 2
 158 160 l 2
 150 160 143 167 143 175 c 2
 143 200 l 2xa0
229 419 m 0
 223 390 206 357 182 324 c 0
 173 312 161 295 150 304 c 0
 137 314 146 335 151 344 c 0
 166 371 178 390 162 415 c 0
 148 436 127 433 100 445 c 0
 76 456 53 473 38 508 c 0
 29 530 28 562 30 579 c 0
 33 604 39 619 49 631 c 0xa0
 69 654 79 646 91 626 c 0
 104 606 118 598 145 592 c 0
 170 587 200 571 216 541 c 0
 239 500 237 458 229 419 c 0
495 419 m 0
 489 390 472 357 448 324 c 0
 439 312 427 295 416 304 c 0
 403 314 412 335 417 344 c 0
 432 371 444 390 428 415 c 0
 414 436 393 433 366 445 c 0
 342 456 319 473 304 508 c 0
 295 530 294 562 296 579 c 0
 299 604 305 619 315 631 c 0
 335 654 345 646 357 626 c 0
 370 606 384 598 411 592 c 0
 436 587 466 571 482 541 c 0
 505 500 503 458 495 419 c 0
EndSplineSet
EndChar
StartChar: uniFB20
Encoding: 348 64288 187
Width: 552
Flags: W
Validated: 33
HStem: 0 160<104.362 226.328 257.865 362.879>
VStem: 30 487<533 548 558 561 526 548 548 548> 138 33<322.582 420.854>
Fore
349 0 m 2xc0
 59 0 l 2
 43 0 37 9 43 22 c 2
 91 139 l 2
 96 153 106 160 122 160 c 2
 196 160 l 2
 227 160 236 182 216 206 c 0
 190 239 169 240 148 281 c 0
 126 320 132 372 138 404 c 0xa0
 142 424 134 435 123 437 c 0
 102 439 85 446 71 456 c 0
 58 465 47 479 40 496 c 0
 33 514 31 533 30 548 c 0xc0
 29 571 35 597 42 609 c 0
 59 643 68 657 101 619 c 0
 112 606 140 602 157 601 c 0
 198 600 224 585 242 564 c 0
 257 545 265 508 263 475 c 0
 260 434 249 427 238 431 c 0
 226 435 211 437 194 434 c 0
 179 432 171 419 171 402 c 0xa0
 170 356 190 326 217 302 c 0
 248 274 268 221 258 178 c 0
 255 168 259 160 270 160 c 2
 332 160 l 2
 360 160 364 182 369 206 c 0
 376 241 386 278 397 309 c 0
 406 333 417 362 430 402 c 0
 434 417 431 424 415 427 c 0
 396 432 375 438 351 461 c 0
 339 472 329 488 323 505 c 0
 317 523 317 543 317 558 c 0
 319 581 327 607 335 618 c 0
 355 650 367 653 386 624 c 0
 399 604 428 598 441 594 c 0
 483 584 509 561 517 526 c 0
 522 501 526 458 486 431 c 0
 476 425 465 412 462 402 c 0
 446 352 432 292 426 236 c 0
 421 193 420 116 417 73 c 0
 414 22 394 0 349 0 c 2xc0
EndSplineSet
EndChar
StartChar: uniFB29
Encoding: 349 64297 188
Width: 570
Flags: W
Validated: 1
HStem: 209 88<33 241 329 537>
VStem: 241 88<297 506>
Fore
241 297 m 1
 241 506 l 1
 329 506 l 1
 329 297 l 1
 537 297 l 1
 537 209 l 1
 33 209 l 1
 33 297 l 1
 241 297 l 1
EndSplineSet
EndChar
StartChar: afii57694
Encoding: 350 64298 189
Width: 716
Flags: W
Validated: 33
HStem: 0 160<167.75 198.851 246.817 459.826> 630 75<607.995 680.005>
VStem: 606 76<631.995 703.013>
Fore
644 705 m 0
 665 705 682 688 682 668 c 0
 682 647 665 630 644 630 c 0
 623 630 606 647 606 668 c 0
 606 688 623 705 644 705 c 0
492 227 m 0
 530 319 584 399 584 399 c 2
 588 406 590 414 582 420 c 0
 564 434 517 460 506 506 c 0
 494 555 507 591 539 628 c 0
 558 651 577 651 586 628 c 0
 589 620 604 600 624 588 c 0
 657 569 681 539 683 503 c 0
 685 465 676 441 653 412 c 0
 641 397 635 393 630 394 c 0
 626 395 622 400 616 390 c 0
 580 341 550 265 520 149 c 0
 504 88 490 0 377 0 c 2
 114 0 l 2
 104 0 99 5 99 15 c 0
 99 37 98 79 95 108 c 0
 86 208 80 196 79 268 c 0
 80 308 95 353 107 392 c 0
 113 410 110 423 100 426 c 0
 82 433 68 443 57 455 c 0
 47 466 39 482 36 499 c 0
 32 518 33 537 35 552 c 0
 38 575 48 604 55 615 c 0
 76 650 90 655 108 625 c 0
 116 611 132 597 156 591 c 0
 192 581 213 558 225 531 c 0
 235 510 237 472 230 440 c 0
 221 400 211 395 201 401 c 0
 191 407 179 412 162 412 c 0
 149 412 142 401 137 384 c 0
 122 335 119 328 126 292 c 0
 134 249 154 225 163 175 c 0
 164 166 169 160 180 160 c 2
 186 160 l 2
 196 160 202 165 206 174 c 2
 318 432 l 2
 321 440 323 447 314 454 c 0
 289 473 279 498 278 531 c 0
 277 568 288 598 315 628 c 0
 334 651 353 651 362 628 c 0
 364 620 379 600 399 588 c 0
 433 569 456 539 458 503 c 0
 461 465 451 441 428 412 c 0
 417 397 399 379 388 392 c 0
 381 400 376 406 368 412 c 0
 362 416 352 423 346 408 c 2
 247 174 l 2
 243 163 245 160 257 160 c 2
 377 160 l 2
 427 160 473 181 492 227 c 0
EndSplineSet
EndChar
StartChar: afii57695
Encoding: 351 64299 190
Width: 716
Flags: W
Validated: 37
HStem: 0 160<167.25 198.351 246.317 459.326> 630 21G<161.5 182>
VStem: 134.5 75<631.995 703.013>
Fore
172 705 m 1
 171.5 705 l 1
 192.5 705 209.5 688 209.5 668 c 0
 209.5 647 192.5 630 171.5 630 c 0
 151.5 630 134.5 647 134.5 668 c 0
 134.5 688 151.5 705 172 705 c 1
491.5 227 m 0
 529.5 319 583.5 399 583.5 399 c 2
 587.5 406 589.5 414 581.5 420 c 0
 563.5 434 516.5 460 505.5 506 c 0
 493.5 555 506.5 591 538.5 628 c 0
 557.5 651 576.5 651 585.5 628 c 0
 588.5 620 603.5 600 623.5 588 c 0
 656.5 569 680.5 539 682.5 503 c 0
 684.5 465 675.5 441 652.5 412 c 0
 640.5 397 634.5 393 629.5 394 c 0
 625.5 395 621.5 400 615.5 390 c 0
 579.5 341 549.5 265 519.5 149 c 0
 503.5 88 489.5 0 376.5 0 c 2
 113.5 0 l 2
 103.5 0 98.5 5 98.5 15 c 0
 98.5 37 97.5 79 94.5 108 c 0
 85.5 208 79.5 196 78.5 268 c 0
 79.5 308 94.5 353 106.5 392 c 0
 112.5 410 109.5 423 99.5 426 c 0
 81.5 433 67.5 443 56.5 455 c 0
 46.5 466 38.5 482 35.5 499 c 0
 31.5 518 32.5 537 34.5 552 c 0
 37.5 575 47.5 604 54.5 615 c 0
 75.5 650 89.5 655 107.5 625 c 0
 115.5 611 131.5 597 155.5 591 c 0
 191.5 581 212.5 558 224.5 531 c 0
 234.5 510 236.5 472 229.5 440 c 0
 220.5 400 210.5 395 200.5 401 c 0
 190.5 407 178.5 412 161.5 412 c 0
 148.5 412 141.5 401 136.5 384 c 0
 121.5 335 118.5 328 125.5 292 c 0
 133.5 249 153.5 225 162.5 175 c 0
 163.5 166 168.5 160 179.5 160 c 2
 185.5 160 l 2
 195.5 160 201.5 165 205.5 174 c 2
 317.5 432 l 2
 320.5 440 322.5 447 313.5 454 c 0
 288.5 473 278.5 498 277.5 531 c 0
 276.5 568 287.5 598 314.5 628 c 0
 333.5 651 352.5 651 361.5 628 c 0
 363.5 620 378.5 600 398.5 588 c 0
 432.5 569 455.5 539 457.5 503 c 0
 460.5 465 450.5 441 427.5 412 c 0
 416.5 397 398.5 379 387.5 392 c 0
 380.5 400 375.5 406 367.5 412 c 0
 361.5 416 351.5 423 345.5 408 c 2
 246.5 174 l 2
 242.5 163 244.5 160 256.5 160 c 2
 376.5 160 l 2
 426.5 160 472.5 181 491.5 227 c 0
EndSplineSet
EndChar
StartChar: uniFB2C
Encoding: 352 64300 191
Width: 716
Flags: W
Validated: 33
HStem: 0 160<167.75 198.851 246.817 459.826> 248 74<365.707 438.293> 630 75<607.995 680.005>
VStem: 364 76<249.888 320.112> 606 76<631.995 703.013>
Fore
644 705 m 0
 665 705 682 688 682 668 c 0
 682 647 665 630 644 630 c 0
 623 630 606 647 606 668 c 0
 606 688 623 705 644 705 c 0
492 227 m 0
 530 319 584 399 584 399 c 2
 588 406 590 414 582 420 c 0
 564 434 517 460 506 506 c 0
 494 555 507 591 539 628 c 0
 558 651 577 651 586 628 c 0
 589 620 604 600 624 588 c 0
 657 569 681 539 683 503 c 0
 685 465 676 441 653 412 c 0
 641 397 635 393 630 394 c 0
 626 395 622 400 616 390 c 0
 580 341 550 265 520 149 c 0
 504 88 490 0 377 0 c 2
 114 0 l 2
 104 0 99 5 99 15 c 0
 99 37 98 79 95 108 c 0
 86 208 80 196 79 268 c 0
 80 308 95 353 107 392 c 0
 113 410 110 423 100 426 c 0
 82 433 68 443 57 455 c 0
 47 466 39 482 36 499 c 0
 32 518 33 537 35 552 c 0
 38 575 48 604 55 615 c 0
 76 650 90 655 108 625 c 0
 116 611 132 597 156 591 c 0
 192 581 213 558 225 531 c 0
 235 510 237 472 230 440 c 0
 221 400 211 395 201 401 c 0
 191 407 179 412 162 412 c 0
 149 412 142 401 137 384 c 0
 122 335 119 328 126 292 c 0
 134 249 154 225 163 175 c 0
 164 166 169 160 180 160 c 2
 186 160 l 2
 196 160 202 165 206 174 c 2
 318 432 l 2
 321 440 323 447 314 454 c 0
 289 473 279 498 278 531 c 0
 277 568 288 598 315 628 c 0
 334 651 353 651 362 628 c 0
 364 620 379 600 399 588 c 0
 433 569 456 539 458 503 c 0
 461 465 451 441 428 412 c 0
 417 397 399 379 388 392 c 0
 381 400 376 406 368 412 c 0
 362 416 352 423 346 408 c 2
 247 174 l 2
 243 163 245 160 257 160 c 2
 377 160 l 2
 427 160 473 181 492 227 c 0
402 322 m 0
 423 322 440 306 440 285 c 0
 440 264 423 248 402 248 c 0
 381 248 364 264 364 285 c 0
 364 306 381 322 402 322 c 0
EndSplineSet
EndChar
StartChar: uniFB2D
Encoding: 353 64301 192
Width: 716
Flags: W
Validated: 33
HStem: 0 160<167.75 198.851 246.817 459.826> 248 74<365.707 438.293> 630 75<136.987 208.005>
VStem: 135 75<631.995 703.013> 364 76<249.888 320.112>
Fore
172 705 m 0
 193 705 210 688 210 668 c 0
 210 647 193 630 172 630 c 0
 152 630 135 647 135 668 c 0
 135 688 152 705 172 705 c 0
492 227 m 0
 530 319 584 399 584 399 c 2
 588 406 590 414 582 420 c 0
 564 434 517 460 506 506 c 0
 494 555 507 591 539 628 c 0
 558 651 577 651 586 628 c 0
 589 620 604 600 624 588 c 0
 657 569 681 539 683 503 c 0
 685 465 676 441 653 412 c 0
 641 397 635 393 630 394 c 0
 626 395 622 400 616 390 c 0
 580 341 550 265 520 149 c 0
 504 88 490 0 377 0 c 2
 114 0 l 2
 104 0 99 5 99 15 c 0
 99 37 98 79 95 108 c 0
 86 208 80 196 79 268 c 0
 80 308 95 353 107 392 c 0
 113 410 110 423 100 426 c 0
 82 433 68 443 57 455 c 0
 47 466 39 482 36 499 c 0
 32 518 33 537 35 552 c 0
 38 575 48 604 55 615 c 0
 76 650 90 655 108 625 c 0
 116 611 132 597 156 591 c 0
 192 581 213 558 225 531 c 0
 235 510 237 472 230 440 c 0
 221 400 211 395 201 401 c 0
 191 407 179 412 162 412 c 0
 149 412 142 401 137 384 c 0
 122 335 119 328 126 292 c 0
 134 249 154 225 163 175 c 0
 164 166 169 160 180 160 c 2
 186 160 l 2
 196 160 202 165 206 174 c 2
 318 432 l 2
 321 440 323 447 314 454 c 0
 289 473 279 498 278 531 c 0
 277 568 288 598 315 628 c 0
 334 651 353 651 362 628 c 0
 364 620 379 600 399 588 c 0
 433 569 456 539 458 503 c 0
 461 465 451 441 428 412 c 0
 417 397 399 379 388 392 c 0
 381 400 376 406 368 412 c 0
 362 416 352 423 346 408 c 2
 247 174 l 2
 243 163 245 160 257 160 c 2
 377 160 l 2
 427 160 473 181 492 227 c 0
402 322 m 0
 423 322 440 306 440 285 c 0
 440 264 423 248 402 248 c 0
 381 248 364 264 364 285 c 0
 364 306 381 322 402 322 c 0
EndSplineSet
EndChar
StartChar: uniFB2E
Encoding: 354 64302 193
Width: 593
Flags: W
Validated: 33
HStem: -110 55<178.027 397.973> 0 21G<61 165.5>
VStem: 42 506<176 502 176 176>
Fore
173 -70 m 2
 173 -62 180 -55 188 -55 c 2
 388 -55 l 2
 396 -55 403 -62 403 -70 c 2
 403 -95 l 2
 403 -103 396 -110 388 -110 c 2
 188 -110 l 2
 180 -110 173 -103 173 -95 c 2
 173 -70 l 2
145 628 m 0
 144 615 144 599 149 584 c 0
 171 520 203 484 257 440 c 2
 357 355 l 1
 357 355 368 348 374 359 c 2
 374 359 398 404 404 416 c 0
 409 426 406 437 398 443 c 0
 369 468 355 483 348 521 c 0
 344 545 352 580 358 592 c 0
 369 615 382 627 396 636 c 0
 428 655 426 640 441 609 c 0
 446 598 456 590 467 583 c 0
 491 568 536 545 548 502 c 0
 563 449 546 416 529 380 c 0
 522 364 506 351 499 362 c 0
 489 378 475 391 458 401 c 0
 449 406 437 404 432 394 c 2
 402 338 l 1
 402 338 397 326 406 319 c 0
 488 252 538 207 544 124 c 0
 547 82 530 35 499 10 c 0
 463 -19 462 21 459 50 c 0
 454 102 345 185 259 257 c 0
 225 286 183 324 163 340 c 1
 163 340 153 346 146 338 c 0
 137 328 118 307 120 282 c 0
 126 232 190 203 229 148 c 0
 246 124 257 59 218 24 c 0
 198 6 179 0 152 0 c 2
 63 0 l 2
 59 0 42 -1 56 15 c 0
 60 20 64 28 68 34 c 0
 74 44 74 57 66 69 c 0
 53 89 37 118 42 176 c 0
 49 257 63 288 124 358 c 1
 124 358 129 368 122 377 c 0
 89 415 62 440 56 474 c 0
 48 518 51 551 70 589 c 0
 77 604 97 627 113 637 c 0
 132 648 146 646 145 628 c 0
EndSplineSet
EndChar
StartChar: uniFB2F
Encoding: 355 64303 194
Width: 593
Flags: W
Validated: 33
HStem: -110.31 55<179.917 271.854 307.919 399.862> -0.30957 21G<60.8896 165.39>
VStem: 251.89 76<-233.323 -181.22> 271.89 36<-163.772 -110.965>
Fore
318 -173 m 1xd0
 317.89 -173.31 l 1
 323.89 -179.31 327.89 -188.31 327.89 -198.31 c 0
 327.89 -218.31 310.89 -235.31 289.89 -235.31 c 0
 268.89 -235.31 251.89 -218.31 251.89 -198.31 c 0xe0
 251.89 -188.31 255.89 -179.31 261.89 -172.31 c 0
 272.89 -160.31 271.89 -147.31 271.89 -138.31 c 0
 271.89 -117.31 259.89 -110.31 233.89 -110.31 c 2
 189.89 -110.31 l 2
 181.89 -110.31 174.89 -103.31 174.89 -95.3096 c 2
 174.89 -70.3096 l 2
 174.89 -62.3096 181.89 -55.3096 189.89 -55.3096 c 2
 389.89 -55.3096 l 2
 397.89 -55.3096 404.89 -62.3096 404.89 -70.3096 c 2
 404.89 -95.3096 l 2
 404.89 -103.31 397.89 -110.31 389.89 -110.31 c 2
 345.89 -110.31 l 2
 317.89 -110.31 307.89 -117.31 307.89 -138.31 c 0
 307.89 -147.31 306.89 -160.31 318 -173 c 1xd0
144.89 627.69 m 0
 143.89 614.69 143.89 598.69 148.89 583.69 c 0
 170.89 519.69 202.89 483.69 256.89 439.69 c 2
 356.89 354.69 l 1
 356.89 354.69 367.89 347.69 373.89 358.69 c 2
 373.89 358.69 397.89 403.69 403.89 415.69 c 0
 408.89 425.69 405.89 436.69 397.89 442.69 c 0
 368.89 467.69 354.89 482.69 347.89 520.69 c 0
 343.89 544.69 351.89 579.69 357.89 591.69 c 0
 368.89 614.69 381.89 626.69 395.89 635.69 c 0
 427.89 654.69 425.89 639.69 440.89 608.69 c 0
 445.89 597.69 455.89 589.69 466.89 582.69 c 0
 490.89 567.69 535.89 544.69 547.89 501.69 c 0
 562.89 448.69 545.89 415.69 528.89 379.69 c 0
 521.89 363.69 505.89 350.69 498.89 361.69 c 0
 488.89 377.69 474.89 390.69 457.89 400.69 c 0
 448.89 405.69 436.89 403.69 431.89 393.69 c 2
 401.89 337.69 l 1
 401.89 337.69 396.89 325.69 405.89 318.69 c 0
 487.89 251.69 537.89 206.69 543.89 123.69 c 0
 546.89 81.6904 529.89 34.6904 498.89 9.69043 c 0
 462.89 -19.3096 461.89 20.6904 458.89 49.6904 c 0
 453.89 101.69 344.89 184.69 258.89 256.69 c 0
 224.89 285.69 182.89 323.69 162.89 339.69 c 1
 162.89 339.69 152.89 345.69 145.89 337.69 c 0
 136.89 327.69 117.89 306.69 119.89 281.69 c 0
 125.89 231.69 189.89 202.69 228.89 147.69 c 0
 245.89 123.69 256.89 58.6904 217.89 23.6904 c 0
 197.89 5.69043 178.89 -0.30957 151.89 -0.30957 c 2
 62.8896 -0.30957 l 2
 58.8896 -0.30957 41.8896 -1.30957 55.8896 14.6904 c 0
 59.8896 19.6904 63.8896 27.6904 67.8896 33.6904 c 0
 73.8896 43.6904 73.8896 56.6904 65.8896 68.6904 c 0
 52.8896 88.6904 36.8896 117.69 41.8896 175.69 c 0
 48.8896 256.69 62.8896 287.69 123.89 357.69 c 1
 123.89 357.69 128.89 367.69 121.89 376.69 c 0
 88.8896 414.69 61.8896 439.69 55.8896 473.69 c 0
 47.8896 517.69 50.8896 550.69 69.8896 588.69 c 0
 76.8896 603.69 96.8896 626.69 112.89 636.69 c 0
 131.89 647.69 145.89 645.69 144.89 627.69 c 0
EndSplineSet
EndChar
StartChar: uniFB30
Encoding: 356 64304 195
Width: 593
Flags: W
Validated: 33
HStem: 0.5 21G<61 165.5> 98.5 75.5<269.995 306 306 342.005>
VStem: 42 506<176.5 502.5 176.5 212.505> 268 76<100.495 172.196>
Fore
306 174 m 1xd0
 306 174.5 l 1
 327 174.5 344 157.5 344 136.5 c 0
 344 115.5 327 98.5 306 98.5 c 0
 285 98.5 268 115.5 268 136.5 c 0
 268 157.5 285 174.5 306 174 c 1xd0
145 628.5 m 0
 144 615.5 144 599.5 149 584.5 c 0
 171 520.5 203 484.5 257 440.5 c 2
 357 355.5 l 1
 357 355.5 368 348.5 374 359.5 c 2
 374 359.5 398 404.5 404 416.5 c 0
 409 426.5 406 437.5 398 443.5 c 0
 369 468.5 355 483.5 348 521.5 c 0
 344 545.5 352 580.5 358 592.5 c 0
 369 615.5 382 627.5 396 636.5 c 0
 428 655.5 426 640.5 441 609.5 c 0
 446 598.5 456 590.5 467 583.5 c 0
 491 568.5 536 545.5 548 502.5 c 0
 563 449.5 546 416.5 529 380.5 c 0
 522 364.5 506 351.5 499 362.5 c 0
 489 378.5 475 391.5 458 401.5 c 0
 449 406.5 437 404.5 432 394.5 c 2
 402 338.5 l 1
 402 338.5 397 326.5 406 319.5 c 0
 488 252.5 538 207.5 544 124.5 c 0
 547 82.5 530 35.5 499 10.5 c 0
 463 -18.5 462 21.5 459 50.5 c 0
 454 102.5 345 185.5 259 257.5 c 0
 225 286.5 183 324.5 163 340.5 c 1
 163 340.5 153 346.5 146 338.5 c 0
 137 328.5 118 307.5 120 282.5 c 0
 126 232.5 190 203.5 229 148.5 c 0
 246 124.5 257 59.5 218 24.5 c 0
 198 6.5 179 0.5 152 0.5 c 2
 63 0.5 l 2
 59 0.5 42 -0.5 56 15.5 c 0
 60 20.5 64 28.5 68 34.5 c 0
 74 44.5 74 57.5 66 69.5 c 0
 53 89.5 37 118.5 42 176.5 c 0xe0
 49 257.5 63 288.5 124 358.5 c 1
 124 358.5 129 368.5 122 377.5 c 0
 89 415.5 62 440.5 56 474.5 c 0
 48 518.5 51 551.5 70 589.5 c 0
 77 604.5 97 627.5 113 637.5 c 0
 132 648.5 146 646.5 145 628.5 c 0
EndSplineSet
EndChar
StartChar: uniFB31
Encoding: 357 64305 196
Width: 498
Flags: W
Validated: 33
HStem: 0.5 160<84.6846 416.094> 262.5 75.5<203.995 240 240 276.005>
VStem: 23 470<22.5 138.5 22.5 58.5047> 202 76<264.495 336.196> 419 27<160.51 265.709>
Fore
240 338 m 1xd0
 240 338.5 l 1
 261 338.5 278 321.5 278 300.5 c 0
 278 279.5 261 262.5 240 262.5 c 0
 219 262.5 202 279.5 202 300.5 c 0
 202 321.5 219 338.5 240 338 c 1xd0
477 160.5 m 2
 493 160.5 499 151.5 493 138.5 c 2
 445 21.5 l 2
 440 7.5 430 0.5 414 0.5 c 2
 40 0.5 l 2
 24 0.5 18 9.5 23 22.5 c 2xe0
 71 139.5 l 2
 77 153.5 86 160.5 102 160.5 c 2
 403 160.5 l 2
 412 160.5 419 161.5 419 176.5 c 0
 421 241.5 410 362.5 369 396.5 c 0
 290 462.5 184 429.5 122 446.5 c 0
 65 462.5 58 496.5 53 518.5 c 0
 44 559.5 52 597.5 67 628.5 c 0
 78 650.5 89 649.5 98 631.5 c 0
 115 596.5 150 602.5 188 600.5 c 0
 239 597.5 336 601.5 388 538.5 c 0
 447 467.5 451 323.5 446 174.5 c 1xc8
 446 174.5 447 160.5 461 160.5 c 2
 477 160.5 l 2
EndSplineSet
EndChar
StartChar: uniFB32
Encoding: 358 64306 197
Width: 339
Flags: W
Validated: 33
HStem: 0.5 21G<20 164> 262.5 75.5<113.995 150 150 186.005>
VStem: 11 303<22.5 163.5 -8.5 95.7706> 112 76<264.495 336.196> 228 34<270.25 396.87>
Fore
150 338 m 1xd0
 150 338.5 l 1
 171 338.5 188 321.5 188 300.5 c 0
 188 279.5 171 262.5 150 262.5 c 0
 129 262.5 112 279.5 112 300.5 c 0
 112 321.5 129 338.5 150 338 c 1xd0
187 21.5 m 2
 181 7.5 172 0.5 156 0.5 c 2
 28 0.5 l 2
 12 0.5 6 9.5 11 22.5 c 2xe0
 59 139.5 l 2
 65 153.5 74 160.5 90 160.5 c 2
 196 160.5 l 2
 217 160.5 228 172.5 228 194.5 c 0
 228 280.5 229 322.5 236 400.5 c 1
 236 400.5 238 422.5 215 425.5 c 0
 176 431.5 140 436.5 113 461.5 c 0
 102 472.5 91 488.5 86 505.5 c 0
 80 523.5 80 543.5 80 558.5 c 0
 82 581.5 90 607.5 97 618.5 c 0
 118 650.5 129 653.5 148 624.5 c 0
 160 604.5 188 598.5 201 594.5 c 0
 242 584.5 268 558.5 274 526.5 c 0
 280 493.5 260 454.5 262 408.5 c 0xc8
 266 321.5 309 208.5 314 163.5 c 0xe0
 320 110.5 318 80.5 297 26.5 c 0
 278 -22.5 262 7.5 258 28.5 c 0
 253 58.5 246 100.5 240 120.5 c 0
 236 134.5 229 128.5 224 116.5 c 2
 187 21.5 l 2
EndSplineSet
EndChar
StartChar: uniFB33
Encoding: 359 64307 198
Width: 523
Flags: W
Validated: 33
HStem: 262.5 75.5<251.995 288 288 324.005> 440.5 160<114.214 389.045>
VStem: 34 451<464.901 514.5 514.5 572.625> 250 76<264.495 336.196> 385 76<80.034 226 226 343.481>
Fore
288 338 m 1xd0
 288 338.5 l 1
 309 338.5 326 321.5 326 300.5 c 0
 326 279.5 309 262.5 288 262.5 c 0
 267 262.5 250 279.5 250 300.5 c 0
 250 321.5 267 338.5 288 338 c 1xd0
173 600.5 m 2
 417 600.5 l 2
 477 600.5 484 563.5 485 523.5 c 0xe0
 487 486.5 481 448.5 436 441.5 c 0
 422 439.5 423 426.5 423 426.5 c 1
 430 377.5 455 210.5 461 155.5 c 0
 464 133.5 465 77.5 437 20.5 c 0
 420 -16.5 384 -9.5 385 25.5 c 2xc8
 392 426.5 l 2
 391 440.5 384 440.5 376 440.5 c 2
 108 440.5 l 2
 63 440.5 38 492.5 34 514.5 c 0xe0
 27 548.5 36 597.5 52 628.5 c 0
 62 650.5 74 649.5 82 631.5 c 0
 100 596.5 135 600.5 173 600.5 c 2
EndSplineSet
EndChar
StartChar: uniFB34
Encoding: 360 64308 199
Width: 561
Flags: W
Validated: 33
HStem: 262.5 75.5<237.995 274 274 310.005> 440.5 160<122.934 424.262>
VStem: 42.5 478<464.901 514.5 514.5 572.625> 236 76<264.495 336.196> 432.5 76<80.034 226 226 298.38>
Fore
274 338 m 1xd0
 274 338.5 l 1
 295 338.5 312 321.5 312 300.5 c 0
 312 279.5 295 262.5 274 262.5 c 0
 253 262.5 236 279.5 236 300.5 c 0
 236 321.5 253 338.5 274 338 c 1xd0
182 600.5 m 2
 452.5 600.5 l 2
 512.5 600.5 519.5 563.5 520.5 523.5 c 0xe0
 521.5 486.5 515.5 448.5 470.5 441.5 c 0
 457.5 439.5 458.5 426.5 458.5 426.5 c 1
 465.5 377.5 502.5 210.5 508.5 155.5 c 0
 511.5 133.5 512.5 77.5 484.5 20.5 c 0
 467.5 -16.5 431.5 -9.5 432.5 25.5 c 2xc8
 426.5 426.5 l 2
 426.5 440.5 419.5 440.5 411.5 440.5 c 2
 117.5 440.5 l 2
 71.5 440.5 46.5 492.5 42.5 514.5 c 0xe0
 35.5 548.5 45.5 597.5 60.5 628.5 c 0
 71.5 650.5 82.5 649.5 91.5 631.5 c 0
 108.5 596.5 143.5 600.5 182 600.5 c 2
47.5 27.5 m 0
 55.5 113.5 49.5 174.5 58.5 239.5 c 0
 63.5 274.5 79.5 304.5 98.5 325.5 c 0
 125.5 355.5 139.5 329.5 134.5 309.5 c 0
 128.5 285.5 131.5 259.5 133.5 229.5 c 0
 135.5 162.5 133.5 102.5 95.5 26.5 c 0
 73.5 -17.5 44.5 -13.5 47.5 27.5 c 0
EndSplineSet
EndChar
StartChar: afii57723
Encoding: 361 64309 200
Width: 266
Flags: W
Validated: 33
HStem: 262.5 75.5<41.9953 78 78 114.005>
VStem: 32 189<504.004 523.5 558.5 571.482 523.5 558.5 558.5 558.5> 40 76<264.495 336.196> 155 65<80.034 155.5 155.5 348.275>
Fore
78 338 m 1xa0
 78 338.5 l 1
 99 338.5 116 321.5 116 300.5 c 0
 116 279.5 99 262.5 78 262.5 c 0
 57 262.5 40 279.5 40 300.5 c 0
 40 321.5 57 338.5 78 338 c 1xa0
221 523.5 m 0xc0
 228 485.5 220 448.5 196 418.5 c 0
 192 412.5 185 401.5 187 390.5 c 0
 198 322.5 214 210.5 220 155.5 c 0
 223 133.5 224 77.5 196 20.5 c 0
 179 -16.5 143 -9.5 144 25.5 c 2
 144 25.5 153 268.5 155 392.5 c 0x90
 156 406.5 147 419.5 134 423.5 c 0
 118 427.5 91 435.5 75 446.5 c 0
 58 458.5 44 476.5 38 496.5 c 0
 32 515.5 31 543.5 32 558.5 c 0
 33 581.5 41 607.5 48 618.5 c 0
 68 650.5 80 653.5 98 624.5 c 0
 111 604.5 138 598.5 152 594.5 c 0
 193 584.5 215 554.5 221 523.5 c 0xc0
EndSplineSet
EndChar
StartChar: uniFB36
Encoding: 362 64310 201
Width: 291
Flags: W
Validated: 33
HStem: 262.5 75.5<15.9953 52 52 88.0047>
VStem: 14 242<300.5 465.5 300.5 336.505> 14 76<264.495 336.196>
Fore
52 338 m 1xc0
 52 338.5 l 1
 73 338.5 90 321.5 90 300.5 c 0xa0
 90 279.5 73 262.5 52 262.5 c 0
 31 262.5 14 279.5 14 300.5 c 0
 14 321.5 31 338.5 52 338 c 1xc0
99 292.5 m 0
 106 343.5 116 365.5 126 406.5 c 0
 131 424.5 125 436.5 113 439.5 c 0
 94 444.5 77 452.5 64 463.5 c 0
 51 473.5 42 488.5 36 505.5 c 0
 31 523.5 30 543.5 31 558.5 c 0
 32 581.5 41 607.5 48 618.5 c 0
 68 650.5 77 654.5 104 623.5 c 0
 114 610.5 145 602.5 162 600.5 c 0
 203 595.5 228 578.5 244 555.5 c 0
 257 536.5 261 498.5 256 465.5 c 0xc0
 250 424.5 239 418.5 228 423.5 c 0
 216 428.5 202 432.5 184 430.5 c 0
 169 430.5 161 418.5 158 400.5 c 0
 150 341.5 166 320.5 178 270.5 c 0
 190 222.5 195 191.5 185 118.5 c 0
 180 82.5 174 59.5 163 26.5 c 0
 150 -11.5 124 -26.5 124 34.5 c 0
 124 72.5 120 106.5 115 136.5 c 0
 104 196.5 91 231.5 99 292.5 c 0
EndSplineSet
EndChar
StartChar: uniFB37
Encoding: 363 64311 202
Width: 559
Flags: W
Validated: 33
HStem: 262.5 75.5<239.995 276 276 312.005> 440.5 160<158 422.762>
VStem: 41 478<481.59 572.625> 55 78<100.654 161.869 161.869 244.916 244.916 380.471> 238 76<264.495 336.196> 431 76<80.034 226 226 298.38>
Fore
276 338 m 1xc8
 276 338.5 l 1
 297 338.5 314 321.5 314 300.5 c 0
 314 279.5 297 262.5 276 262.5 c 0
 255 262.5 238 279.5 238 300.5 c 0
 238 321.5 255 338.5 276 338 c 1xc8
158 440.5 m 1
 143 427.5 132 402.5 129 383.5 c 0
 120 330.5 132 243.5 133 220.5 c 0
 136 153.5 141 102.5 103 26.5 c 0
 81 -17.5 52 -13.5 55 27.5 c 0xd4
 63 113.5 54 193.5 58 259.5 c 0
 61 306.5 65 371.5 113 440.5 c 1
 47 451.5 45 492.5 41 514.5 c 0
 34 548.5 44 597.5 59 628.5 c 0
 70 650.5 81 649.5 90 631.5 c 0
 107 596.5 142 600.5 180 600.5 c 2
 451 600.5 l 2
 511 600.5 518 563.5 519 523.5 c 0xe0
 520 486.5 514 448.5 469 441.5 c 0
 456 439.5 457 426.5 457 426.5 c 1
 464 377.5 501 210.5 507 155.5 c 0
 510 133.5 511 77.5 483 20.5 c 0
 466 -16.5 430 -9.5 431 25.5 c 2xc4
 425 426.5 l 2
 425 440.5 418 440.5 410 440.5 c 2
 158 440.5 l 1
EndSplineSet
EndChar
StartChar: uniFB38
Encoding: 364 64312 203
Width: 576
Flags: W
Validated: 33
HStem: 0 160<135.003 520.847> 238 76<321.995 394.005>
VStem: 73 49<241.264 377.934> 256 30<271.618 406.318> 320 76<239.995 312.005>
Fore
358 314 m 0
 379 314 396 297 396 276 c 0
 396 255 379 238 358 238 c 0
 337 238 320 255 320 276 c 0
 320 297 337 314 358 314 c 0
102 440 m 0
 85 445 79 448 66 461 c 0
 54 472 44 488 38 505 c 0
 33 523 32 543 33 558 c 0
 34 581 43 607 50 618 c 0
 70 650 81 653 100 624 c 0
 112 604 140 598 154 594 c 0
 181 587 203 573 215 554 c 0
 229 535 233 498 228 465 c 0
 222 424 206 407 195 412 c 0
 183 416 180 420 164 421 c 0
 154 422 147 415 144 408 c 0
 128 374 122 346 122 310 c 0
 123 262 126 233 135 180 c 1
 135 180 139 160 160 160 c 2
 498 160 l 1
 498 160 518 161 521 181 c 0
 530 263 521 328 476 382 c 0
 444 420 388 452 349 430 c 0
 319 413 298 354 286 284 c 0
 284 270 278 263 268 265 c 0
 260 266 254 274 256 287 c 0
 267 399 291 506 323 596 c 1
 323 596 329 616 351 614 c 0
 446 605 510 529 544 383 c 0
 572 263 551 124 526 24 c 1
 526 24 522 0 496 0 c 2
 106 0 l 1
 106 0 84 1 83 20 c 0
 77 117 77 157 73 250 c 0
 71 299 93 369 113 412 c 0
 118 421 119 435 102 440 c 0
EndSplineSet
EndChar
StartChar: uniFB39
Encoding: 365 64313 204
Width: 266
Flags: W
Validated: 33
HStem: 332.5 75.5<45.9953 82 82 118.005>
VStem: 30 199<509.538 539.577 419.5 579.5 579.5 579.5> 44 76<334.495 406.196>
Fore
82 408 m 1xa0
 82 408.5 l 1
 103 408.5 120 391.5 120 370.5 c 0
 120 349.5 103 332.5 82 332.5 c 0
 61 332.5 44 349.5 44 370.5 c 0
 44 391.5 61 408.5 82 408 c 1xa0
229 419.5 m 0xc0
 223 390.5 206 357.5 182 324.5 c 0
 173 312.5 161 295.5 150 304.5 c 0
 137 314.5 146 335.5 151 344.5 c 0
 166 371.5 178 390.5 162 415.5 c 0
 148 436.5 127 433.5 100 445.5 c 0
 76 456.5 53 473.5 38 508.5 c 0
 29 530.5 28 562.5 30 579.5 c 0
 33 604.5 39 619.5 49 631.5 c 0
 69 654.5 79 646.5 91 626.5 c 0
 104 606.5 118 598.5 145 592.5 c 0
 170 587.5 200 571.5 216 541.5 c 0
 239 500.5 237 458.5 229 419.5 c 0xc0
EndSplineSet
EndChar
StartChar: uniFB3A
Encoding: 366 64314 205
Width: 496
Flags: W
Validated: 33
HStem: 262.5 75.5<245.995 282 282 318.005> 440.5 160<114.214 361.762>
VStem: 34 424<464.901 514.5 514.5 572.625> 244 76<264.495 336.196> 356 76<-199.966 86 86 288.07>
Fore
282 338 m 1xd0
 282 338.5 l 1
 303 338.5 320 321.5 320 300.5 c 0
 320 279.5 303 262.5 282 262.5 c 0
 261 262.5 244 279.5 244 300.5 c 0
 244 321.5 261 338.5 282 338 c 1xd0
173 600.5 m 2
 390 600.5 l 2
 450 600.5 457 563.5 458 523.5 c 0xe0
 459 486.5 453 448.5 408 441.5 c 0
 395 439.5 396 426.5 396 426.5 c 1
 403 377.5 425 -69.5 432 -124.5 c 0
 434 -146.5 436 -202.5 408 -259.5 c 0
 390 -296.5 355 -289.5 356 -254.5 c 2xc8
 364 426.5 l 2
 364 440.5 357 440.5 349 440.5 c 2
 108 440.5 l 2
 63 440.5 38 492.5 34 514.5 c 0xe0
 27 548.5 36 597.5 52 628.5 c 0
 62 650.5 74 649.5 82 631.5 c 0
 100 596.5 135 600.5 173 600.5 c 2
EndSplineSet
EndChar
StartChar: uniFB3B
Encoding: 367 64315 206
Width: 501
Flags: W
Validated: 33
HStem: 0.5 160<80.9988 397.735> 262.5 75.5<221.995 258 258 294.005>
VStem: 20.2305 459<22.5 185.5 22.5 31.5> 220 76<264.495 336.196> 451.23 27.7695<161.611 176.5 176.5 185.5 185.5 259.487>
Fore
258 338 m 1xd0
 258 338.5 l 1
 279 338.5 296 321.5 296 300.5 c 0
 296 279.5 279 262.5 258 262.5 c 0
 237 262.5 220 279.5 220 300.5 c 0
 220 321.5 237 338.5 258 338 c 1xd0
479 185.5 m 1xc8
 479.23 185.5 l 1
 478.23 162.5 470.23 144.5 470.23 144.5 c 1
 412.23 21.5 l 2
 405.23 8.5 397.23 0.5 381.23 0.5 c 2
 36.2305 0.5 l 2
 20.2305 0.5 14.2305 9.5 20.2305 22.5 c 2xe0
 68.2305 139.5 l 2
 73.2305 153.5 82.2305 160.5 98.2305 160.5 c 2
 435.23 160.5 l 2
 444.23 160.5 451.23 161.5 451.23 176.5 c 0
 453.23 242.5 444.23 292.5 427.23 333.5 c 0
 411.23 372.5 380.23 404.5 346.23 421.5 c 0
 279.23 454.5 178.23 432.5 129.23 446.5 c 0
 72.2305 462.5 65.2305 496.5 60.2305 518.5 c 0
 51.2305 559.5 59.2305 597.5 74.2305 628.5 c 0
 85.2305 650.5 96.2305 649.5 105.23 631.5 c 0
 122.23 596.5 157.23 602.5 196.23 600.5 c 0
 245.23 596.5 365.23 604.5 421.23 532.5 c 0
 477.23 460.5 483.23 328.5 479 185.5 c 1xc8
EndSplineSet
EndChar
StartChar: uniFB3C
Encoding: 368 64316 207
Width: 510
Flags: W
Validated: 33
HStem: -4.5 21G<238 267> 288.5 75.5<205.995 242 242 278.005> 440.5 160<78.5625 418.268>
VStem: 33 442<457.2 541.52> 33 44<542.68 713.837> 201 94<2.15283 100.615> 201 83<76.5 101.5 101.5 129.269 290.495 362.196> 425 50<315.32 433.207>
Fore
242 364 m 1xe0
 242 364.5 l 1
 263 364.5 280 347.5 280 326.5 c 0
 280 305.5 263 288.5 242 288.5 c 0
 221 288.5 204 305.5 204 326.5 c 0
 204 347.5 221 364.5 242 364 c 1xe0
41 874.5 m 0
 43 890.5 46 902.5 66 899.5 c 0
 117 891.5 142 833.5 142 812.5 c 0
 142 787.5 99 756.5 87 737.5 c 0
 75 718.5 77 698.5 77 652.5 c 0
 77 620.5 72 600.5 116 600.5 c 2
 386 600.5 l 2
 430 600.5 463 586.5 470 544.5 c 0
 481 480.5 475 443.5 475 386.5 c 0
 475 319.5 409 268.5 345 209.5 c 0
 327 193.5 294 155.5 284 101.5 c 0xeb
 280 82.5 295 71.5 295 48.5 c 0
 295 20.5 282 -4.5 252 -4.5 c 0
 224 -4.5 204 17.5 201 45.5 c 0
 196 90.5 241 156.5 262 175.5 c 0
 399 297.5 427 320.5 425 374.5 c 0xe5
 423 418.5 416 440.5 359 440.5 c 2
 116 440.5 l 2
 58 440.5 33 472.5 33 516.5 c 0xf0
 33 622.5 30 687.5 41 719.5 c 0
 55 760.5 79 768.5 78 784.5 c 0
 77 800.5 48 814.5 42 826.5 c 0
 38 833.5 39 858.5 41 874.5 c 0
EndSplineSet
EndChar
StartChar: uniFB3D
Encoding: 369 64317 208
Width: 542
Flags: W
Validated: 33
HStem: 0.5 160<116.506 454.692> 262.5 75.5<247.995 284 284 320.005> 440.5 160<153.5 434.375>
VStem: 52.5 446<0.615967 160.5 460.748 514.5 514.5 548.431> 53.5 63<160.507 371.341> 246 76<264.495 336.196> 465.5 33<160.505 411.25>
Fore
284 338 m 1xe4
 284 338.5 l 1
 305 338.5 322 321.5 322 300.5 c 0
 322 279.5 305 262.5 284 262.5 c 0
 263 262.5 246 279.5 246 300.5 c 0
 246 321.5 263 338.5 284 338 c 1xe4
184 600.5 m 2
 378.5 600.5 l 2
 466.5 600.5 498.5 522.5 498.5 440.5 c 2xea
 498.5 25.5 l 2
 498.5 10.5 489.5 0.5 468.5 0.5 c 2
 78.5 0.5 l 2
 62.5 0.5 52.5 6.5 52.5 26.5 c 2xf0
 53.5 240.5 l 2xe8
 53.5 341.5 92.5 405.5 118.5 440.5 c 1
 65.5 440.5 48.5 492.5 44.5 514.5 c 0
 38.5 548.5 47.5 597.5 62.5 628.5 c 0
 73.5 650.5 84.5 649.5 93.5 631.5 c 0
 110.5 596.5 145.5 600.5 184 600.5 c 2
153.5 440.5 m 1
 138.5 411.5 116.5 366.5 116.5 297.5 c 2
 116.5 185.5 l 2
 116.5 169.5 124.5 160.5 142.5 160.5 c 2
 438.5 160.5 l 2
 453.5 160.5 465.5 167.5 465.5 189.5 c 2
 465.5 344.5 l 2
 465.5 394.5 427.5 440.5 369.5 440.5 c 2
 153.5 440.5 l 1
EndSplineSet
EndChar
StartChar: uniFB3E
Encoding: 370 64318 209
Width: 581
Flags: W
Validated: 33
HStem: 1 160<206.152 493.294> 262.5 75.5<285.995 322 322 358.005>
VStem: 41.79 526<186 479 479 515.005> 284 76<264.495 336.196> 535.79 32<164.428 268.129>
Fore
322 338 m 1xd0
 322 338.5 l 1
 343 338.5 360 321.5 360 300.5 c 0
 360 279.5 343 262.5 322 262.5 c 0
 301 262.5 284 279.5 284 300.5 c 0
 284 321.5 301 338.5 322 338 c 1xd0
101 378.5 m 1
 100.79 379 l 1
 71.79 407 44.79 449 41.79 479 c 0
 37.79 515 36.79 542 55.79 583 c 0
 66.79 606 80.79 620 93.79 631 c 0
 110.79 644 125.79 638 131.79 617 c 0
 136.79 600 157.79 589 169.79 584 c 0
 193.79 574 215.79 542 229.79 482 c 0
 231.79 475 238.79 467 247.79 473 c 0
 281.79 497 289.79 561 293.79 602 c 0
 295.79 618 304.79 626 317.79 625 c 0
 403.79 619 450.79 580 483.79 538 c 0
 548.79 457 565.79 327 567.79 186 c 0xe0
 567.79 170 558.79 145 558.79 145 c 1
 507.79 22 l 2
 500.79 9 492.79 1 476.79 1 c 2
 160.79 1 l 2
 144.79 1 138.79 10 144.79 23 c 2
 192.79 140 l 2
 197.79 154 207.79 161 223.79 161 c 2
 519.79 161 l 2
 528.79 161 535.79 168 535.79 177 c 0xc8
 534.79 227 524.79 324 458.79 389 c 0
 399.79 447 342.79 450 301.79 450 c 0
 242.79 450 166.79 408 143.79 355 c 0
 105.79 266 132.79 190 125.79 108 c 0
 123.79 79 117.79 56 108.79 34 c 0
 93.79 -2 68.79 -21 59.79 44 c 0
 53.79 90 50.79 129 58.79 189 c 0
 66.79 247 87.79 305 107.79 345 c 0
 113.79 357 110.79 369 101 378.5 c 1
EndSplineSet
EndChar
StartChar: uniFB3F
Encoding: 371 64319 210
Width: 273
Flags: W
Validated: 33
HStem: 262.5 75.5<25.9953 62 62 98.0047>
VStem: 24 192<300.5 569.43 300.5 437.028> 24 76<264.495 336.196> 111 44<220.192 232.43 232.43 368.958>
Fore
62 338 m 1xc0
 62 338.5 l 1
 83 338.5 100 321.5 100 300.5 c 0xa0
 100 279.5 83 262.5 62 262.5 c 0
 41 262.5 24 279.5 24 300.5 c 0
 24 321.5 41 338.5 62 338 c 1xc0
82 447.5 m 1
 82 447.43 l 1
 63 456.43 46 477.43 39 496.43 c 0
 32 517.43 31 536.43 32 552.43 c 0
 33 574.43 43 607.43 50 618.43 c 0
 70 650.43 81 653.43 100 624.43 c 0xb0
 112 604.43 140 600.43 154 596.43 c 0
 182 590.43 200 585.43 216 569.43 c 0xc0
 251 537.43 238 469.43 207 438.43 c 0
 194 425.43 187 412.43 187 412.43 c 1
 171 377.43 159 354.43 155 322.43 c 0
 150 276.43 159 213.43 168 160.43 c 0
 181 83.4297 198 -85.5703 193 -131.57 c 0
 188 -172.57 172 -212.57 138 -263.57 c 0
 120 -289.57 97 -281.57 99 -255.57 c 0
 105 -190.57 110 -112.57 111 -23.5703 c 0x90
 113 76.4297 102 132.43 105 232.43 c 0
 107 299.43 118 346.43 151 414.43 c 0
 154 420.43 155 428.43 144 430.43 c 0
 123 433.43 105 436.43 82 447.5 c 1
EndSplineSet
EndChar
StartChar: uniFB40
Encoding: 372 64320 211
Width: 347
Flags: W
Validated: 33
HStem: 0.5 160<69.6846 233.719> 262.5 75.5<111.995 148 148 184.005>
VStem: 8 305<22.5 176.5 -30.5 22.5> 110 76<264.495 336.196> 234 36<276.457 336.445 336.445 425.346>
Fore
148 338 m 1xd0
 148 338.5 l 1
 169 338.5 186 321.5 186 300.5 c 0
 186 279.5 169 262.5 148 262.5 c 0
 127 262.5 110 279.5 110 300.5 c 0
 110 321.5 127 338.5 148 338 c 1xd0
217 0.5 m 2
 24 0.5 l 2
 8 0.5 3 9.5 8 22.5 c 2xe0
 56 139.5 l 2
 62 153.5 71 160.5 87 160.5 c 2
 212 160.5 l 2
 230 160.5 235 170.5 234 184.5 c 0
 226 298.5 231 322.5 238 400.5 c 1
 238 400.5 239 422.5 217 425.5 c 0
 177 431.5 146 436.5 120 461.5 c 0
 108 472.5 98 488.5 92 505.5 c 0
 87 523.5 86 543.5 87 558.5 c 0
 88 581.5 97 607.5 104 618.5 c 0
 124 650.5 139 653.5 158 624.5 c 0
 170 604.5 204 598.5 217 594.5 c 0
 258 584.5 285 558.5 292 526.5 c 0
 306 462.5 270 436.5 270 408.5 c 0xc8
 269 335.5 308 272.5 313 176.5 c 0xe0
 316 123.5 318 85.5 297 42.5 c 0
 276 0.5 234 0.5 217 0.5 c 2
EndSplineSet
EndChar
StartChar: uniFB41
Encoding: 373 64321 212
Width: 512
Flags: W
Validated: 33
HStem: 0.5 160<115.922 412.352> 262.5 75.5<237.995 274 274 310.005> 440.5 160<163.5 283.018 283.018 301.296>
VStem: 46.5 441<171.5 185.5 300.5 303.5 186.5 243.5 243.5 243.5> 46.5 52<216.204 243.5 243.5 343.226> 236 76<264.495 336.196> 455.5 32<169.561 315.636>
Fore
274 338 m 1xe4
 274 338.5 l 1
 295 338.5 312 321.5 312 300.5 c 0
 312 279.5 295 262.5 274 262.5 c 0
 253 262.5 236 279.5 236 300.5 c 0
 236 321.5 253 338.5 274 338 c 1xe4
184 600.5 m 2
 184.5 600.5 l 2
 233.5 596.5 376.5 612.5 432.5 540.5 c 0
 489.5 467.5 490.5 330.5 487.5 186.5 c 0
 486.5 169.5 482.5 150.5 475.5 134.5 c 2
 429.5 22.5 l 2
 424.5 10.5 411.5 0.5 394.5 0.5 c 2
 88.5 0.5 l 2
 72.5 0.5 63.5 8.5 63.5 25.5 c 0
 62.5 48.5 61.5 82.5 59.5 108.5 c 0
 50.5 208.5 47.5 171.5 46.5 243.5 c 0xf0
 45.5 303.5 102.5 416.5 126.5 440.5 c 1
 74.5 450.5 53.5 496.5 48.5 518.5 c 0
 39.5 559.5 47.5 597.5 62.5 628.5 c 0
 73.5 650.5 84.5 649.5 93.5 631.5 c 0
 110.5 596.5 145.5 602.5 184 600.5 c 2
163.5 440.5 m 1
 125.5 386.5 96.5 340.5 98.5 269.5 c 0
 100.5 235.5 101.5 223.5 106.5 185.5 c 0
 109.5 162.5 120.5 160.5 134.5 160.5 c 2
 430.5 160.5 l 2
 448.5 160.5 455.5 170.5 455.5 185.5 c 0xea
 455.5 250.5 458.5 345.5 430.5 387.5 c 0
 415.5 410.5 376.5 433.5 338.5 436.5 c 0
 290.5 440.5 210.5 441.5 163.5 440.5 c 1
EndSplineSet
EndChar
StartChar: uniFB42
Encoding: 374 64322 213
Width: 552
Flags: W
Validated: 33
HStem: 0 160<104.362 226.328 257.865 362.879> 286.5 75.5<275.995 312 312 348.005>
VStem: 30 487<533 548 558 561 526 548 548 548> 138 33<322.582 420.854> 274 76<288.495 360.196>
Fore
349 0 m 2xe0
 59 0 l 2
 43 0 37 9 43 22 c 2
 91 139 l 2
 96 153 106 160 122 160 c 2
 196 160 l 2
 227 160 236 182 216 206 c 0
 190 239 169 240 148 281 c 0
 126 320 132 372 138 404 c 0xd0
 142 424 134 435 123 437 c 0
 102 439 85 446 71 456 c 0
 58 465 47 479 40 496 c 0
 33 514 31 533 30 548 c 0xe0
 29 571 35 597 42 609 c 0
 59 643 68 657 101 619 c 0
 112 606 140 602 157 601 c 0
 198 600 224 585 242 564 c 0
 257 545 265 508 263 475 c 0
 260 434 249 427 238 431 c 0
 226 435 211 437 194 434 c 0
 179 432 171 419 171 402 c 0xd0
 170 356 190 326 217 302 c 0
 248 274 268 221 258 178 c 0
 255 168 259 160 270 160 c 2
 332 160 l 2
 360 160 364 182 369 206 c 0
 376 241 386 278 397 309 c 0
 406 333 417 362 430 402 c 0
 434 417 431 424 415 427 c 0
 396 432 375 438 351 461 c 0
 339 472 329 488 323 505 c 0
 317 523 317 543 317 558 c 0
 319 581 327 607 335 618 c 0
 355 650 367 653 386 624 c 0
 399 604 428 598 441 594 c 0
 483 584 509 561 517 526 c 0
 522 501 526 458 486 431 c 0
 476 425 465 412 462 402 c 0
 446 352 432 292 426 236 c 0
 421 193 420 116 417 73 c 0
 414 22 394 0 349 0 c 2xe0
312 362 m 1
 312 362.5 l 1
 333 362.5 350 345.5 350 324.5 c 0
 350 303.5 333 286.5 312 286.5 c 0
 291 286.5 274 303.5 274 324.5 c 0xc8
 274 345.5 291 362.5 312 362 c 1
EndSplineSet
EndChar
StartChar: uniFB43
Encoding: 375 64323 214
Width: 493
Flags: W
Validated: 33
HStem: 122.5 147<146.157 211 211 243.379> 302.5 75.5<249.995 286 286 322.005> 440.5 160<144 390.51>
VStem: 40 428<-159.5 294.5 294.5 326.879> 248 76<304.495 376.196>
Fore
286 378 m 1xe8
 286 378.5 l 1
 307 378.5 324 361.5 324 340.5 c 0
 324 319.5 307 302.5 286 302.5 c 0
 265 302.5 248 319.5 248 340.5 c 0
 248 361.5 265 378.5 286 378 c 1xe8
104 440.5 m 1
 72 463.5 62 492.5 58 514.5 c 0
 51 548.5 60 597.5 76 628.5 c 0
 86 650.5 98 649.5 106 631.5 c 0
 124 596.5 159 600.5 197 600.5 c 2
 336 600.5 l 2
 392 600.5 430 557.5 433 504.5 c 2
 468 -159.5 l 2
 471 -208.5 452 -244.5 423 -269.5 c 0
 405 -283.5 389 -286.5 390 -258.5 c 2
 409 346.5 l 2
 412 397.5 388 440.5 338 440.5 c 2
 144 440.5 l 1
 119 422.5 94 366.5 103 316.5 c 0
 112 268.5 163 268.5 211 269.5 c 0
 242 270.5 268 249.5 275 215.5 c 0
 282 183.5 279 149.5 245 128.5 c 0
 211 107.5 140 116.5 108 122.5 c 1
 98 115.5 88 103.5 72 91.5 c 0
 63 84.5 51 81.5 43 89.5 c 0
 35 97.5 39 110.5 47 117.5 c 0
 62 130.5 61 128.5 74 141.5 c 1
 35 199.5 36 253.5 40 294.5 c 0xf0
 46 356.5 73 415.5 104 440.5 c 1
EndSplineSet
EndChar
StartChar: uniFB44
Encoding: 376 64324 215
Width: 491
Flags: W
Validated: 33
HStem: 0.19043 160<79.6846 394.813> 224.19 147<151.173 228 228 260.379> 238.5 75.5<323.995 360 360 396.005>
VStem: 18 449<22.1904 185.19 22.1904 123.503> 322 76<240.495 312.196> 437 30<165.82 176.19 176.19 277.503>
Fore
360 314 m 1xa8
 360 314.5 l 1
 381 314.5 398 297.5 398 276.5 c 0
 398 255.5 381 238.5 360 238.5 c 0
 339 238.5 322 255.5 322 276.5 c 0
 322 297.5 339 314.5 360 314 c 1xa8
154 443.5 m 1
 154 443.19 l 1
 131 432.19 125 418.19 126 400.19 c 0
 128 368.19 180 370.19 228 371.19 c 0
 259 372.19 285 351.19 292 317.19 c 0
 299 285.19 296 251.19 262 230.19 c 0
 228 209.19 157 218.19 125 224.19 c 1
 115 217.19 105 205.19 89 193.19 c 0
 80 186.19 68 183.19 60 191.19 c 0
 52 199.19 56 212.19 64 219.19 c 0
 79 232.19 78 230.19 91 243.19 c 1
 58 273.19 50 301.19 54 342.19 c 0
 59 393.19 94 427.19 125 452.19 c 1
 83 469.19 77 498.19 73 518.19 c 0
 64 559.19 72 597.19 87 628.19 c 0
 98 650.19 109 649.19 118 631.19 c 0
 135 596.19 170 602.19 208 600.19 c 0
 259 597.19 369 600.19 419 529.19 c 0
 466 463.19 471 328.19 467 185.19 c 0
 466 162.19 464 155.19 460 144.19 c 2
 409 21.1904 l 2
 403 8.19043 394 0.19043 378 0.19043 c 2
 34 0.19043 l 2
 18 0.19043 13 9.19043 18 22.1904 c 2xd0
 66 139.19 l 2
 72 153.19 81 160.19 97 160.19 c 2
 420 160.19 l 2
 429 160.19 436 166.19 437 176.19 c 0xc4
 438 243.19 433 339.19 402 382.19 c 0
 344 462.19 217 432.19 154 443.5 c 1
EndSplineSet
EndChar
StartChar: uniFB45
Encoding: 377 64325 216
Width: 537
Flags: W
Validated: 33
HStem: 328.5 75.5<199.995 236 236 272.005>
VStem: 31.8896 472<533 540 504 548 548 548> 117.89 46<251.239 312.293> 135.89 86<-218.282 -102.172 -102.172 -56.7397> 198 76<330.495 402.196>
Fore
236 404 m 1x88
 236 404.5 l 1
 257 404.5 274 387.5 274 366.5 c 0
 274 345.5 257 328.5 236 328.5 c 0
 215 328.5 198 345.5 198 366.5 c 0
 198 387.5 215 404.5 236 404 c 1x88
190 134.5 m 1
 189.89 135 l 1
 205.89 51 223.89 -86 221.89 -127 c 0
 218.89 -169 203.89 -210 172.89 -262 c 0
 155.89 -289 131.89 -282 133.89 -256 c 0
 136.89 -191 137.89 -112 135.89 -23 c 0x90
 132.89 76 119.89 132 117.89 232 c 0xa0
 116.89 299 122.89 347 152.89 415 c 0
 155.89 422 155.89 430 144.89 431 c 0
 123.89 434 108.89 435 85.8896 446 c 0
 66.8896 455 47.8896 474 40.8896 493 c 0
 32.8896 514 30.8896 533 31.8896 548 c 0xc0
 31.8896 571 39.8896 604 45.8896 615 c 0
 64.8896 648 75.8896 659 95.8896 627 c 0
 108.89 607 134.89 604 148.89 601 c 0
 177.89 596 193.89 589 211.89 574 c 0
 246.89 543 236.89 475 207.89 443 c 0
 194.89 429 188.89 416 188.89 416 c 1
 173.89 380 166.89 357 163.89 324 c 0xa0
 162.89 297 164.89 263 171.89 229 c 0
 174.89 213 182.89 208 192.89 221 c 2
 361.89 433 l 2
 367.89 440 370.89 445 358.89 455 c 0
 333.89 475 323.89 499 322.89 532 c 0
 321.89 569 332.89 599 359.89 629 c 0
 378.89 652 397.89 652 405.89 629 c 0
 409.89 621 423.89 601 443.89 589 c 0
 477.89 570 501.89 540 503.89 504 c 0xc0
 505.89 466 495.89 442 472.89 413 c 0
 461.89 398 443.89 380 432.89 393 c 0
 425.89 401 420.89 407 412.89 413 c 0
 407.89 417 399.89 420 390.89 409 c 2
 201.89 177 l 1
 193.89 162 187.89 145 190 134.5 c 1
EndSplineSet
EndChar
StartChar: uniFB46
Encoding: 378 64326 217
Width: 561
Flags: W
Validated: 33
HStem: 0.5 160<99.6846 413.324> 194.5 75.5<165.995 202 202 238.005>
VStem: 38 478<22.5 503.5 -5.5 52.2134> 164 76<196.495 268.196>
Fore
202 270 m 1xd0
 202 270.5 l 1
 223 270.5 240 253.5 240 232.5 c 0
 240 211.5 223 194.5 202 194.5 c 0
 181 194.5 164 211.5 164 232.5 c 0
 164 253.5 181 270.5 202 270 c 1xd0
54 0.5 m 2
 38 0.5 33 9.5 38 22.5 c 2
 86 139.5 l 2
 92 153.5 101 160.5 117 160.5 c 2
 406 160.5 l 2
 421 160.5 420 166.5 413 172.5 c 2
 228 312.5 l 2
 220 319.5 216 326.5 215 336.5 c 0
 211 368.5 209 388.5 204 402.5 c 0
 200 415.5 198 426.5 176 428.5 c 0
 136 431.5 97 436.5 70 461.5 c 0
 59 472.5 49 488.5 44 505.5 c 0
 38 523.5 37 543.5 38 558.5 c 0
 39 581.5 48 607.5 55 618.5 c 0
 75 650.5 86 653.5 105 624.5 c 0
 118 604.5 145 598.5 158 594.5 c 0
 199 584.5 223 560.5 232 526.5 c 0
 240 495.5 232 468.5 228 442.5 c 0
 226 433.5 228 424.5 234 414.5 c 0
 239 405.5 326 339.5 326 339.5 c 2
 335 331.5 342 336.5 346 343.5 c 2
 382 428.5 l 2
 386 435.5 390 441.5 377 451.5 c 0
 353 470.5 336 498.5 336 531.5 c 0
 335 568.5 345 598.5 372 628.5 c 0
 392 651.5 410 651.5 419 628.5 c 0
 422 620.5 436 600.5 456 588.5 c 0
 490 569.5 514 539.5 516 503.5 c 0xe0
 518 465.5 508 441.5 486 412.5 c 0
 474 397.5 456 379.5 446 392.5 c 0
 438 400.5 438 403.5 431 409.5 c 0
 426 414.5 417 421.5 412 408.5 c 2
 374 321.5 l 2
 368 309.5 370 304.5 380 296.5 c 2
 486 212.5 l 2
 520 185.5 535 121.5 512 69.5 c 0
 490 21.5 448 0.5 397 0.5 c 2
 54 0.5 l 2
EndSplineSet
EndChar
StartChar: uniFB47
Encoding: 379 64327 218
Width: 544
Flags: W
Validated: 33
HStem: 262.5 75.5<259.995 296 296 332.005>
VStem: 45.5 462<-283.5 158.5 -374.283 -39.5622> 45.5 85<-162.549 -110.283 -110.283 224.438> 48.5 57<-79.5204 -19.5 -19.5 160.136 160.136 307.929> 258 76<264.495 336.196>
Fore
296 338 m 1x88
 296 338.5 l 1
 317 338.5 334 321.5 334 300.5 c 0
 334 279.5 317 262.5 296 262.5 c 0
 275 262.5 258 279.5 258 300.5 c 0
 258 321.5 275 338.5 296 338 c 1x88
186 600.5 m 1
 185.5 600.5 l 1
 217.5 596.5 395.5 612.5 466.5 538.5 c 0
 536.5 466.5 532.5 230.5 507.5 158.5 c 0xc0
 496.5 126.5 460.5 82.5 411.5 61.5 c 0
 344.5 33.5 238.5 41.5 211.5 -4.5 c 0
 199.5 -25.5 177.5 -15.5 176.5 10.5 c 0
 176.5 18.5 177.5 31.5 184.5 48.5 c 0
 201.5 88.5 237.5 115.5 317.5 141.5 c 0
 381.5 162.5 429.5 152.5 464.5 191.5 c 0
 502.5 233.5 500.5 352.5 462.5 395.5 c 0
 408.5 456.5 181.5 429.5 119.5 446.5 c 0
 62.5 462.5 55.5 496.5 50.5 518.5 c 0
 41.5 559.5 49.5 597.5 64.5 628.5 c 0
 75.5 650.5 86.5 649.5 95.5 631.5 c 0
 112.5 596.5 148.5 604.5 186 600.5 c 1
133.5 346.5 m 0
 108.5 299.5 105.5 276.5 105.5 242.5 c 0x90
 102.5 142.5 131.5 0.5 130.5 -83.5 c 0xa0
 129.5 -155.5 127.5 -222.5 80.5 -287.5 c 0
 53.5 -324.5 41.5 -323.5 45.5 -283.5 c 0xc0
 55.5 -167.5 45.5 -125.5 46.5 -19.5 c 0
 47.5 76.5 39.5 162.5 48.5 227.5 c 0x90
 55.5 274.5 73.5 323.5 104.5 358.5 c 0
 131.5 389.5 147.5 372.5 133.5 346.5 c 0
EndSplineSet
EndChar
StartChar: uniFB48
Encoding: 380 64328 219
Width: 502
Flags: W
Validated: 33
HStem: 262.5 75.5<273.995 310 310 346.005> 440.5 160<114.392 387.703>
VStem: 34 436<154.5 514.5 514.5 550.505> 272 76<264.495 336.196> 427 43<26.6375 216.954>
Fore
310 338 m 1xd0
 310 338.5 l 1
 331 338.5 348 321.5 348 300.5 c 0
 348 279.5 331 262.5 310 262.5 c 0
 289 262.5 272 279.5 272 300.5 c 0
 272 321.5 289 338.5 310 338 c 1xd0
427 344.5 m 0xc8
 427 394.5 389 440.5 331 440.5 c 2
 108 440.5 l 2
 63 440.5 38 492.5 34 514.5 c 0
 27 548.5 37 597.5 52 628.5 c 0
 63 650.5 74 649.5 83 631.5 c 0
 100 596.5 135 600.5 173 600.5 c 2
 306 600.5 l 2
 394 600.5 440 539.5 452 440.5 c 0
 460 372.5 465 208.5 470 154.5 c 0xe0
 472 132.5 476 72.5 457 20.5 c 0
 443 -18.5 412 -7.5 414 26.5 c 2
 414 26.5 419 215.5 427 344.5 c 0xc8
EndSplineSet
EndChar
StartChar: uniFB49
Encoding: 381 64329 220
Width: 716
Flags: W
Validated: 33
HStem: -0.5 160<134.75 165.851 213.817 426.826> 246.5 75.5<332.995 369 369 405.005>
VStem: 331 76<248.495 320.196>
Fore
0 0 m 0
 0 0 l 0
369 322 m 1
 369 322.5 l 1
 390 322.5 407 305.5 407 284.5 c 0
 407 263.5 390 246.5 369 246.5 c 0
 348 246.5 331 263.5 331 284.5 c 0
 331 305.5 348 322.5 369 322 c 1
459 226.5 m 0
 497 318.5 551 398.5 551 398.5 c 2
 555 405.5 557 413.5 549 419.5 c 0
 531 433.5 484 459.5 473 505.5 c 0
 461 554.5 474 590.5 506 627.5 c 0
 525 650.5 544 650.5 553 627.5 c 0
 556 619.5 571 599.5 591 587.5 c 0
 624 568.5 648 538.5 650 502.5 c 0
 652 464.5 643 440.5 620 411.5 c 0
 608 396.5 602 392.5 597 393.5 c 0
 593 394.5 589 399.5 583 389.5 c 0
 547 340.5 517 264.5 487 148.5 c 0
 471 87.5 457 -0.5 344 -0.5 c 2
 81 -0.5 l 2
 71 -0.5 66 4.5 66 14.5 c 0
 66 36.5 65 78.5 62 107.5 c 0
 53 207.5 47 195.5 46 267.5 c 0
 47 307.5 62 352.5 74 391.5 c 0
 80 409.5 77 422.5 67 425.5 c 0
 49 432.5 35 442.5 24 454.5 c 0
 14 465.5 6 481.5 3 498.5 c 0
 -1 517.5 0 536.5 2 551.5 c 0
 5 574.5 15 603.5 22 614.5 c 0
 43 649.5 57 654.5 75 624.5 c 0
 83 610.5 99 596.5 123 590.5 c 0
 159 580.5 180 557.5 192 530.5 c 0
 202 509.5 204 471.5 197 439.5 c 0
 188 399.5 178 394.5 168 400.5 c 0
 158 406.5 146 411.5 129 411.5 c 0
 116 411.5 109 400.5 104 383.5 c 0
 89 334.5 86 327.5 93 291.5 c 0
 101 248.5 121 224.5 130 174.5 c 0
 131 165.5 136 159.5 147 159.5 c 2
 153 159.5 l 2
 163 159.5 169 164.5 173 173.5 c 2
 285 431.5 l 2
 288 439.5 290 446.5 281 453.5 c 0
 256 472.5 246 497.5 245 530.5 c 0
 244 567.5 255 597.5 282 627.5 c 0
 301 650.5 320 650.5 329 627.5 c 0
 331 619.5 346 599.5 366 587.5 c 0
 400 568.5 423 538.5 425 502.5 c 0
 428 464.5 418 440.5 395 411.5 c 0
 384 396.5 366 378.5 355 391.5 c 0
 348 399.5 343 405.5 335 411.5 c 0
 329 415.5 319 422.5 313 407.5 c 2
 214 173.5 l 2
 210 162.5 212 159.5 224 159.5 c 2
 344 159.5 l 2
 394 159.5 440 180.5 459 226.5 c 0
EndSplineSet
EndChar
StartChar: uniFB4A
Encoding: 382 64330 221
Width: 571
Flags: W
Validated: 33
HStem: 0.5 21G<18.6699 151.17> 262.5 75.5<281.995 318 318 354.005> 448.5 152<167.67 455.533>
VStem: 10.6699 528<22.5 154.5 22.5 58.5047> 280 76<264.495 336.196> 495.67 43<26.6375 216.954>
Fore
318 338 m 1xe8
 318 338.5 l 1
 339 338.5 356 321.5 356 300.5 c 0
 356 279.5 339 262.5 318 262.5 c 0
 297 262.5 280 279.5 280 300.5 c 0
 280 321.5 297 338.5 318 338 c 1xe8
131 448.5 m 1
 130.67 448.5 l 1
 100.67 462.5 88.6699 496.5 85.6699 514.5 c 0
 79.6699 548.5 88.6699 597.5 103.67 628.5 c 0
 114.67 650.5 125.67 649.5 134.67 631.5 c 0
 151.67 596.5 186.67 600.5 225.67 600.5 c 2
 374.67 600.5 l 2
 462.67 600.5 508.67 539.5 520.67 440.5 c 0
 528.67 372.5 533.67 208.5 538.67 154.5 c 0xf0
 540.67 132.5 544.67 72.5 525.67 20.5 c 0
 511.67 -18.5 480.67 -7.5 482.67 26.5 c 2
 482.67 26.5 487.67 215.5 495.67 344.5 c 0xe4
 495.67 394.5 457.67 440.5 399.67 440.5 c 2
 167.67 440.5 l 1
 158.67 425.5 151.67 414.5 145.67 397.5 c 0
 126.67 347.5 132.67 293.5 163.67 240.5 c 0
 188.67 197.5 214.67 140.5 199.67 76.5 c 0
 193.67 54.5 175.67 0.5 126.67 0.5 c 2
 26.6699 0.5 l 2
 10.6699 0.5 4.66992 9.5 10.6699 22.5 c 2xf0
 58.6699 139.5 l 2
 63.6699 153.5 73.6699 160.5 89.6699 160.5 c 0
 93.6699 160.5 100.67 161.5 105.67 167.5 c 0
 115.67 180.5 71.6699 225.5 78.6699 304.5 c 0
 83.6699 364.5 110.67 426.5 131 448.5 c 1
EndSplineSet
EndChar
StartChar: afii57700
Encoding: 383 64331 222
Width: 266
Flags: W
Validated: 33
HStem: 645 75<117.995 190.005>
VStem: 116 76<646.987 718.005> 155 65<79.534 155 155 347.775>
Fore
154 720 m 0xc0
 175 720 192 703 192 682 c 0
 192 662 175 645 154 645 c 0
 133 645 116 662 116 682 c 0
 116 703 133 720 154 720 c 0xc0
221 523 m 0
 228 485 220 448 196 418 c 0
 192 412 185 401 187 390 c 0
 198 322 214 210 220 155 c 0
 223 133 224 77 196 20 c 0
 179 -17 143 -10 144 25 c 2
 144 25 153 268 155 392 c 0xa0
 156 406 147 419 134 423 c 0
 118 427 91 435 75 446 c 0
 58 458 44 476 38 496 c 0
 32 515 31 543 32 558 c 0
 33 581 41 607 48 618 c 0
 68 650 80 653 98 624 c 0
 111 604 138 598 152 594 c 0
 193 584 215 554 221 523 c 0
EndSplineSet
EndChar
StartChar: uniFB4C
Encoding: 384 64332 223
Width: 498
Flags: W
Validated: 33
HStem: 0 160<84.6846 416.094> 654 55<157.027 346.973>
VStem: 23 470<22 138 22 22> 419 27<160.01 265.209>
Fore
152 694 m 2xc0
 152 702 159 709 167 709 c 2
 337 709 l 2
 345 709 352 702 352 694 c 2
 352 669 l 2
 352 661 345 654 337 654 c 2
 167 654 l 2
 159 654 152 661 152 669 c 2
 152 694 l 2xc0
477 160 m 2
 493 160 499 151 493 138 c 2
 445 21 l 2
 440 7 430 0 414 0 c 2
 40 0 l 2
 24 0 18 9 23 22 c 2xe0
 71 139 l 2
 77 153 86 160 102 160 c 2
 403 160 l 2
 412 160 419 161 419 176 c 0
 421 241 410 362 369 396 c 0
 290 462 184 429 122 446 c 0
 65 462 58 496 53 518 c 0
 44 559 52 597 67 628 c 0
 78 650 89 649 98 631 c 0
 115 596 150 602 188 600 c 0
 239 597 336 601 388 538 c 0
 447 467 451 323 446 174 c 1xd0
 446 174 447 160 461 160 c 2
 477 160 l 2
EndSplineSet
EndChar
StartChar: uniFB4D
Encoding: 385 64333 224
Width: 501
Flags: W
Validated: 33
HStem: 0 160<80.9988 397.735> 654 55<160.027 349.973>
VStem: 20.2305 459<22 185 22 31> 451.23 27.7695<161.111 176 176 185 185 258.987>
Fore
155 694 m 2xc0
 155 702 162 709 170 709 c 2
 340 709 l 2
 348 709 355 702 355 694 c 2
 355 669 l 2
 355 661 348 654 340 654 c 2
 170 654 l 2
 162 654 155 661 155 669 c 2
 155 694 l 2xc0
479 185 m 1xd0
 479.23 185 l 1
 478.23 162 470.23 144 470.23 144 c 1
 412.23 21 l 2
 405.23 8 397.23 0 381.23 0 c 2
 36.2305 0 l 2
 20.2305 0 14.2305 9 20.2305 22 c 2xe0
 68.2305 139 l 2
 73.2305 153 82.2305 160 98.2305 160 c 2
 435.23 160 l 2
 444.23 160 451.23 161 451.23 176 c 0
 453.23 242 444.23 292 427.23 333 c 0
 411.23 372 380.23 404 346.23 421 c 0
 279.23 454 178.23 432 129.23 446 c 0
 72.2305 462 65.2305 496 60.2305 518 c 0
 51.2305 559 59.2305 597 74.2305 628 c 0
 85.2305 650 96.2305 649 105.23 631 c 0
 122.23 596 157.23 602 196.23 600 c 0
 245.23 596 365.23 604 421.23 532 c 0
 477.23 460 483.23 328 479 185 c 1xd0
EndSplineSet
EndChar
StartChar: uniFB4E
Encoding: 386 64334 225
Width: 491
Flags: W
Validated: 33
HStem: -0.30957 160<79.6846 394.813> 223.69 147<151.173 228 228 260.379> 654 55<163.027 352.973>
VStem: 18 449<21.6904 184.69 21.6904 123.003> 437 30<165.32 175.69 175.69 277.003>
Fore
158 694 m 2xe0
 158 702 165 709 173 709 c 2
 343 709 l 2
 351 709 358 702 358 694 c 2
 358 669 l 2
 358 661 351 654 343 654 c 2
 173 654 l 2
 165 654 158 661 158 669 c 2
 158 694 l 2xe0
154 443 m 1
 154 442.69 l 1
 131 431.69 125 417.69 126 399.69 c 0
 128 367.69 180 369.69 228 370.69 c 0
 259 371.69 285 350.69 292 316.69 c 0
 299 284.69 296 250.69 262 229.69 c 0
 228 208.69 157 217.69 125 223.69 c 1
 115 216.69 105 204.69 89 192.69 c 0
 80 185.69 68 182.69 60 190.69 c 0
 52 198.69 56 211.69 64 218.69 c 0
 79 231.69 78 229.69 91 242.69 c 1
 58 272.69 50 300.69 54 341.69 c 0
 59 392.69 94 426.69 125 451.69 c 1
 83 468.69 77 497.69 73 517.69 c 0
 64 558.69 72 596.69 87 627.69 c 0
 98 649.69 109 648.69 118 630.69 c 0
 135 595.69 170 601.69 208 599.69 c 0
 259 596.69 369 599.69 419 528.69 c 0
 466 462.69 471 327.69 467 184.69 c 0
 466 161.69 464 154.69 460 143.69 c 2
 409 20.6904 l 2
 403 7.69043 394 -0.30957 378 -0.30957 c 2
 34 -0.30957 l 2
 18 -0.30957 13 8.69043 18 21.6904 c 2xf0
 66 138.69 l 2
 72 152.69 81 159.69 97 159.69 c 2
 420 159.69 l 2
 429 159.69 436 165.69 437 175.69 c 0xe8
 438 242.69 433 338.69 402 381.69 c 0
 344 461.69 217 431.69 154 443 c 1
EndSplineSet
EndChar
StartChar: uniFB4F
Encoding: 387 64335 226
Width: 593
Flags: W
Validated: 33
VStem: 52 44<536.878 713.337>
Fore
136 554 m 0
 178 510 207 481 257 440 c 2
 357 355 l 1
 357 355 368 348 374 359 c 2
 374 359 398 404 404 416 c 0
 409 426 406 437 398 443 c 0
 369 468 355 483 348 521 c 0
 344 545 352 580 358 592 c 0
 369 615 382 627 396 636 c 0
 428 655 426 640 441 609 c 0
 446 598 456 590 467 583 c 0
 491 568 536 545 548 502 c 0
 563 449 546 416 529 380 c 0
 522 364 506 351 499 362 c 0
 489 378 475 391 458 401 c 0
 449 406 437 404 432 394 c 2
 402 338 l 1
 402 338 397 326 406 319 c 0
 488 252 538 207 544 124 c 0
 547 82 530 35 499 10 c 0
 463 -19 462 21 459 50 c 0
 454 102 345 185 259 257 c 0
 215 294 154 348 124 376 c 0
 99 400 62 440 56 474 c 0
 53 489 52 503 52 516 c 0
 52 622 49 687 60 719 c 0
 74 760 98 768 97 784 c 0
 96 800 67 814 61 826 c 0
 57 834 58 858 60 874 c 0
 62 890 65 902 85 899 c 0
 136 891 161 833 161 812 c 0
 161 787 118 756 106 737 c 0
 94 718 96 698 96 652 c 0
 96 612 108 584 136 554 c 0
EndSplineSet
EndChar
